<svg xmlns="http://www.w3.org/2000/svg" xmlns:xlink="http://www.w3.org/1999/xlink" width="768.763" height="696.459" viewBox="0 0 768.763 696.459"><defs><style>.a{fill:#e6e6e6;}.b{fill:#ff8085;}.ax,.c{fill:#b4a8c3;}.c{opacity:0.58;}.am,.av,.ax,.c,.w,.x{mix-blend-mode:multiply;isolation:isolate;}.d{fill:#aaa9c7;}.e{fill:#161326;}.f{fill:#e2dfea;}.g{fill:#7d7da2;}.h{fill:url(#a);}.i{fill:#030000;}.j{fill:#092236;}.k{opacity:0.27;}.l{fill:#eff7ff;}.m{fill:url(#b);}.n{fill:#6b8091;}.o{fill:#923eff;}.p{fill:#af8eff;}.q{fill:#d9b8ff;}.r{fill:#ccc;}.s{fill:#ff74b8;}.t{fill:#ba32c0;}.u{fill:#f14290;}.v{fill:#fbf9fb;}.w{fill:#d1c3e3;}.x{fill:#b09bc5;}.y{fill:#b8abd3;}.z{fill:#e3247c;}.aa{fill:#ff50a0;}.ab{fill:#ede7f2;}.ac{fill:#072439;}.ad{fill:#344e5d;}.ae{fill:#b3316e;}.af{fill:#ffc147;}.ag{fill:#bb2c41;}.ah{fill:#ffe861;}.ai{fill:#ff4e1c;}.aj{fill:#ff7900;}.ak{fill:#df465c;}.al{fill:#ffec88;}.am{fill:#dfd0f3;}.an{fill:#f5497a;}.ao{fill:#f05;}.ap{fill:#6d21d3;}.aq{fill:#ff594f;}.ar{fill:#ffb523;}.as{fill:#ffe13e;}.at{fill:#bd6823;}.au{fill:#b082f7;}.aw{fill:#cdb3ed;}.ay{fill:#f5e0dc;}.az{fill:#97184d;}.ba{fill:#c83672;}.bb{fill:#f9e181;}.bc{fill:#ffb229;}.bd{fill:#ffc94f;}</style><linearGradient id="a" y1="0.5" x2="1" y2="0.5" gradientUnits="objectBoundingBox"><stop offset="0" stop-color="#ffc482"/><stop offset="1" stop-color="#f03c3c"/></linearGradient><radialGradient id="b" cx="0.5" cy="0.5" r="0.707" gradientTransform="translate(0.211) scale(0.578 1)" gradientUnits="objectBoundingBox"><stop offset="0" stop-color="#fff"/><stop offset="0.966" stop-color="#f8f8f8"/><stop offset="1" stop-color="#f8f8f8"/></radialGradient></defs><g transform="translate(-955.237 -208.395)"><path class="a" d="M1007.007,840.617c8.028,4.638,8.028,12.156,0,16.794s-21.043,4.637-29.071,0-8.028-12.156,0-16.794S998.979,835.98,1007.007,840.617Z"/><path class="a" d="M1567.937,810.659c9.044,5.225,9.044,13.7,0,18.921s-23.708,5.224-32.753,0-9.044-13.7,0-18.921S1558.893,805.435,1567.937,810.659Z"/><path class="b" d="M977.038,672.484c4.988,2.881,4.988,7.552,0,10.433s-13.073,2.881-18.061,0-4.987-7.552,0-10.433S972.051,669.6,977.038,672.484Z"/><path class="b" d="M1266.461,817.849c3.458,2,3.458,5.237,0,7.235a13.837,13.837,0,0,1-12.523,0c-3.458-2-3.458-5.237,0-7.235A13.837,13.837,0,0,1,1266.461,817.849Z"/><path class="a" d="M1229.368,693.2l-124.413,71.871a16.17,16.17,0,0,1-14.635,0h0c-4.041-2.335-4.041-6.12,0-8.454l124.414-71.871a16.161,16.161,0,0,1,14.634,0h0C1233.409,687.076,1233.409,690.861,1229.368,693.2Z"/><path class="a" d="M1325.48,637.674l-65.749,37.982a16.168,16.168,0,0,1-14.634,0h0c-4.041-2.335-4.041-6.12,0-8.454l65.749-37.982a16.168,16.168,0,0,1,14.634,0h0C1329.521,631.555,1329.521,635.339,1325.48,637.674Z"/><path class="a" d="M1266.251,634.177l-124.413,71.872a16.168,16.168,0,0,1-14.634,0h0c-4.042-2.335-4.042-6.12,0-8.454l124.413-71.872a16.167,16.167,0,0,1,14.634,0h0C1270.293,628.058,1270.293,631.843,1266.251,634.177Z"/><path class="a" d="M1425.34,542.276l-124.414,71.871a16.167,16.167,0,0,1-14.634,0h0c-4.041-2.335-4.041-6.12,0-8.454L1410.7,533.822a16.163,16.163,0,0,1,14.635,0h0C1429.381,536.156,1429.381,539.941,1425.34,542.276Z"/><path class="a" d="M1496.792,576.422l-124.414,71.871a16.162,16.162,0,0,1-14.634,0h0c-4.041-2.334-4.041-6.119,0-8.454l124.413-71.871a16.169,16.169,0,0,1,14.635,0h0C1500.833,570.3,1500.833,574.088,1496.792,576.422Z"/><path class="a" d="M1262.009,712.052l-36.417,21.037a16.168,16.168,0,0,1-14.634,0h0c-4.041-2.335-4.041-6.12,0-8.454l36.416-21.037a16.163,16.163,0,0,1,14.635,0h0C1266.05,705.932,1266.05,709.717,1262.009,712.052Z"/><path class="a" d="M1574.236,531.684l-36.416,21.037a16.161,16.161,0,0,1-14.634,0h0c-4.042-2.334-4.042-6.119,0-8.454L1559.6,523.23a16.168,16.168,0,0,1,14.634,0h0C1578.277,525.565,1578.277,529.35,1574.236,531.684Z"/><path class="a" d="M1291,582.169,1166.587,654.04a16.163,16.163,0,0,1-14.635,0h0c-4.041-2.335-4.041-6.12,0-8.454l124.414-71.871a16.161,16.161,0,0,1,14.634,0h0C1295.042,576.049,1295.042,579.835,1291,582.169Z"/><path class="a" d="M1368.445,537.431l-36.416,21.037a16.17,16.17,0,0,1-14.635,0h0c-4.041-2.335-4.041-6.12,0-8.454l36.417-21.037a16.161,16.161,0,0,1,14.634,0h0C1372.486,531.311,1372.486,535.1,1368.445,537.431Z"/><path class="a" d="M1429.614,831.231,1305.2,903.1a16.17,16.17,0,0,1-14.635,0h0c-4.041-2.335-4.041-6.12,0-8.455l124.414-71.871a16.168,16.168,0,0,1,14.634,0h0C1433.655,825.112,1433.655,828.9,1429.614,831.231Z"/><path class="a" d="M1525.726,775.71l-65.749,37.981a16.161,16.161,0,0,1-14.634,0h0c-4.041-2.334-4.041-6.119,0-8.454l65.749-37.981a16.161,16.161,0,0,1,14.634,0h0C1529.767,769.59,1529.767,773.375,1525.726,775.71Z"/><path class="a" d="M1466.5,772.213l-124.413,71.871a16.161,16.161,0,0,1-14.634,0h0c-4.042-2.334-4.042-6.119,0-8.454l124.413-71.871a16.168,16.168,0,0,1,14.634,0h0C1470.539,766.094,1470.539,769.879,1466.5,772.213Z"/><path class="a" d="M1625.586,680.311l-124.414,71.871a16.161,16.161,0,0,1-14.634,0h0c-4.041-2.334-4.041-6.119,0-8.454l124.413-71.871a16.17,16.17,0,0,1,14.635,0h0C1629.627,674.192,1629.627,677.977,1625.586,680.311Z"/><path class="a" d="M1697.038,714.458l-124.414,71.871a16.161,16.161,0,0,1-14.634,0h0c-4.041-2.334-4.041-6.119,0-8.454L1682.4,706a16.163,16.163,0,0,1,14.635,0h0C1701.079,708.339,1701.079,712.124,1697.038,714.458Z"/><path class="a" d="M1462.255,850.087l-36.417,21.037a16.162,16.162,0,0,1-14.634,0h0c-4.041-2.334-4.041-6.119,0-8.454l36.416-21.037a16.17,16.17,0,0,1,14.635,0h0C1466.3,843.968,1466.3,847.753,1462.255,850.087Z"/><path class="a" d="M1491.246,720.205l-124.413,71.871a16.168,16.168,0,0,1-14.634,0h0c-4.042-2.335-4.042-6.12,0-8.454l124.413-71.871a16.161,16.161,0,0,1,14.634,0h0C1495.287,714.085,1495.287,717.87,1491.246,720.205Z"/><path class="a" d="M1568.691,675.466,1532.275,696.5a16.17,16.17,0,0,1-14.635,0h0c-4.041-2.335-4.041-6.12,0-8.455l36.417-21.036a16.161,16.161,0,0,1,14.634,0h0C1572.732,669.347,1572.732,673.132,1568.691,675.466Z"/><path class="a" d="M1344.267,736.334l-124.414,71.871a16.168,16.168,0,0,1-14.634,0h0c-4.041-2.335-4.041-6.12,0-8.454l124.414-71.871a16.161,16.161,0,0,1,14.634,0h0C1348.308,730.214,1348.308,734,1344.267,736.334Z"/><path class="a" d="M1440.378,680.812l-65.748,37.982a16.168,16.168,0,0,1-14.634,0h0c-4.042-2.335-4.042-6.12,0-8.454l65.748-37.982a16.162,16.162,0,0,1,14.634,0h0C1444.42,674.692,1444.42,678.477,1440.378,680.812Z"/><path class="a" d="M1381.15,677.315l-124.414,71.872a16.168,16.168,0,0,1-14.634,0h0c-4.041-2.335-4.041-6.12,0-8.455l124.414-71.871a16.167,16.167,0,0,1,14.634,0h0C1385.191,671.2,1385.191,674.981,1381.15,677.315Z"/><path class="a" d="M1540.238,585.413l-124.413,71.872a16.169,16.169,0,0,1-14.635,0h0c-4.041-2.335-4.041-6.12,0-8.454L1525.6,576.96a16.161,16.161,0,0,1,14.634,0h0C1544.279,579.294,1544.279,583.079,1540.238,585.413Z"/><path class="a" d="M1611.69,619.56l-124.413,71.872a16.17,16.17,0,0,1-14.635,0h0c-4.041-2.334-4.041-6.119,0-8.454l124.414-71.871a16.167,16.167,0,0,1,14.634,0h0C1615.731,613.441,1615.731,617.226,1611.69,619.56Z"/><path class="a" d="M1376.907,755.189l-36.416,21.037a16.161,16.161,0,0,1-14.634,0h0c-4.042-2.334-4.042-6.119,0-8.454l36.416-21.036a16.161,16.161,0,0,1,14.634,0h0C1380.949,749.07,1380.949,752.855,1376.907,755.189Z"/><path class="a" d="M1689.135,574.822l-36.416,21.037a16.164,16.164,0,0,1-14.635,0h0c-4.041-2.334-4.041-6.119,0-8.454l36.416-21.037a16.17,16.17,0,0,1,14.635,0h0C1693.176,568.7,1693.176,572.488,1689.135,574.822Z"/><path class="a" d="M1405.9,625.307l-124.414,71.871a16.167,16.167,0,0,1-14.634,0h0c-4.041-2.335-4.041-6.12,0-8.454l124.414-71.871a16.161,16.161,0,0,1,14.634,0h0C1409.94,619.187,1409.94,622.972,1405.9,625.307Z"/><path class="a" d="M1483.344,580.569l-36.417,21.037a16.168,16.168,0,0,1-14.634,0h0c-4.041-2.335-4.041-6.12,0-8.454l36.416-21.037a16.164,16.164,0,0,1,14.635,0h0C1487.385,574.449,1487.385,578.234,1483.344,580.569Z"/><path class="a" d="M1110.056,650.983l-117.7,68a15.291,15.291,0,0,1-13.845,0h0c-3.823-2.208-3.823-5.789,0-8l117.7-67.995a15.3,15.3,0,0,1,13.845,0h0C1113.879,645.194,1113.879,648.775,1110.056,650.983Z"/><path class="a" d="M1200.985,598.456l-62.2,35.933a15.29,15.29,0,0,1-13.845,0h0c-3.824-2.209-3.824-5.789,0-8l62.2-35.933a15.291,15.291,0,0,1,13.845,0h0C1204.808,592.666,1204.808,596.247,1200.985,598.456Z"/><path class="a" d="M1144.95,595.148l-117.7,67.995a15.293,15.293,0,0,1-13.846,0h0c-3.823-2.209-3.823-5.79,0-8l117.7-67.995a15.29,15.29,0,0,1,13.845,0h0C1148.774,589.358,1148.774,592.939,1144.95,595.148Z"/><path class="a" d="M1295.459,508.2l-117.7,68a15.291,15.291,0,0,1-13.845,0h0c-3.824-2.208-3.824-5.789,0-8l117.7-67.995a15.291,15.291,0,0,1,13.845,0h0C1299.282,502.413,1299.282,505.994,1295.459,508.2Z"/><path class="a" d="M1363.058,540.508l-117.7,67.995a15.3,15.3,0,0,1-13.845,0h0c-3.824-2.209-3.824-5.79,0-8l117.7-68a15.3,15.3,0,0,1,13.846,0h0C1366.881,534.718,1366.881,538.3,1363.058,540.508Z"/><path class="a" d="M1140.936,668.822l-34.452,19.9a15.3,15.3,0,0,1-13.845,0h0c-3.823-2.209-3.823-5.79,0-8l34.452-19.9a15.3,15.3,0,0,1,13.845,0h0C1144.76,663.033,1144.76,666.614,1140.936,668.822Z"/><path class="a" d="M1436.326,498.182l-34.453,19.9a15.3,15.3,0,0,1-13.845,0h0c-3.823-2.209-3.823-5.79,0-8l34.453-19.9a15.291,15.291,0,0,1,13.845,0h0C1440.149,492.393,1440.149,495.973,1436.326,498.182Z"/><path class="a" d="M1168.364,545.944l-117.7,68a15.291,15.291,0,0,1-13.845,0h0c-3.823-2.208-3.823-5.789,0-8l117.7-67.995a15.3,15.3,0,0,1,13.845,0h0C1172.188,540.155,1172.188,543.735,1168.364,545.944Z"/><path class="a" d="M1241.633,503.619l-34.453,19.9a15.291,15.291,0,0,1-13.845,0h0c-3.823-2.208-3.823-5.789,0-8l34.452-19.9a15.293,15.293,0,0,1,13.846,0h0C1245.456,497.829,1245.456,501.41,1241.633,503.619Z"/><path class="c" d="M1654.492,756.875,1504.7,843.355c-18.571,10.722-48.681,10.722-67.252,0l-358.2-206.806c-18.571-10.722-18.571-28.106,0-38.828l149.789-86.48c18.571-10.722,48.681-10.722,67.252,0l358.2,206.806C1673.063,728.769,1673.063,746.153,1654.492,756.875Z"/><path class="d" d="M1065.688,559.481a26.689,26.689,0,0,0,7.967,6.6l360.107,208.008a45.87,45.87,0,0,0,13.543,5.182,72.091,72.091,0,0,0,14.567,1.556c9.92.037,19.992-2.031,28.148-6.738l171.358-98.973c4.835-2.791,10.09-7.611,11.342-13.059a12.433,12.433,0,0,0,.3-2.77v25.546c.018,7.022-5.426,12.659-11.646,16.246L1490.02,800.076a45.794,45.794,0,0,1-13.543,5.163c-13.9,2.98-30.463,1.917-42.715-5.163L1073.655,592.05a37.1,37.1,0,0,1-4.514-3.074c-3.909-3.094-7.113-8.295-7.113-13.286h-.019V549.821h.019A17.076,17.076,0,0,0,1065.688,559.481Z"/><path class="e" d="M1590.191,724.2a3.062,3.062,0,0,1,2.845-.36,2.85,2.85,0,0,1,1.384,2.807v1.823a9.352,9.352,0,0,1-4.229,7.326l-28.984,16.739a2.576,2.576,0,0,1-4.229-2.43v-1.84a9.347,9.347,0,0,1,4.229-7.307Z"/><path class="e" d="M1525.852,760.9c4.039-4.1,7.909-2.467,7.795,1.766-.171,6.358-6.468,12.563-9.882,10.438a3.651,3.651,0,0,1-1.177-1.272,5.465,5.465,0,0,1-.454-3.36,12.688,12.688,0,0,1,1.195-4s0-.02.018-.02a13.951,13.951,0,0,0,.892-1.555A12.507,12.507,0,0,1,1525.852,760.9Z"/><path class="f" d="M1072.688,557.887c2.958,3.568,5.33,4.517,15.686,10.571.189.114,350.926,202.789,352.748,203.681a48.425,48.425,0,0,0,20.787,4.364l-.037,4.328a72.091,72.091,0,0,1-14.567-1.556,45.87,45.87,0,0,1-13.543-5.182L1073.655,566.085a26.689,26.689,0,0,1-7.967-6.6,17.076,17.076,0,0,1-3.66-9.66,11.222,11.222,0,0,1,.285-3.189c1.27-5.447,6.505-10.267,11.342-13.056L1245.011,434.6c8.156-4.706,18.21-6.757,28.129-6.737l-.037,4.327a53.545,53.545,0,0,0-11.077,1.139c-7.417,1.575-11,3.834-16.521,7.136-5.6,3.359,12.727-7.458-64.321,37.046-12.538,7.25-25.018,14.633-37.556,21.864s-25.132,14.328-37.652,21.655c-5.216,3.054-10.413,6.148-15.648,9.109-6.127,3.455-11.837,6.472-14.757,8.806C1069.046,544.184,1067.339,551.454,1072.688,557.887Z"/><path class="f" d="M1159.091,629.18l2.872-1.659-31.591-18.249-2.872,1.659Z"/><path class="g" d="M1161.963,631.512v-3.991l-2.872,1.659v3.991Z"/><path class="g" d="M1159.091,633.171V629.18L1127.5,610.931v3.991Z"/><path class="e" d="M1507.369,777.738h0a2.42,2.42,0,0,0,1.111-1.877h0c0-.679-.5-.946-1.111-.593h0a2.42,2.42,0,0,0-1.111,1.877h0C1506.258,777.824,1506.758,778.091,1507.369,777.738Z"/><path class="e" d="M1652.184,700.077h0a3.754,3.754,0,0,0,1.723-2.911v-8.211c0-1.054-.775-1.468-1.723-.92h0a3.752,3.752,0,0,0-1.723,2.911v8.211C1650.461,700.21,1651.236,700.624,1652.184,700.077Z"/><path class="e" d="M1645.291,704.059h0a3.754,3.754,0,0,0,1.723-2.911v-8.211c0-1.054-.775-1.468-1.723-.92h0a3.752,3.752,0,0,0-1.723,2.911v8.211C1643.568,704.192,1644.343,704.606,1645.291,704.059Z"/><path class="e" d="M1638.4,708.041h0a3.752,3.752,0,0,0,1.723-2.911v-8.211c0-1.054-.775-1.468-1.723-.92h0a3.752,3.752,0,0,0-1.723,2.911v8.211C1636.675,708.174,1637.45,708.589,1638.4,708.041Z"/><path class="e" d="M1631.505,712.023h0a3.757,3.757,0,0,0,1.723-2.911V700.9c0-1.054-.776-1.468-1.723-.92h0a3.753,3.753,0,0,0-1.724,2.911V711.1C1629.781,712.156,1630.557,712.571,1631.505,712.023Z"/><path class="e" d="M1624.612,716.005h0a3.757,3.757,0,0,0,1.723-2.911v-8.211c0-1.054-.776-1.468-1.723-.92h0a3.753,3.753,0,0,0-1.724,2.911v8.211C1622.888,716.139,1623.664,716.553,1624.612,716.005Z"/><path class="e" d="M1617.718,719.987h0a3.755,3.755,0,0,0,1.724-2.911v-8.211c0-1.054-.776-1.468-1.724-.92h0a3.755,3.755,0,0,0-1.723,2.911v8.211C1615.995,720.12,1616.771,720.535,1617.718,719.987Z"/><path class="f" d="M1661.378,675.12,1490.02,774.093c-8.156,4.707-18.228,6.775-28.148,6.738l.037-4.328a49.788,49.788,0,0,0,18.874-3.529,65.667,65.667,0,0,0,8.745-4.744c5.6-3.36-12.728,7.458,64.321-37.048,12.537-7.25,25.018-14.633,37.556-21.863,12.556-7.231,25.15-14.329,37.651-21.655,5.216-3.055,10.413-6.15,15.667-9.11,10.376-5.845,15.27-8.122,18.475-12.734,4.192-6.036,3.225-14.007-7.132-20.137-.4-.247-360.524-208.33-362.155-209.127a48.672,48.672,0,0,0-20.808-4.365l.037-4.327a72.306,72.306,0,0,1,14.588,1.556,46.23,46.23,0,0,1,13.562,5.181l360.088,208.008a26.817,26.817,0,0,1,7.985,6.6,16.958,16.958,0,0,1,3.661,10.078,12.433,12.433,0,0,1-.3,2.77C1671.468,667.509,1666.213,672.329,1661.378,675.12Z"/><path class="f" d="M1300.54,440.374c-4.184-2.416-6.516-3.764-6.641-3.818a48.714,48.714,0,0,0-20.808-4.366,53.871,53.871,0,0,0-11.072,1.15c-7.418,1.572-11.01,3.827-16.516,7.133-5.194,3.127,10.295-6.019-49.593,28.523l-14.742,8.517c-12.535,7.259-25.022,14.634-37.541,21.866q-5.156,2.979-10.326,5.911c-9.113,5.229-18.257,10.421-27.339,15.74-5.21,3.063-10.4,6.154-15.645,9.109-6.112,3.459-11.835,6.477-14.758,8.813-6.516,5.238-8.242,12.5-2.893,18.938,2.971,3.566,5.334,4.518,15.692,10.574l152.309,87.985c94.987,54.873,199.446,115.2,200.456,115.692a48.26,48.26,0,0,0,20.777,4.366,49.731,49.731,0,0,0,18.864-3.531,62.782,62.782,0,0,0,8.739-4.743c5.6-3.36-12.721,7.456,64.336-37.04,12.535-7.258,25.022-14.634,37.557-21.875,12.55-7.232,25.146-14.329,37.665-21.65,5.194-3.055,10.4-6.154,15.644-9.11,10.389-5.839,15.272-8.121,18.475-12.739,4.044-5.8,3.3-13.385-5.971-19.4-.374-.252-.762-.494-1.167-.728C1655.685,645.462,1349.821,468.718,1300.54,440.374Z"/><path class="h" d="M1657.209,646.415c9.268,6.019,10.015,13.6,5.971,19.4-3.2,4.618-8.086,6.9-18.475,12.739-5.24,2.956-10.45,6.055-15.644,9.11-12.519,7.321-25.115,14.418-37.665,21.65-12.535,7.241-25.022,14.617-37.557,21.875-77.057,44.5-58.737,33.68-64.336,37.04a62.782,62.782,0,0,1-8.739,4.743c-12.054,5.04-28.52,4.614-39.641-.835-1.665-.814-306.651-177.038-352.765-203.677-10.358-6.056-12.721-7.008-15.692-10.574-5.349-6.433-3.623-13.7,2.893-18.938,3.553-2.838,164.933-95.462,169.944-98.479,5.506-3.306,9.1-5.561,16.516-7.133,11.35-2.427,23.53-.845,31.88,3.216C1294.128,436.656,1284.357,431.026,1657.209,646.415Z"/><path class="i" d="M1188.515,482.536a6.1,6.1,0,0,1,5.615,0l2.085,1.2-38.144,22.034a6.2,6.2,0,0,1-5.633,0l-2.067-1.2Z"/><path class="j" d="M1194.13,478.645l2.635,1.518c1.576.911,1.537,2.353,0,3.245l-.55.324-2.085-1.2a6.1,6.1,0,0,0-5.615,0l-38.144,22.034-.55-.323a2.04,2.04,0,0,1-1.177-1.594v-.038a1.962,1.962,0,0,1,1.177-1.614l38.694-22.356A6.17,6.17,0,0,1,1194.13,478.645Z"/><g class="k"><path class="l" d="M1227.529,524.074l-78.1,45.115a10.143,10.143,0,0,1-9.186,0h0c-2.537-1.465-2.537-3.841,0-5.307l78.1-45.115a10.151,10.151,0,0,1,9.187,0h0C1230.066,520.233,1230.066,522.609,1227.529,524.074Z"/><path class="l" d="M1222.3,548.312,1167.8,579.8a10.149,10.149,0,0,1-9.186,0h0c-2.537-1.466-2.537-3.842,0-5.307l54.5-31.485a10.145,10.145,0,0,1,9.187,0h0C1224.835,544.471,1224.835,546.847,1222.3,548.312Z"/><path class="l" d="M1240.663,558.921l-54.5,31.485a10.152,10.152,0,0,1-9.187,0h0c-2.536-1.466-2.536-3.841,0-5.307l54.5-31.485a10.151,10.151,0,0,1,9.187,0h0C1243.2,555.079,1243.2,557.455,1240.663,558.921Z"/></g><g class="k"><path class="l" d="M1347.546,599.833l-78.1,45.115a10.143,10.143,0,0,1-9.186,0h0c-2.537-1.465-2.537-3.841,0-5.306l78.1-45.116a10.149,10.149,0,0,1,9.186,0h0C1350.083,595.992,1350.083,598.368,1347.546,599.833Z"/><path class="l" d="M1342.316,624.071l-54.5,31.486a10.149,10.149,0,0,1-9.186,0h0c-2.537-1.466-2.537-3.842,0-5.307l54.5-31.485a10.143,10.143,0,0,1,9.186,0h0C1344.853,620.23,1344.853,622.606,1342.316,624.071Z"/><path class="l" d="M1360.68,634.68l-54.5,31.485a10.145,10.145,0,0,1-9.187,0h0c-2.536-1.465-2.536-3.841,0-5.307l54.5-31.485a10.152,10.152,0,0,1,9.187,0h0C1363.216,630.839,1363.216,633.214,1360.68,634.68Z"/></g><g class="k"><path class="l" d="M1507.447,578.125l-78.1,45.115a10.151,10.151,0,0,1-9.187,0h0c-2.536-1.465-2.536-3.841,0-5.306l78.1-45.115a10.145,10.145,0,0,1,9.187,0h0C1509.983,574.283,1509.983,576.659,1507.447,578.125Z"/><path class="m" d="M1502.216,602.363l-54.5,31.485a10.149,10.149,0,0,1-9.186,0h0c-2.537-1.465-2.537-3.841,0-5.307l54.5-31.485a10.149,10.149,0,0,1,9.186,0h0C1504.753,598.521,1504.753,600.9,1502.216,602.363Z"/><path class="l" d="M1520.58,612.971l-54.5,31.485a10.143,10.143,0,0,1-9.186,0h0c-2.537-1.465-2.537-3.841,0-5.306l54.5-31.486a10.149,10.149,0,0,1,9.186,0h0C1523.117,609.13,1523.117,611.506,1520.58,612.971Z"/></g><g class="k"><path class="l" d="M1490.692,678.449l-78.1,45.115a10.145,10.145,0,0,1-9.187,0h0c-2.536-1.465-2.536-3.841,0-5.306l78.1-45.115a10.145,10.145,0,0,1,9.187,0h0C1493.228,674.608,1493.228,676.984,1490.692,678.449Z"/><path class="l" d="M1485.462,702.687l-54.5,31.486a10.149,10.149,0,0,1-9.186,0h0c-2.537-1.466-2.537-3.842,0-5.307l54.5-31.485a10.143,10.143,0,0,1,9.186,0h0C1488,698.846,1488,701.222,1485.462,702.687Z"/><path class="l" d="M1503.825,713.3l-54.5,31.485a10.143,10.143,0,0,1-9.186,0h0c-2.537-1.465-2.537-3.841,0-5.307l54.5-31.485a10.149,10.149,0,0,1,9.186,0h0C1506.362,709.455,1506.362,711.83,1503.825,713.3Z"/></g><g class="k"><path class="n" d="M1379.882,501.812l-78.1,45.115a10.151,10.151,0,0,1-9.187,0h0c-2.536-1.465-2.536-3.841,0-5.306l78.1-45.115a10.145,10.145,0,0,1,9.187,0h0C1382.419,497.97,1382.419,500.346,1379.882,501.812Z"/><path class="n" d="M1374.652,526.05l-54.5,31.485a10.151,10.151,0,0,1-9.187,0h0c-2.536-1.465-2.536-3.841,0-5.307l54.5-31.485a10.152,10.152,0,0,1,9.187,0h0C1377.188,522.208,1377.188,524.584,1374.652,526.05Z"/><path class="n" d="M1393.016,536.658l-54.5,31.486a10.151,10.151,0,0,1-9.187,0h0c-2.537-1.466-2.537-3.842,0-5.307l54.5-31.486a10.151,10.151,0,0,1,9.187,0h0C1395.552,532.817,1395.552,535.193,1393.016,536.658Z"/></g><path class="o" d="M1147.212,321.7v43.345c0,15.176-10.644,33.631-23.782,41.22-1.855,1.072-3.7,2.134-5.554,3.207l-13.2,31.8-13.2-16.537q-2.781,1.593-5.554,3.206c-.535.31-1.071.6-1.6.856-5.935,2.98-11.273,3.093-15.23.8l-.309-.185c-4.122-2.557-6.657-7.816-6.657-15.218V370.857c0-15.187,10.655-33.642,23.793-41.231q18.75-10.826,37.509-21.662c6.44-3.721,12.282-4.144,16.559-1.814.082.041.175.093.257.144C1144.554,308.779,1147.212,314.109,1147.212,321.7Z"/><path class="p" d="M1049.8,418.45c-4.307-2.485-6.965-7.826-6.965-15.4V359.7c0-15.177,10.644-33.633,23.782-41.221q18.75-10.825,37.508-21.672c6.575-3.794,12.52-4.145,16.817-1.66q9.537,5.49,19.043,11c-4.277-2.33-10.119-1.907-16.559,1.814q-18.75,10.827-37.509,21.662c-13.138,7.589-23.793,26.044-23.793,41.231v43.335c0,7.4,2.535,12.661,6.657,15.218Q1059.294,423.935,1049.8,418.45Z"/><path class="p" d="M1091.475,424.729l13.2,16.537-19.3-11.145-1.051-1.33c.526-.258,1.062-.546,1.6-.856Q1088.688,426.327,1091.475,424.729Z"/><path class="q" d="M1118.207,350.428c-5.028-4.5-14.859-.922-21.957,8s-8.775,19.808-3.747,24.312c4.353,3.9,12.3,1.735,18.965-4.7l9.1,8.155c1.042.933,3.129.126,4.663-1.8s1.932-4.247.89-5.18l-9.1-8.155C1121.885,363.006,1122.56,354.326,1118.207,350.428Zm-5.942,22.346c-5.386,6.772-12.847,9.491-16.664,6.073s-2.543-11.679,2.844-18.451,12.848-9.492,16.664-6.073S1117.652,366,1112.265,372.774Z"/><ellipse class="r" cx="14.388" cy="8.312" rx="14.388" ry="8.312" transform="translate(1033.948 434.289)"/><path class="a" d="M1719.786,414.225c5.619,3.246,5.619,8.509,0,11.755s-14.729,3.246-20.349,0-5.619-8.509,0-11.755S1714.167,410.979,1719.786,414.225Z"/><path class="s" d="M1063.119,485.757l2.077,3.011a.677.677,0,0,0,.88.131l4.644-2.007c.959-.415,1.342.543.648,1.621l-3.36,5.219a1.8,1.8,0,0,0-.336,1.229l.793,4.17a2.227,2.227,0,0,1-1.7,2.213l-4.153.215a1.73,1.73,0,0,0-1.088.628l-4.154,4.585c-.858.947-1.86.8-1.7-.253l.794-5.086c.065-.417-.061-.732-.337-.842l-3.36-1.336c-.694-.276-.311-1.676.648-2.37l4.644-3.358a2.636,2.636,0,0,0,.88-1.148l2.077-5.41C1061.451,485.851,1062.69,485.135,1063.119,485.757Z"/><path class="s" d="M1086.675,472.149l2.077,3.011a.678.678,0,0,0,.881.131l4.644-2.007c.959-.415,1.342.543.648,1.621l-3.361,5.219a1.812,1.812,0,0,0-.336,1.229l.793,4.17a2.227,2.227,0,0,1-1.7,2.213l-4.154.215a1.732,1.732,0,0,0-1.088.628l-4.154,4.585c-.857.946-1.86.8-1.7-.253l.793-5.086c.065-.418-.061-.732-.336-.842l-3.361-1.336c-.694-.276-.311-1.676.648-2.37l4.644-3.358a2.646,2.646,0,0,0,.881-1.148l2.077-5.41C1085.008,472.243,1086.247,471.527,1086.675,472.149Z"/><path class="s" d="M1110.232,458.541l2.077,3.011a.677.677,0,0,0,.88.131l4.644-2.007c.959-.415,1.342.543.648,1.621l-3.36,5.219a1.809,1.809,0,0,0-.337,1.229l.793,4.17a2.226,2.226,0,0,1-1.7,2.213l-4.154.215a1.734,1.734,0,0,0-1.088.628l-4.153,4.585c-.858.947-1.861.8-1.7-.253l.793-5.086c.066-.418-.06-.732-.336-.842l-3.36-1.336c-.694-.276-.311-1.676.648-2.37l4.644-3.358a2.632,2.632,0,0,0,.88-1.148l2.077-5.411C1108.564,458.635,1109.8,457.92,1110.232,458.541Z"/><path class="t" d="M1133.788,444.933l2.077,3.011a.678.678,0,0,0,.88.132l4.644-2.008c.959-.415,1.342.543.648,1.621l-3.36,5.219a1.809,1.809,0,0,0-.336,1.229l.793,4.17a2.227,2.227,0,0,1-1.7,2.213l-4.153.215a1.734,1.734,0,0,0-1.088.628l-4.154,4.585c-.858.947-1.86.8-1.7-.253l.794-5.086c.065-.418-.061-.732-.337-.842l-3.36-1.336c-.694-.276-.311-1.676.648-2.37l4.644-3.358a2.632,2.632,0,0,0,.88-1.148l2.077-5.41C1132.12,445.027,1133.359,444.312,1133.788,444.933Z"/><path class="t" d="M1157.344,431.325l2.077,3.011a.678.678,0,0,0,.881.131l4.644-2.007c.959-.415,1.341.543.648,1.621l-3.361,5.219a1.815,1.815,0,0,0-.336,1.23l.793,4.169a2.227,2.227,0,0,1-1.7,2.213l-4.154.215a1.741,1.741,0,0,0-1.088.628l-4.154,4.585c-.858.947-1.86.8-1.7-.253l.793-5.087c.065-.417-.061-.731-.336-.841L1147,444.823c-.694-.276-.311-1.676.648-2.37l4.644-3.358a2.641,2.641,0,0,0,.881-1.148l2.076-5.41C1155.676,431.419,1156.915,430.7,1157.344,431.325Z"/><path class="s" d="M1409.455,248.093v35.843c0,12.551,8.8,27.812,19.667,34.087,1.534.887,3.059,1.765,4.593,2.652l10.915,26.3,10.916-13.676q2.3,1.317,4.593,2.651c.443.256.886.495,1.321.708,4.908,2.464,9.322,2.558,12.594.665l.256-.154c3.408-2.114,5.5-6.462,5.5-12.584V288.745c0-12.559-8.811-27.821-19.675-34.1q-15.5-8.952-31.017-17.913c-5.326-3.078-10.158-3.428-13.694-1.5-.068.034-.145.077-.213.12C1411.653,237.409,1409.455,241.817,1409.455,248.093Z"/><path class="u" d="M1490.006,328.1c3.562-2.055,5.76-6.471,5.76-12.738V279.52c0-12.551-8.8-27.812-19.667-34.088q-15.5-8.952-31.017-17.921c-5.437-3.138-10.353-3.428-13.907-1.373q-7.886,4.54-15.747,9.1c3.536-1.927,8.368-1.577,13.694,1.5q15.5,8.952,31.017,17.913c10.864,6.275,19.675,21.537,19.675,34.1V324.58c0,6.122-2.1,10.47-5.5,12.584Q1482.158,332.637,1490.006,328.1Z"/><path class="u" d="M1455.546,333.294,1444.63,346.97l15.96-9.217.87-1.1c-.435-.213-.878-.452-1.321-.708Q1457.85,334.616,1455.546,333.294Z"/><path class="v" d="M1442.041,272.247a1.057,1.057,0,0,0-.915-.15l-.915.387-4.987-2.88c-1.921-1.11-3.569-.631-3.842,1.119l-.451,2.877,2.615,1.511.4-2.543c.085-.583.642-.742,1.279-.374l5.522,3.191a1.056,1.056,0,0,0,.916.149l.915-.387,4.106,2.372.916,1.445a2.771,2.771,0,0,0,.915.908l5.523,3.19a2.805,2.805,0,0,1,1.284,1.855l.393,3,2.615,1.511-.45-3.4a8.359,8.359,0,0,0-3.842-5.559l-4.987-2.88-.915-1.445a2.765,2.765,0,0,0-.916-.908Zm-12.946,2.884c-.713-.412-1.294-.167-1.294.547v2.591a2.693,2.693,0,0,0,1.294,2.043l.218.125,2.013,13.246a5.572,5.572,0,0,0,2.553,3.64l21.5,12.422c1.268.733,2.345.439,2.558-.688l2.013-10.92.212.123c.713.412,1.295.166,1.295-.547v-2.591a2.693,2.693,0,0,0-1.295-2.043ZM1451.1,294.32a2.694,2.694,0,0,1,1.295,2.044v6.476c0,.714-.582.96-1.295.548a2.693,2.693,0,0,1-1.294-2.044v-6.476c0-.714.581-.96,1.294-.548Zm-6.473-3.739a2.7,2.7,0,0,1,1.3,2.043V299.1c0,.714-.582.96-1.3.547a2.691,2.691,0,0,1-1.294-2.043v-6.476c0-.714.581-.96,1.294-.548Zm-6.473-3.739a2.69,2.69,0,0,1,1.3,2.043v6.477c0,.714-.581.959-1.3.547a2.691,2.691,0,0,1-1.294-2.043v-6.477c0-.713.581-.959,1.294-.547Z"/><path class="w" d="M1519.258,646.361l-82.492,47.626c-8.15,4.706-21.365,4.706-29.515,0l-151.5-87.465c-8.15-4.706-8.15-12.336,0-17.041l82.492-47.627c8.151-4.706,21.365-4.706,29.516,0l151.5,87.466C1527.409,634.026,1527.409,641.655,1519.258,646.361Z"/><path class="x" d="M1543.8,691.812c-1.941-3.456-7.32-5.821-11.3-6.6a20.816,20.816,0,0,0-14.081,2.044q-4.3,2.49-4.3,5.687v2.423c0,2.915,2.87,5.121,5.393,6.578a22.546,22.546,0,0,0,13.905,2.549c3.876-.535,8.8-2.478,10.544-5.934a4.368,4.368,0,0,0,.494-1.984v-2.428A4.767,4.767,0,0,0,1543.8,691.812Zm-11.7-9.593,21.011,12.137,2.581-1.489v-2.428l-5.25-3.033,12.1,1.5,3.185-1.836v-2.428l-15.925-1.824c.132-5.063.109-3.569.109-6.633l-3.338,1.929c0,3.055-.011,1.482.055,7.088l-11.956-6.9-2.575,1.489Zm43.614,26.314c-15.188,10.029-38.587,11.732-56.432,7.033-8.61-2.27-18.29-6.7-23.828-13.7-6.086-7.712-5.688-16.2-.032-23.314,13.919-17.6,54.116-21.863,78.046-8.121.011.005.016.011.027.016a33.461,33.461,0,0,1,9.726,8.05C1591.706,689.222,1587.371,700.84,1575.714,708.533Z"/><path class="y" d="M1480.4,687.334a33.463,33.463,0,0,0,9.753,8.061c16.441,9.441,40.908,10.495,59.1,4.143,7-2.444,14.338-6.451,18.941-12.259a18.578,18.578,0,0,0,4.387-11.632h.011v12.566h0c0,10.179-9.11,17.713-18.4,21.946-17.537,7.991-42.346,7.991-59.9-.038-9.262-4.249-18.315-11.766-18.315-21.908V675.707h.011A18.827,18.827,0,0,0,1480.4,687.334Z"/><path class="z" d="M1550.674,670.113v2.429l-3.185,1.835v-2.423Z"/><path class="z" d="M1547.489,671.954v2.423l-12.1-1.5-.714-.412v-2.1Z"/><path class="z" d="M1540.636,675.91v2.429l-2.581,1.489V677.4Z"/><path class="z" d="M1538.055,677.4v2.429l-21.011-12.138v-2.429Z"/><path class="aa" d="M1540.636,675.91l-2.581,1.489-21.011-12.137,2.576-1.489,11.955,6.9c.055.027.039.565-.055-7.088l3.339-1.929-.171,6.627c1.29.117-4.485-.515,15.986,1.829l-3.185,1.841-12.817-1.593-.071,2.06C1534.709,672.488,1535.121,672.724,1540.636,675.91Z"/><path class="ab" d="M1528.741,677.284c-1.941-3.456-7.32-5.821-11.3-6.6a20.811,20.811,0,0,0-14.081,2.044q-4.3,2.488-4.3,5.687v2.423c0,2.915,2.869,5.121,5.392,6.577a22.539,22.539,0,0,0,13.905,2.55c3.877-.535,8.8-2.478,10.544-5.934a4.371,4.371,0,0,0,.494-1.984v-2.429A4.765,4.765,0,0,0,1528.741,677.284Zm-11.7-9.594,21.011,12.138,2.581-1.489V675.91l-5.25-3.033,12.1,1.5,3.185-1.835v-2.429l-15.925-1.824c.132-5.062.11-3.568.11-6.632l-3.339,1.929c0,3.055-.011,1.482.055,7.088l-11.955-6.9-2.576,1.489ZM1560.658,694c-15.188,10.03-38.587,11.732-56.431,7.034-8.611-2.27-18.291-6.7-23.828-13.7-6.087-7.712-5.689-16.2-.033-23.314,13.919-17.6,54.116-21.863,78.046-8.121.011.005.017.011.028.016a33.469,33.469,0,0,1,9.725,8.05C1576.65,674.693,1572.315,686.312,1560.658,694Z"/><path class="aa" d="M1525.671,680.07c.1-2.287-2.264-4.045-4.245-5.187-5.684-3.292-11.778-3.01-15.651-.78-1.971,1.137-2.987,2.511-3.053,4.11-.089,2.142,2.785,4.069,4.64,5.143,5.328,3.069,11.432,2.831,15.344.577C1524.226,683.059,1525.594,681.823,1525.671,680.07Zm3.729-.451c0,2.416-2.187,4.459-4.3,5.682-6.056,3.491-14.711,3.124-20.643-.313-2.529-1.461-5.392-3.663-5.392-6.572q0-3.2,4.3-5.687c5.816-3.363,14.26-3.354,20.945.506C1526.682,674.6,1529.4,676.872,1529.4,679.619Z"/><path class="ab" d="M1521.426,677.312q3.27,1.887,4.02,3.84c-1.4,3.632-10.111,6.8-18.084,2.2q-3.575-2.069-4.387-3.94C1504.424,675.656,1513.042,672.456,1521.426,677.312Z"/><path class="z" d="M1525.666,679.674a3.412,3.412,0,0,1-.22,1.478q-.75-1.953-4.02-3.84c-8.36-4.842-17-1.672-18.451,2.1a2.588,2.588,0,0,1-.253-1.2c.066-1.6,1.082-2.973,3.053-4.11,3.878-2.233,9.969-2.511,15.651.78Q1525.488,677.223,1525.666,679.674Z"/><path class="z" d="M1504.457,684.988c5.886,3.41,14.544,3.829,20.643.313,2.112-1.222,4.3-3.266,4.3-5.682v2.429a4.371,4.371,0,0,1-.494,1.984c-1.745,3.452-6.659,5.4-10.544,5.934a22.546,22.546,0,0,1-13.905-2.55c-2.523-1.456-5.392-3.662-5.392-6.577v-2.423C1499.065,681.324,1501.927,683.527,1504.457,684.988Z"/><path class="f" d="M1362.858,506.979l47.592-28.8-5.457-2.425-48.2,27.888Z"/><path class="f" d="M1336.182,490.61l47.592-28.8-5.456-2.425-48.2,27.889Z"/><path class="u" d="M1293.767,438.676l3.779,28.37,24.086-12.206Z"/><path class="u" d="M1283.052,341.754v79.524c2.123,1.229,47.977,27.5,47.977,27.5l17.885-9.7,1.266-79.037V303Z"/><path class="f" d="M1279.928,233.873v.006c7.118,5.171,13.436,14.74,15.722,24.207q4.582,18.726,9.152,37.447l7.578-4.372q-4.28-17.535-8.567-35.072c-2.7-11.136-10.021-22.519-18.928-28.994a.006.006,0,0,0-.006-.006q-7.191-5.253-14.381-10.507c-.006,0-.006-.006-.012-.006-12.573-9.329-33.75-11-46.726-3.357-.006,0-.006.006-.012.006q-16.139,9.325-32.276,18.638T1159.2,250.5c-.006,0-.006.006-.013.006-6.62,3.742-11.287,10.179-10.9,17.713.353,6.884,4.794,12.868,10.312,16.843a.1.1,0,0,1,.025.025h.006q7.2,5.253,14.387,10.513c7.036,5.115,13.41,14.639,15.722,24.207v.006q5.811,23.744,11.609,47.5c-.007-.057.27-.063.321-.069a16.93,16.93,0,0,1,3.54.529c1.373.328,2.431.68,3.118.454,1.02-.334,1.392-1.928,1.134-3.106-.2-.819-.4-1.638-.6-2.457q-5.48-22.43-10.96-44.848c-2.7-11.168-10.047-22.544-18.928-29h-.006q-7.2-5.253-14.387-10.513l-.006-.006c-4.151-2.98-7.786-7.748-6.728-12.7.731-3.4,3.515-6.1,6.526-7.811h.013q16.137-9.326,32.282-18.645t32.282-18.638l.012-.006c9.833-5.8,27.344-4.725,37.561,2.866l.006.006Q1272.724,228.613,1279.928,233.873Z"/><path class="f" d="M1229.549,361.357q-2.5,1.445-5,2.891,1.446,12.462,2.9,24.925v.006q2.853,1.644,5.719,3.3Q1231.358,376.918,1229.549,361.357Z"/><path class="f" d="M1239.457,443.986q-2.937-1.7-5.889-3.395a27.7,27.7,0,0,0,7.162,12.957Q1240.1,448.766,1239.457,443.986Z"/><path class="f" d="M1253.9,385.034q-8.409,4.848-16.812,9.707,4.846,2.807,9.707,5.606l7.1-4.1Z"/><path class="f" d="M1237.215,427.136q-1.314-9.873-2.633-19.741c-1.562.907-3.131,1.808-4.693,2.709q1.077,9.193,2.142,18.38,2.9,1.682,5.807,3.358Q1237.527,429.489,1237.215,427.136Z"/><path class="f" d="M1248.163,469.213l.006.006a4.988,4.988,0,0,0,1.209,2.873c1.077,1.039,2.746.774,4.132.208,7.433-4.183,5.436-3.049,9.178-5.21q-8.022-4.629-16.037-9.259Q1247.407,463.519,1248.163,469.213Zm41.257,7.193v.731l4.466,2.576q.389,2.92.775,5.839-13.332-7.7-26.669-15.4-3.015,1.74-6.029,3.484a42.316,42.316,0,0,1-8.472,4.208,9.278,9.278,0,0,1-.963.17c-5.1.661-8.932-2.709-9.619-8.1v-.006q-1.086-8.183-2.179-16.358-.633-4.782-1.273-9.562c1.934,1.115,3.868,2.236,5.795,3.345v.006q.246,1.8.479,3.609a13.884,13.884,0,0,0,1.877,1.323h.006q10.187,5.886,20.378,11.766c1.032-.6,2.059-1.19,3.092-1.789q2.655,1.531,5.3,3.062c-1.027.592-2.06,1.19-3.093,1.782Q1281.349,471.749,1289.42,476.406Z"/><path class="f" d="M1239.571,438.033c1.027.34,2.513-.378,3.363-1.007.435-.322.863-.719.788-1.128-.032-.239-.063-.472-.1-.712q-1.833-13.785-3.666-27.576-2.9-1.672-5.8-3.345c.139,1.046.278,2.085.416,3.13q1.314,9.875,2.633,19.741.312,2.354.623,4.706c.215,1.581.423,3.155.63,4.736.007.032.007.063.013.089A1.649,1.649,0,0,0,1239.571,438.033Z"/><path class="s" d="M1253.9,415.66v25.454q14.578,8.418,29.151,16.83V432.49Z"/><path class="s" d="M1253.9,396.246v8.2q14.57,8.42,29.151,16.831V341.754l-29.151-16.83v71.322Z"/><path class="s" d="M1253.9,324.924l29.151,16.831L1350.18,303l-29.151-16.831-8.648,5-7.578,4.371Z"/><path class="s" d="M1257.239,324.924l63.79-36.83,25.813,14.9-63.789,36.83Z"/><path class="ac" d="M1262.713,606.315l.006.007q3.194-1.844,6.381-3.685a6.582,6.582,0,0,0,2.343-2.432c1.619-2.8,1.462-6.8.744-9.965q-3.554-2.049-7.1-4.1l.107,6.33v.007C1267.2,599.223,1265.894,604.3,1262.713,606.315Z"/><path class="ad" d="M1241.486,584.225c0,7.508,5.058,16.648,11.552,20.868,3.867,2.514,7.294,2.728,9.675,1.222,3.181-2.015,4.491-7.092,2.482-13.838l.088,5.221-.976.586-22-12.7-.094-5.726A12.4,12.4,0,0,0,1241.486,584.225Z"/><path class="u" d="M1266.587,579.079c.875-.951,2.3-2.016,3.584-1.959a2.344,2.344,0,0,1,1.064.3l.013-.025-22-12.7a2.808,2.808,0,0,0-2.4.032c-.164.063-.328.138-.479.214a9.246,9.246,0,0,0-4.283,7.414l.006.51.12,7,.094,5.726,22,12.7-.221-13.234A9.241,9.241,0,0,1,1266.587,579.079Z"/><path class="ae" d="M1270.171,577.12c-1.279-.057-2.709,1.008-3.584,1.959a9.241,9.241,0,0,0-2.5,5.971l.221,13.234.976-.586-.088-5.221v-.007l-.107-6.33-.038-2.438a5.484,5.484,0,0,1,.479-1.757,6.708,6.708,0,0,1,3.363-3.553,2.016,2.016,0,0,1,1.739.051c.006.006.006.006.012.006l1.8,1.039a3.024,3.024,0,0,0-.655-1.644,1.9,1.9,0,0,0-.548-.422A2.344,2.344,0,0,0,1270.171,577.12Z"/><path class="u" d="M1283.052,432.49v25.454q3.185,1.833,6.368,3.672V446.2q-.727-5.433-1.448-10.866Z"/><path class="u" d="M1289.42,446.2v15.419c.744.429,1.481.857,2.224,1.285h.006Q1290.535,454.549,1289.42,446.2Z"/><path class="u" d="M1327.107,530.747v5.877l22,12.7V535.9c-2.047-1.266-3.275-3.673-3.25-6.816v-.012q.009-3.383.019-6.765-5.811-3.355-11.609-6.7a2.787,2.787,0,0,0-2.4.031,3.721,3.721,0,0,0-.46.2,9.27,9.27,0,0,0-4.3,7.332v7.577Z"/><path class="f" d="M1303.19,503.158c1.354,1.31,3.685.567,5.3-.378l.006-.006c2.526-1.455,5.618-3.244,8-4.617l-16.043-9.26q.765,5.688,1.518,11.382v.007A4.933,4.933,0,0,0,1303.19,503.158Zm24.559-4.623q9.081,5.242,18.154,10.481h.006c-.006,2.041-.012,4.075-.019,6.116q-12.047-6.963-24.093-13.914-5.319,3.08-10.645,6.147c-6.992,4.1-13.511.9-14.431-6.387v-.006q-1.03-7.71-2.06-15.42-.387-2.919-.775-5.839l-.623-4.661q2.9,1.672,5.8,3.345l.623,4.661,27.438,15.842Z"/><path class="ac" d="M1353.953,553.637a6.535,6.535,0,0,0,2.249-2.255c1.757-2.872,1.562-7.1.787-10.361q-3.449-1.993-6.9-3.987v6.55c2,6.847.586,11.943-2.714,13.852l.006.006q3.288-1.9,6.582-3.8Z"/><path class="ae" d="M1350.085,536.391a7.242,7.242,0,0,1-.976-.491v13.429l.976-.567V536.391Z"/><path class="ad" d="M1350.085,548.762l-.976.567-22-12.7v-5.877a12.291,12.291,0,0,0-.762,4.485c0,7.5,5.039,16.623,11.52,20.856,3.767,2.463,7.131,2.733,9.506,1.348,3.3-1.909,4.711-7,2.714-13.852Z"/><path class="u" d="M1356.239,528.291q-2.532-1.465-5.07-2.929c0,1.24-.007,2.475-.007,3.716v.157a5.271,5.271,0,0,0,.133,1.122,6.506,6.506,0,0,1,3.074-2.211A2.606,2.606,0,0,1,1356.239,528.291Z"/><path class="f" d="M1355.742,529.412a1.914,1.914,0,0,0-1.556-.189,5.229,5.229,0,0,0-2.57,1.877.885.885,0,0,0,.139.17,1.119,1.119,0,0,0,.831.315,7.421,7.421,0,0,0,3.767-1.191h.006c.183-.107.365-.214.548-.314-.391-.227-.775-.448-1.165-.675Z"/><path class="f" d="M1355.716,637.955a9.267,9.267,0,0,1,4.278-7.414,4.622,4.622,0,0,1,.485-.214v-.007l-.007-.006q-44.019-25.416-88.034-50.826l-1.8-1.039c-.006,0-.006,0-.012-.006a2.016,2.016,0,0,0-1.739-.051,6.708,6.708,0,0,0-3.363,3.553,5.484,5.484,0,0,0-.479,1.757l.038,2.438q3.552,2.051,7.1,4.1,41.761,24.113,83.536,48.231Z"/><path class="f" d="M1345.859,529.084v-.012q.009-3.383.019-6.765c0-2.394.006-4.781.012-7.175.007-2.041.013-4.075.019-6.116,0-1.191.006-2.375.006-3.565q2.646,1.53,5.292,3.055c0,1.19-.007,2.374-.007,3.565q9.222,5.328,18.443,10.651c1.033-.6,2.067-1.19,3.093-1.789a23.091,23.091,0,0,0,6.539,2.35c-1.449.831-2.885,1.663-4.334,2.5q11.848,6.831,23.69,13.675h.006c1.619.951,3.956,1.688,5.3.377a4.987,4.987,0,0,0,1.216-2.859v-.007q.623-4.648,1.253-9.3.841-6.282,1.688-12.56v-.006l5.8-3.345q-1.039,7.7-2.073,15.4-.708,5.253-1.417,10.507v.006c-.945,7.357-7.521,10.418-14.431,6.374a.006.006,0,0,1-.006-.006q-13.172-7.6-26.33-15.2-3.721,2.145-7.439,4.29c-1.064.617-2.129,1.228-3.193,1.845h-.006c-3.452,2.016-6.583,2.343-8.92,1.411a7.242,7.242,0,0,1-.976-.491C1347.062,534.634,1345.834,532.227,1345.859,529.084Zm11.489.737q3.5-2.012,6.992-4.037l-13.152-7.6c-.007,2.394-.013,4.781-.019,7.175,0,1.24-.007,2.475-.007,3.716v.157a5.271,5.271,0,0,0,.133,1.122,2.1,2.1,0,0,0,.321.743.885.885,0,0,0,.139.17,1.119,1.119,0,0,0,.831.315,7.421,7.421,0,0,0,3.767-1.191h.006c.183-.107.365-.214.548-.314C1357.052,529.991,1357.2,529.909,1357.348,529.821Z"/><path class="ae" d="M1351.616,531.1a5.229,5.229,0,0,1,2.57-1.877,1.914,1.914,0,0,1,1.556.189v-.007c.39.227.774.448,1.165.675.145-.089.3-.171.441-.259a2.577,2.577,0,0,0-1.077-1.511c-.013-.007-.019-.013-.032-.019a2.606,2.606,0,0,0-1.87-.145,6.506,6.506,0,0,0-3.074,2.211A2.1,2.1,0,0,0,1351.616,531.1Z"/><path class="f" d="M1360.157,330.347c-.989,8.548-6.926,65.625-7.909,74.172l4.851,3.031c.749-6.487,7.31-67.824,8.06-74.312C1363.489,332.274,1361.826,331.311,1360.157,330.347Z"/><path class="ac" d="M1376.679,672.334l.007.007,6.576-3.8c2.7-1.555,3.609-4.881,3.609-7.974a22.165,22.165,0,0,0-1.342-7.219,18.982,18.982,0,0,1-6.809-1.738h-.006l.088,5.127a22.421,22.421,0,0,1,1.493,7.628C1380.3,668.505,1378.821,671.106,1376.679,672.334Z"/><path class="ad" d="M1355.874,647.542c-1.531,8.125,4.7,20.106,12.737,24.288a10.579,10.579,0,0,0,4.686,1.342,6.587,6.587,0,0,0,3.382-.838c2.142-1.228,3.616-3.829,3.616-7.968a22.421,22.421,0,0,0-1.493-7.628l.114,6.57-.977.586-22-12.7Z"/><path class="f" d="M1378.72,651.611a18.982,18.982,0,0,0,6.809,1.738c8.548.448,15-6.154,14.916-16.786v-.643c.044-10.519-6.148-22.626-14.135-29.661l-.006-.007q-56.689-50.274-113.374-100.537c-6.683-5.877-11-15.6-10.967-22.594v-9.486a42.316,42.316,0,0,1-8.472,4.208,9.278,9.278,0,0,1-.963.17v5.1c-.044,9.826,5.555,22.109,14.141,29.668v-.007q56.69,50.276,113.38,100.544c6.539,5.757,11,15.432,10.96,22.594v.661c.026,2.759-.73,6.532-3.495,7.225a5.175,5.175,0,0,1-1.8.088,9.28,9.28,0,0,1-2.072-.472l-.013-.019a7.889,7.889,0,0,0-4.806,5.493,4.648,4.648,0,0,0-.132,1.184l.025,1.537Z"/><path class="ae" d="M1385.712,643.888a2.386,2.386,0,0,0-.838-.881,2.133,2.133,0,0,0-.371-.177,2.989,2.989,0,0,0-2.148.233,6.916,6.916,0,0,0-2.822,2.495,8.925,8.925,0,0,0-1.821,5.1l.227,13.234.977-.586-.114-6.57-.088-5.127-.025-1.537a4.648,4.648,0,0,1,.132-1.184,7.889,7.889,0,0,1,4.806-5.493l.013.019A9.28,9.28,0,0,0,1385.712,643.888Z"/><path class="u" d="M1384.5,642.83a2.133,2.133,0,0,1,.371.177l.007-.007q-11.008-6.349-22-12.705a2.836,2.836,0,0,0-2.4.025v.007a4.622,4.622,0,0,0-.485.214,9.267,9.267,0,0,0-4.278,7.414l.007.516.151,9.071.063,3.647,22,12.7-.227-13.234a8.925,8.925,0,0,1,1.821-5.1,6.916,6.916,0,0,1,2.822-2.495A2.989,2.989,0,0,1,1384.5,642.83Z"/><path class="f" d="M1409.9,400.3a1.491,1.491,0,0,1-.3-1.059.1.1,0,0,1,.007-.044l.283-2.463c-2.255-1.3-49.927-26.678-52.182-27.982v7.275l42.439,23.645c2.708-.038,8.408,1.22,11.072,1.579l.045-.328A1.789,1.789,0,0,1,1409.9,400.3Z"/><path class="f" d="M1411.216,401.248a46.364,46.364,0,0,1,11.874,3.111q-4.092-2.371-8.2-4.743c-.007.063-.013.12-.019.183h-.007c0,.076-.056.151-.17.227a3.047,3.047,0,0,1-.554.283,6.932,6.932,0,0,1-2.878.611Z"/><path class="f" d="M1414.889,399.616q2.04-17.658,4.075-35.318-2.5-1.446-5-2.885-2.041,17.66-4.076,35.318l-.283,2.463a.1.1,0,0,0-.007.044,1.491,1.491,0,0,0,.3,1.059,1.789,1.789,0,0,0,1.361.623,6.932,6.932,0,0,0,2.878-.611,3.047,3.047,0,0,0,.554-.283c.114-.076.17-.151.17-.227h.007C1414.876,399.736,1414.882,399.679,1414.889,399.616Z"/><path class="f" d="M1436.777,483.959v3.376q2.363-1.36,4.725-2.727c.17-1.222.333-2.438.5-3.66Q1439.392,482.45,1436.777,483.959Z"/><path class="f" d="M1440.739,588.773a9.278,9.278,0,0,1,4.3-7.332,3.715,3.715,0,0,1,.459-.2l-.006-.012q-41.649-24.047-83.291-48.092c-1.064.617-2.129,1.228-3.193,1.845h-.006c-3.452,2.016-6.583,2.343-8.92,1.411v.643q3.449,1.993,6.9,3.987,41.875,24.179,83.75,48.357Z"/><path class="f" d="M1454.358,465.856a25.072,25.072,0,0,1-6.432,10.783l-.623,4.624q3.609-2.088,7.225-4.17v-.006a28.848,28.848,0,0,0,4.97-9.946v-.007q2.673-10.686,5.341-21.384-3.194,1.833-6.381,3.678Q1456.407,457.648,1454.358,465.856Z"/><path class="ac" d="M1468.108,619.549c2.671-1.524,3.616-4.831,3.616-7.974a20.682,20.682,0,0,0-.756-5.335c-.183-.674-.391-1.342-.624-1.991a19.233,19.233,0,0,1-6.632-1.738v5.373a22.411,22.411,0,0,1,1.436,7.489c0,4.139-1.481,6.74-3.616,7.968l.006.013,6.577-3.8Z"/><path class="ad" d="M1440.739,598.517c-1.562,8.189,4.756,20.251,12.825,24.371a10.408,10.408,0,0,0,4.667,1.291,6.579,6.579,0,0,0,3.3-.838c2.135-1.228,3.616-3.829,3.616-7.968a22.411,22.411,0,0,0-1.436-7.489v6.488l-.977.56-22-12.7Z"/><path class="f" d="M1413.179,517.892c14.746,13.077,37.141,33.257,51.893,46.34,6.538,5.758,11,15.432,10.96,22.594v.662c.025,2.784-.743,6.532-3.5,7.225a5.262,5.262,0,0,1-1.807.088,9.616,9.616,0,0,1-2.117-.492l-.006.013a8.234,8.234,0,0,0-3.868,3.276,6.736,6.736,0,0,0-1.026,3.313v1.6a19.233,19.233,0,0,0,6.632,1.738c.227.013.441.025.662.025,8.308.2,14.544-6.336,14.462-16.8v-.642c.057-10.671-6.286-22.746-14.135-29.662l-.006-.006q-17.11-15.174-34.21-30.33c-2.6,1.128-5.927.87-9.334-1.114-.013,0-.019-.007-.032-.013a.006.006,0,0,0-.006-.006c-1.185-.681-10.357-14.7-11.535-15.388l-2.31,1.448C1412.8,512.26,1414.319,517.489,1413.179,517.892Z"/><path class="f" d="M1465.935,431.854a8.542,8.542,0,0,0,2.173-.623c.145-.076.4-.208.441-.359l.006-.007.057-.227q4.11-16.469,8.22-32.93-2.39-1.38-4.774-2.753-4.11,16.46-8.22,32.925c-.171.692-.347,1.379-.517,2.072h.006a1.455,1.455,0,0,0,1.2,1.9A3.936,3.936,0,0,0,1465.935,431.854Z"/><path class="f" d="M1468.108,431.231a8.542,8.542,0,0,1-2.173.623,3.936,3.936,0,0,1-1.411-.006,1.455,1.455,0,0,1-1.2-1.9h-.006c.17-.693.346-1.38.517-2.072q-16.62-9.591-33.24-19.187c4.17,3.351-69.111-42.226-69.255-38.125,0,1.09-1.213,6.186-1.213,7.275,7.874,4.548,92.388,54.717,100.256,59.258q4.856-2.8,9.713-5.606c-.5-.283-.989-.573-1.487-.857l-.057.227-.006.007C1468.511,431.023,1468.253,431.155,1468.108,431.231Z"/><path class="ae" d="M1467.4,593.963a6.783,6.783,0,0,0-2.816,2.469,8.953,8.953,0,0,0-1.852,5.046v13.454l.977-.56V600.911a6.736,6.736,0,0,1,1.026-3.313,8.234,8.234,0,0,1,3.868-3.276l.006-.013a9.616,9.616,0,0,0,2.117.492,2.249,2.249,0,0,0-.826-.876,1.771,1.771,0,0,0-.365-.176A2.946,2.946,0,0,0,1467.4,593.963Z"/><path class="u" d="M1469.9,593.913q-11.007-6.35-22-12.705a2.79,2.79,0,0,0-2.4.031,3.715,3.715,0,0,0-.459.2,9.278,9.278,0,0,0-4.3,7.332v13.461l22,12.7V601.478a8.953,8.953,0,0,1,1.852-5.046,6.783,6.783,0,0,1,2.816-2.469,2.946,2.946,0,0,1,2.135-.214,1.771,1.771,0,0,1,.365.176Z"/><path class="f" d="M1470.1,442.707l5.757,3.326c.321-2.4.649-4.806.97-7.206Q1473.463,440.764,1470.1,442.707Z"/><path class="ae" d="M1470.344,604.249c.233.649.441,1.317.624,1.991h.006l.032-1.966C1470.785,604.274,1470.571,604.262,1470.344,604.249Z"/><path class="f" d="M1474.187,468.457c1.19.743,2.866,1.348,3.716.246a1.833,1.833,0,0,0,.353-.794c.012-.069.025-.138.031-.214.208-1.562.422-3.124.63-4.686q.954-7.049,1.9-14.11.7-5.2,1.4-10.406c.138-1.008.277-2.009.409-3.017q-2.9,1.672-5.8,3.351c-.321,2.4-.649,4.806-.97,7.206q-1.369,10.156-2.74,20.32c-.032.271-.069.548-.107.819h.006a1.145,1.145,0,0,0,.46.75A5.214,5.214,0,0,0,1474.187,468.457Z"/><path class="af" d="M1390.067,352.02l-12.654,7.3c0-3.041-.019-6.081-.019-9.142C1381.612,350.784,1385.849,351.392,1390.067,352.02Z"/><path class="ag" d="M1377.2,369.3a2.306,2.306,0,0,1,1.078-.47,1.631,1.631,0,0,1,1.452.49,3.11,3.11,0,0,1,.393,2.55A10.935,10.935,0,0,0,1377.2,369.3Z"/><path class="ah" d="M1374.215,342.858c1.8,4.163,2.771,6.413,3.179,7.318,0,3.061.019,6.1.019,9.142-1.334.785-2.668,1.55-4,2.315C1373.968,348.646,1374.032,347.551,1374.215,342.858Z"/><path class="ag" d="M1376.766,375.779a1.508,1.508,0,0,1-1.589-.864,2.889,2.889,0,0,0,.726-.255A6.155,6.155,0,0,1,1376.766,375.779Z"/><path class="ag" d="M1375.177,374.915a2.746,2.746,0,0,1-.255-1.138,5.563,5.563,0,0,1,.981.883A2.889,2.889,0,0,1,1375.177,374.915Z"/><path class="ai" d="M1374.706,370.364c1.7-3.12,5.369-4.845,6.651-1.55a6.67,6.67,0,0,1-.373,4.257l-.02.02a10.336,10.336,0,0,0-.843-1.217c.333-1.466-.062-3.01-1.589-3.08a.573.573,0,0,0-.256.04,2.306,2.306,0,0,0-1.078.47,5.192,5.192,0,0,0-1.649,1.923,5.05,5.05,0,0,0-.627,2.57c.082,1.557,1,2.112,1.844,1.982a11.188,11.188,0,0,1,.726,1.412C1374.02,378.769,1372.264,374.9,1374.706,370.364Z"/><path class="af" d="M1374.215,342.858c-.184,4.709-.251,5.872-.8,18.775q-25.72,14.832-51.44,29.684c-.883-2.041-2.982-6.906-3.159-7.318q-6.356-.912-12.673-1.825Q1340.157,362.516,1374.215,342.858Z"/><path class="aj" d="M1373.588,374.543a2.936,2.936,0,0,0,1.412,2.766c-.569-.275-1.118-.569-1.687-.844a2.2,2.2,0,0,1-.628-.51c-1.451-1.774-.709-4.6.53-6.69a6.284,6.284,0,0,1,2.55-2.609,3.053,3.053,0,0,1,2.688-.236c.51.236.981.511,1.491.766-1.235-.506-3.646.26-5.238,3.178A8.283,8.283,0,0,0,1373.588,374.543Z"/><path class="ag" d="M1345.18,387.726a1.746,1.746,0,0,1,1.412.451,3.041,3.041,0,0,1,.412,2.531,14.155,14.155,0,0,0-1.059-1.118c-.854-.759-.36-.192-.589-1.334A2.4,2.4,0,0,0,1345.18,387.726Z"/><path class="ag" d="M1345.726,389.6a19.047,19.047,0,0,0-1.664-1.423,2.019,2.019,0,0,1,1.118-.451A5.553,5.553,0,0,1,1345.726,389.6Z"/><path class="ak" d="M1344.062,388.177a12.65,12.65,0,0,1,3.668,3.434c.059.078.1.157.157.235,0,0,.02,0,0,.02,4.211,5.669,6.257,18.086,10.947,20.953a4.518,4.518,0,0,0,3.394.47,13.234,13.234,0,0,0,3.394-1.353.02.02,0,0,1,.02-.02,20.045,20.045,0,0,0,2.825-1.922c11.616-9.153,13.493-30.8,6.455-36.217a5.626,5.626,0,0,1,2-4.277c.337-.253.215-.215.412-.117,9.929,6.01,9.3,31.729-5.14,44.044-3.782,3.226-9.322,6.133-14.067,4.551-9.431-2.947-10.153-20.762-16.342-25.327A5.742,5.742,0,0,1,1344.062,388.177Z"/><path class="ag" d="M1343.728,394.652a1.71,1.71,0,0,1-1.707-.864,1.77,1.77,0,0,0,.785-.274A12.049,12.049,0,0,1,1343.728,394.652Z"/><path class="ag" d="M1342.806,393.514a1.8,1.8,0,0,1-.785.274,2.472,2.472,0,0,1-.235-1.137A6.4,6.4,0,0,1,1342.806,393.514Z"/><path class="af" d="M1394.423,351.314c-45.452,26.225-57.832,33.389-73.649,42.533l4.395,93.131,73.648-42.514ZM1375.9,409.6a27.431,27.431,0,0,1-7.514,6.533,18.273,18.273,0,0,1-6.239,2.237c-11.364,1.23-13.243-15.188-17.578-22.4a3.116,3.116,0,0,1-2.453.334,1.172,1.172,0,0,1-.274-.138l-.02.02c-.2-.107-.8-.431-1.628-.844a2.792,2.792,0,0,1-1.413-2.825,8.435,8.435,0,0,1,3.433-6.709,2.8,2.8,0,0,1,3.12-.51c.569.294,1.118.568,1.687.863l-.02.059c1.772.643,1.675,3.729.883,5.63,0,0,.02,0,0,.02,3.16,4.254,5.1,12.331,8.044,17.637,1.838,3.1,3.755,4.686,7.161,3.551,2.845-.814,7.476-3.976,10.653-8.985,5.748-8.953,6.487-20.85,3.747-26.878-1.771.8-2.286.188-4.179-.726a2.2,2.2,0,0,1-.628-.51c-1.451-1.774-.709-4.6.53-6.69a6.281,6.281,0,0,1,2.551-2.609,3.051,3.051,0,0,1,2.687-.236c.51.236.981.511,1.491.766a2.843,2.843,0,0,1,1.413,1.628,6.67,6.67,0,0,1-.373,4.257l-.02.02a1.889,1.889,0,0,1,.177.255C1386.5,382.131,1384.226,399.613,1375.9,409.6Z"/><path class="ai" d="M1345.121,386.059a2.878,2.878,0,0,1,2.433.49c1.229,1.111,1.012,3.669.333,5.3a7.921,7.921,0,0,0-.883-1.138,3.058,3.058,0,0,0-.412-2.531,1.746,1.746,0,0,0-1.412-.451,2.549,2.549,0,0,0-1.472.726c-1.872,1.664-2.237,4.3-1.687,5.336a1.712,1.712,0,0,0,1.707.864,9.316,9.316,0,0,1,.844,1.314c-2.826,1.528-4.9-.8-3.983-4.139C1341.382,388.495,1343.609,386.411,1345.121,386.059Z"/><path class="aj" d="M1343,387.393a8.919,8.919,0,0,0-2.413,4.434,5.179,5.179,0,0,0-.02,2.511,3.019,3.019,0,0,0,1.276,1.824l-.02.02c-.2-.107-.835-.447-1.628-.844a2.792,2.792,0,0,1-1.413-2.825,8.435,8.435,0,0,1,3.433-6.709,2.8,2.8,0,0,1,3.12-.51c.569.294,1.118.569,1.687.863l-.02.059a3.088,3.088,0,0,0-1.883-.157A4.4,4.4,0,0,0,1343,387.393Z"/><path class="ah" d="M1320.774,393.847l4.395,93.13-8.2-11.3V385.058Z"/><path class="al" d="M1316.968,385.058l-15.185-2.2,73.649-42.514,3.786,8.77,15.2,2.2c-45.452,26.225-57.832,33.389-73.649,42.533Zm-10.829-2.884q6.327.912,12.673,1.825c.177.412,2.276,5.277,3.159,7.318,11.988-6.927,60.581-34.963,68.1-39.3-4.218-.628-8.455-1.236-12.673-1.844-.4-.885-1.005-2.294-3.179-7.318Q1340.168,362.517,1306.139,382.174Z"/><path class="af" d="M1316.968,385.058v90.619l-19.579-4.728,4.395-88.088Z"/><path class="am" d="M1424.329,429.913c-12.916-1.505-26.4-3.621-26.4-3.621l-3.505-74.978s-33.829,19.653-46.206,26.579c-5.1,2.847-9.987,6.176-15.625,8.163.429-1.075,5.247-3.9,5.247-3.9l35.572-20.523,4-2.315s-2.929-15.735-3.2-16.46l-68.076,39.316c.657-.148,12.12,2.529,15.832,9.143,2.987,5.323,2.247,16.974,1.167,37.188a4.351,4.351,0,0,1-5.016,4.069c-4.049-.647-3.858,2.63-3.858,2.63l2.7.814,7.485,32.923.716,18.037s35.855,6.416,47.131,5.933a37.912,37.912,0,0,0,20.136-6.363c3.115-2.121,5.585-4.7,5.692-8.779,3.517-2.041,6.927-4.081,10.363-6.041,8.189-4.672,15.814-10.524,25.452-12.189a9.669,9.669,0,0,0,1.853-.671,5.429,5.429,0,0,0,3.785-3.571,59.231,59.231,0,0,0,.637-6.074A18.067,18.067,0,0,0,1424.329,429.913Zm-77.723,57.763c2.9-1.182,12.807-1.906,19.626-1.182C1359.977,488.937,1353.64,490.549,1346.606,487.676Zm33.91-91.257a17.629,17.629,0,0,1-.484-2.605c-.134-6.121-.564-12.189-2.389-18.1-.564-1.853-.43-3.517,1.4-4.752a22.542,22.542,0,0,1,3.255,4.829C1383.422,382.937,1383.415,389.385,1380.516,396.419Z"/><path class="an" d="M1329.792,386.312h0c-1.745,1-1.645.954-1.662.952C1328.656,385.7,1329.3,384.745,1329.792,386.312Z"/><path class="ao" d="M1326.748,436.339a.794.794,0,0,1-.928.673c-12.131-1.881-11.411-1.751-11.556-1.808a.633.633,0,0,1-.361-.367c-.525-2.1-1.118-9.718-1.265-11.9a133.1,133.1,0,0,1,1.141-31.161c.329-1.908,1.117-6.077,2.013-7.838.331-.641.764-1.17,1.476-1.059,12.444,1.924,11.6,1.7,12.01,2.076a2.821,2.821,0,0,1,.625,1.3l-.111.065c-.672-2.128-1.552.367-2.13,2.533a84.181,84.181,0,0,0-1.915,11.368C1323.947,417.452,1326.6,436.815,1326.748,436.339Z"/><path class="o" d="M1438.071,400.68v13.456l-6.992-6.737Z"/><path class="ap" d="M1434.652,401.8c-.446.427-5.378,5.156-5.818,5.6,0,1.872.017,3.743.017,5.614h-71.892c.017-1.871.017-3.742.017-5.614q-2.908-2.806-5.818-5.6Z"/><path class="o" d="M1434.652,413.013h-5.8c0-1.871-.017-3.742-.017-5.614Q1431.742,410.207,1434.652,413.013Z"/><path class="aq" d="M1416.942,425.364c0-.53.034-.756.034-1.123,0-2.022.1-2.223-.136-2.722a1.846,1.846,0,0,0-.544-.7C1418.522,421.879,1418.567,424.163,1416.942,425.364Z"/><path class="ar" d="M1409.933,423.22c.028-2.444,3.132-5.005,6.618-3.827a4.206,4.206,0,0,1,3.164,3.861,4.31,4.31,0,0,1-2.858,3.777c0-.062.085-1.111.085-1.667a2.906,2.906,0,0,0,.936-1.14c1.03-2.4-2.058-4.521-4.474-3.436h-.017c-2.114,1.057-2.388,3.239-.8,4.474,0,.17-.039,1.141-.085,1.667A4.146,4.146,0,0,1,1409.933,423.22Z"/><path class="as" d="M1412.672,419.546a4.475,4.475,0,0,0-2.739,3.674v-1.037a4.117,4.117,0,0,1,1.617-3.1,5.576,5.576,0,0,1,6.583.034,4.126,4.126,0,0,1,1.582,3.045v1.088C1419.636,419.936,1415.538,418.233,1412.672,419.546Z"/><path class="ap" d="M1347.755,414.136V495.81h90.316V414.136Zm71.96,9.118a4.31,4.31,0,0,1-2.857,3.777c-.471,8.465-2.893,17.9-9.408,23.2-5.03,4.024-11.527,5.034-17.829,3.828-12.479-2.656-16.731-14.4-17.488-27.253a4.3,4.3,0,0,1-2.824-3.76v-1.088a4.18,4.18,0,0,1,1.6-3.062,5.6,5.6,0,0,1,6.6,0,4.16,4.16,0,0,1,1.582,3.062v1.088a4.147,4.147,0,0,1-2.6,3.675,47.14,47.14,0,0,0,1.123,8.268c1.412,6.213,4.729,12.3,10.8,14.238a18.893,18.893,0,0,0,13.762-.731c6.1-3.052,8.71-10.046,9.816-16.808.022-.17.51-3.481.51-4.763a4.161,4.161,0,0,1-2.569-3.657v-1.089a4.117,4.117,0,0,1,1.617-3.1,5.579,5.579,0,0,1,6.583.034,4.126,4.126,0,0,1,1.582,3.045Z"/><path class="aq" d="M1376.369,422.013a1.817,1.817,0,0,0-.748-1.446,3,3,0,0,1,1.837,2.483,2.639,2.639,0,0,1-1.037,2.025C1376.4,424.847,1376.369,422.251,1376.369,422.013Z"/><path class="at" d="M1412.638,424.122v-.136a1.029,1.029,0,0,1-.016.221C1412.622,425,1412.617,424.319,1412.638,424.122Zm-40.59-.1c0-2.048-.1-2.2.137-2.7a1.988,1.988,0,0,1,.493-.68,3.457,3.457,0,0,1,2.943-.068,1.79,1.79,0,0,1,.748,1.48,55.4,55.4,0,0,0,1.242,12.946c1.969,8.663,6.861,14.79,15.668,15.157,9.107.536,16.384-4.227,18.713-18.458.026-.2.432-2.844.51-4.729,0-.146.085-1.174.085-1.7a2.557,2.557,0,0,1-1.02-2.025c.03-1.707,2.231-3.353,4.474-2.517l.255.1a1.846,1.846,0,0,1,.544.7c.238.514.136.715.136,2.722a50.821,50.821,0,0,1-2.347,14.953c-2.887,8.66-8.831,14.479-18,15.243C1379.08,455.87,1372.048,441.395,1372.048,424.02Z"/><path class="aq" d="M1372.678,420.635a1.9,1.9,0,0,0-.647,1.327c0,1,0,2.212.051,3.164h-.017C1370.477,423.952,1370.518,421.687,1372.678,420.635Z"/><path class="ar" d="M1369.309,423.05a4.293,4.293,0,0,1,3.2-3.895c3.61-1.107,6.584,1.511,6.584,3.895a4.147,4.147,0,0,1-2.6,3.675c-.017-.357-.034-.749-.051-1.106,0-.8-.16-.313.409-.953a2.636,2.636,0,0,0,.612-1.616,3.005,3.005,0,0,0-1.837-2.483c-2.4-1.1-5.486,1.057-4.474,3.419a2.739,2.739,0,0,0,.918,1.14h.017c0,1.251.051,1.505.051,1.684A4.3,4.3,0,0,1,1369.309,423.05Z"/><path class="as" d="M1369.309,421.962a4.183,4.183,0,0,1,1.6-3.062,5.191,5.191,0,0,1,3.3-1.072c3.041,0,4.882,2.141,4.882,4.134v1.088a4.463,4.463,0,0,0-2.688-3.691c-2.919-1.379-7.017.386-7.094,3.691Z"/><path class="o" d="M1356.976,407.4c0,1.872,0,3.743-.017,5.614h-5.8C1357.468,406.9,1356.229,408.147,1356.976,407.4Z"/><path class="o" d="M1354.73,407.4l-6.975,6.737V400.68Z"/><path class="au" d="M1351.158,413.013h83.494q-2.91-2.807-5.818-5.614c.44-.44,5.372-5.169,5.818-5.6h-83.494q2.909,2.781,5.818,5.6C1356.178,408.2,1357.584,406.79,1351.158,413.013Zm-3.4,1.123,6.975-6.737-6.975-6.719h90.316l-6.992,6.719,6.992,6.737Z"/><g class="av"><path class="aw" d="M1347.765,460.5c.02-.572.023-8.266.023-17.147v19.292C1347.765,461.925,1347.742,461.225,1347.765,460.5Z"/></g><path class="ax" d="M1473.5,488.791a73.153,73.153,0,0,0,3.114-9.495c-5.807-.326,5.6.327,0,0-3.941-.233-8.092.234-11.1-3.334a3.678,3.678,0,0,0-1.959-.839,53.091,53.091,0,0,0-7.578-1.539c-4.594-.327-9.234-.233-13.851-.373-1.1-.024-4.245-.6-4.245-.6s.489-51.876.186-58.475h-90.316s.033,45.784.01,46.367c-.023.722,0,1.422.023,2.145.024,1.935.14,3.87,0,5.876v14.013c.047,1.446.024,2.892,0,4.338v4.593a45.764,45.764,0,0,0,.35,5.316c1.889.07,3.591.164,5.293.164,21.522.023,43.021-.047,64.543.023,13.967.047,27.934-.023,41.878-1.423a9.9,9.9,0,0,1,2.261.327c-2.8,1.749-5.246,2.4-9.257,2.472-20.472.373-22.478.21-24.669.489-.42.047-.77.583-1.26.98,1.469,1.282,2.938.862,4.314.862q9.3.07,18.631.024a64.46,64.46,0,0,0,7.345-.327c3.567-.466,7.321-.863,9.956-3.614a4.839,4.839,0,0,1,3.754-1.562c19.89-.933-6.482.886,0,0C1468.572,492.867,1475.322,490.633,1473.5,488.791Zm-103.866-67.648c3.194-3.847,5.409-3.964,9-.4C1375.326,419.138,1372.761,419.161,1369.637,421.143Zm47.357,4.64c-1.259,4.873-2.378,9.793-3.894,14.573a19.621,19.621,0,0,1-7.228,10.47,16.509,16.509,0,0,1-11.239,3.194c.21-3.124.186-3.241,2.775-3.544a14.2,14.2,0,0,0,11.915-8.814,54.591,54.591,0,0,0,3.008-9.84,62.743,62.743,0,0,0,.793-7.275c.046-.419-.024-1.026.233-1.236.583-.536,1.352-1.236,2.005-1.189.606.047,1.352.886,1.655,1.539A3.649,3.649,0,0,1,1416.994,425.783Zm-5.013-5.876c2.308-2.192,3.941-2.215,6.622,0Zm38.474,57.78c-3.754,0-7.718.56-12.055-1.492,7.927-1.446,18.677-.676,23.69,1.679C1457.893,479.2,1454.162,477.687,1450.455,477.687Z"/><path class="f" d="M1293.376,469.1c1.027.34,2.513-.378,3.364-1.008.321-.24.793-.636.806-1.033v-.013c-.038-.264-.076-.529-.107-.794q-1.833-13.785-3.672-27.576-2.9-1.672-5.795-3.345.727,5.433,1.448,10.866,1.116,8.352,2.23,16.7.312,2.391.636,4.781v.026A1.664,1.664,0,0,0,1293.376,469.1Z"/><path class="f" d="M1351.232,498.081v-.775q.018-6.17.031-12.346.011-6.538.032-13.07-2.646-1.53-5.3-3.055-.028,9.6-.044,19.193c-.006,2.072-.006,4.151-.012,6.223-.007,1.4-.007,2.81-.013,4.214h.006a1.813,1.813,0,0,0,.177.806c.472.97,1.537,1.04,2.563.737.857-.252,2.558-1.114,2.558-1.921Z"/><path class="f" d="M1472.058,394.955q2.39,1.37,4.774,2.753,11.3,6.519,22.594,13.045l.007.006a5.693,5.693,0,0,1,1.656,1.342c.322.409.29.529.29.554a.188.188,0,0,1-.013.088,2.915,2.915,0,0,1-.781,1,6.8,6.8,0,0,1-1.152.812l-.007.007L1470.1,431.495q-4.857,2.807-9.713,5.606-11.8,6.822-23.609,13.631l-43.2,24.944-.012.006c-4.176,2.457-12,2.52-16.289,0l-.013-.006q-3.24-1.871-6.488-3.748-21.825-12.6-43.658-25.208-18.849-10.875-37.7-21.763-3.183-1.844-6.368-3.679-14.578-8.418-29.151-16.831-3.554-2.049-7.1-4.1-4.857-2.806-9.707-5.606h-.006q-1.956-1.134-3.912-2.261-2.862-1.654-5.719-3.3v-.006q-9.875-5.7-19.741-11.395l-.013-.006a5.888,5.888,0,0,1-1.656-1.342c-.322-.409-.29-.529-.29-.554a.269.269,0,0,1,.019-.088,2.768,2.768,0,0,1,.775-1,6.853,6.853,0,0,1,1.152-.813l.013-.006q8.418-4.857,16.837-9.719,2.495-1.446,5-2.891,12.17-7.03,24.352-14.06V336.085q-23.016,13.285-46.033,26.575c.2.819.4,1.638.6,2.457.258,1.178-.114,2.772-1.134,3.106-.687.226-1.745-.126-3.118-.454a16.93,16.93,0,0,0-3.54-.529c-.051.006-.328.012-.321.069a11.289,11.289,0,0,0-4.315,8.56c0,4.429,2.923,8.113,6.815,10.318,0,.006.007.006.007.006q12.254,7.077,24.515,14.154l6.79,3.918q2.9,1.672,5.8,3.345,6.973,4.025,13.94,8.05l29.151,16.83,4.92,2.841q2.9,1.673,5.795,3.345l33.352,19.256,18.878,10.9q2.646,1.521,5.3,3.055,5.649,3.259,11.3,6.526l8.182,4.724c.542.315,1.084.624,1.625.938.007,0,.007.007.013.007,7.263,4.27,18.865,4.2,26.021,0,.006,0,.006-.007.012-.007q7.5-4.326,15-8.661,2.9-1.671,5.795-3.344,8.769-5.065,17.536-10.123v-.006q4.215-2.428,8.435-4.863v-.006l5.8-3.345q3.723-2.154,7.445-4.3,3.185-1.842,6.381-3.678v-.007q2.626-1.512,5.26-3.036,3.363-1.937,6.727-3.88,2.9-1.682,5.8-3.351,10.818-6.246,21.643-12.5c.007,0,.007-.006.013-.006,3.842-2.18,6.809-5.858,6.809-10.312,0-4.422-2.916-8.106-6.809-10.317-.006,0-.006-.007-.013-.007q-77.041-44.482-154.09-88.966V324.59q4.989,2.881,9.977,5.757c1.669.964,3.332,1.927,5,2.891q24.4,14.088,48.8,28.175,2.5,1.437,5,2.885Q1445.514,379.624,1472.058,394.955Z"/><path class="f" d="M1477.9,468.7c-.85,1.1-2.526.5-3.716-.246a5.214,5.214,0,0,1-.712-.535,1.145,1.145,0,0,1-.46-.75h-.006c.038-.271.075-.548.107-.819q-9.3,5.376-18.588,10.734v.006q-3.619,2.079-7.225,4.17c-.214,1.606-.428,3.219-.649,4.825a1.876,1.876,0,0,1-.365.869c-.851,1.1-2.526.491-3.717-.246a5.4,5.4,0,0,1-.711-.535,1.143,1.143,0,0,1-.46-.756h-.006c.037-.271.075-.542.107-.812q-2.362,1.361-4.725,2.727-10.62,6.141-21.24,12.264c-.207,1.556-.422,3.118-.63,4.674v.006a1.121,1.121,0,0,1-.031.214,1.857,1.857,0,0,1-.353.807c-.85,1.1-2.544.5-3.716-.246-.416-.265-1.178-.813-1.178-1.3,0-.019.006-.044.006-.063.032-.246.07-.491.1-.737q-8.106,4.677-16.207,9.36l-.013.006c-4.157,2.444-11.98,2.533-16.289,0l-.012-.006q-3.222-1.861-6.438-3.716l-19.545-11.288v.781c0,.807-1.7,1.669-2.558,1.921-1.026.3-2.091.233-2.563-.737a1.813,1.813,0,0,1-.177-.806h-.006c.006-1.4.006-2.809.013-4.214q-2.694-1.559-5.386-3.105-6.717-3.883-13.436-7.76-14.843-8.571-29.68-17.134c.031.265.069.53.107.794v.013c-.013.4-.485.793-.806,1.033-.851.63-2.337,1.348-3.364,1.008a1.664,1.664,0,0,1-1.09-1.392v-.026q-.321-2.39-.636-4.781h-.006c-.743-.428-1.48-.856-2.224-1.285q-3.183-1.832-6.368-3.672-14.578-8.409-29.151-16.83-5.132-2.967-10.267-5.928h-.007c.032.24.063.473.1.712.075.409-.353.806-.788,1.128-.85.629-2.336,1.347-3.363,1.007a1.649,1.649,0,0,1-1.09-1.366c-.006-.026-.006-.057-.013-.089-.207-1.581-.415-3.155-.63-4.736q-2.9-1.683-5.807-3.358-6.84-3.949-13.688-7.9l-.012-.006a5.763,5.763,0,0,1-1.651-1.342c-.321-.409-.289-.529-.289-.554a.18.18,0,0,1,.012-.088,2.79,2.79,0,0,1,.781-1,6.683,6.683,0,0,1,1.147-.812l.012-.007q5.773-3.334,11.546-6.67c1.562-.9,3.131-1.8,4.693-2.709-.138-1.045-.277-2.084-.416-3.13l-6.79-3.918q-6.945,4.007-13.889,8.018c-3.83,2.174-6.809,5.852-6.809,10.312,0,4.422,2.922,8.1,6.8,10.311.007,0,.007,0,.013.006s.006.007.012.007q10.035,5.791,20.069,11.59,2.947,1.7,5.889,3.395c1.934,1.115,3.868,2.236,5.795,3.345v.006l25.832,14.909q2.655,1.531,5.3,3.062,6.519,3.76,13.038,7.527c1.285.737,2.564,1.48,3.843,2.217q2.9,1.672,5.8,3.345,14.031,8.106,28.061,16.2l3.723,2.154q7.54,4.345,15.073,8.7,2.646,1.53,5.292,3.055,10.572,6.1,21.139,12.207c.006,0,.006.006.012.006.126.076.252.145.378.214a23.091,23.091,0,0,0,6.539,2.35,29.5,29.5,0,0,0,4.56.567,26.822,26.822,0,0,0,14.551-3.131c.006,0,.006-.006.012-.006q4.847-2.807,9.7-5.6v-.006l5.8-3.345q11.442-6.6,22.877-13.209c1.033-.6,2.06-1.19,3.093-1.782q2.9-1.682,5.8-3.345v-.006q12.907-7.455,25.819-14.9,2.9-1.671,5.8-3.344,8.173-4.725,16.352-9.442c.007,0,.007-.007.013-.007,3.836-2.179,6.809-5.858,6.809-10.317,0-4.422-2.916-8.107-6.809-10.318-.006,0-.006-.006-.013-.006q-5.706-3.3-11.413-6.589-.7,5.206-1.4,10.406,3.989,2.3,7.969,4.6l.012.007a5.744,5.744,0,0,1,1.65,1.341c.322.41.29.536.3.555a.293.293,0,0,1-.018.088,2.785,2.785,0,0,1-.775,1,7.065,7.065,0,0,1-1.153.813l-.012.006q-4.933,2.853-9.871,5.7c-.208,1.562-.422,3.124-.63,4.686-.006.076-.019.145-.031.214A1.833,1.833,0,0,1,1477.9,468.7Z"/><path class="f" d="M1410.807,505.054c1.172.743,2.866,1.342,3.716.246a1.857,1.857,0,0,0,.353-.807c.013-.069.019-.145.031-.214v-.006c.208-1.556.423-3.118.63-4.674q1.852-13.767,3.7-27.526-2.9,1.672-5.795,3.344-1.862,13.767-3.71,27.533c-.031.246-.069.491-.1.737,0,.019-.006.044-.006.063C1409.629,504.241,1410.391,504.789,1410.807,505.054Z"/><path class="f" d="M1441.4,485.42a1.143,1.143,0,0,0,.46.756,5.4,5.4,0,0,0,.711.535c1.191.737,2.866,1.348,3.717.246a1.876,1.876,0,0,0,.365-.869c.221-1.606.435-3.219.649-4.825l.623-4.624q1.54-11.46,3.087-22.909l-5.8,3.345v.006q-1.607,11.934-3.213,23.867c-.164,1.222-.327,2.438-.5,3.66-.032.27-.07.541-.107.812Z"/><path class="f" d="M1427.783,525.721c3.407,1.984,6.733,2.242,9.334,1.114,2.671-1.165,4.58-3.779,5.058-7.495v-.013q1.371-10.119,2.728-20.226c.252-1.889.51-3.785.762-5.675q-2.9,1.664-5.8,3.345-1.475,10.922-2.948,21.857v.013a4.929,4.929,0,0,1-1.209,2.853c-1.354,1.31-3.685.573-5.31-.372l-.006-.006c-.284-.17-13.9-10.632-14.187-10.8-1.631,1.178,9.884,12.484,7.988,13.341q1.767,1.029,3.547,2.047a.006.006,0,0,1,.006.006C1427.764,525.714,1427.77,525.721,1427.783,525.721Z"/><path class="f" d="M1445.665,493.426c-.252,1.89-.51,3.786-.762,5.675q7.229,4.177,14.456,8.353h.006c6.91,4.044,13.48.989,14.425-6.368v-.007q1.747-12.954,3.489-25.907-2.9,1.672-5.8,3.344-1.473,10.932-2.948,21.864v.006a4.929,4.929,0,0,1-1.209,2.854c-1.354,1.31-3.685.579-5.31-.372v-.006Q1453.835,498.147,1445.665,493.426Z"/><path class="u" d="M1254.31,801.286v-2.643c54.07-31.2,51.284-29.435,51.953-30.327a2.9,2.9,0,0,0,.6-1.579v2.671a3.168,3.168,0,0,1-1.178,2.182C1305.3,771.883,1309.6,769.379,1254.31,801.286Z"/><path class="ay" d="M1286.476,765.387l-6.893,3.992L1258.848,757.4l6.921-3.992Z"/><path class="ay" d="M1259.451,749.764l-6.893,3.992-20.735-11.976,6.892-3.963Z"/><path class="s" d="M1256.378,782.819a6.519,6.519,0,0,1-3.791-.775,2.083,2.083,0,0,1-1.292-2.211c.115-.92,1.063-1.9,2.786-2.9a11.291,11.291,0,0,1,4.968-1.666,6.763,6.763,0,0,1,3.791.747,2.168,2.168,0,0,1,1.35,2.269c-.173.919-1.149,1.924-3.016,2.986A10.407,10.407,0,0,1,1256.378,782.819Z"/><path class="az" d="M1254.31,798.643v2.671l-18.437,10.626V809.3Z"/><path class="ba" d="M1127.632,725.525q63.324,36.574,126.678,73.118L1235.873,809.3q-63.326-36.573-126.621-73.147Z"/><path class="u" d="M1252.587,782.044a6.519,6.519,0,0,0,3.791.775,10.407,10.407,0,0,0,4.8-1.551c1.867-1.062,2.843-2.067,3.016-2.986a2.168,2.168,0,0,0-1.35-2.269,6.763,6.763,0,0,0-3.791-.747,11.291,11.291,0,0,0-4.968,1.666c-1.723,1.005-2.671,1.981-2.786,2.9A2.083,2.083,0,0,0,1252.587,782.044Zm-3.791-3.906c1.324-2.118,4.8-3.686,7.266-4.279a11.65,11.65,0,0,1,8.472.948c1.264.722,2.237,1.81,1.867,3.216l6.691-3.877,2.3,1.321-18.7,10.8-2.125-1.235c4.082-2.314.165.477-4.078-2.011C1248.509,781.873,1247.54,780.086,1248.8,778.138Z"/><path class="u" d="M1237.079,774.922l13.527-7.812,2.068,1.206-2.04,1.178a12.738,12.738,0,0,1,3.36-.259,4.057,4.057,0,0,1,3.533,2.384l-2.93.776c-.645-1.662-3.185-2.159-5.082-1.551-2.252.669-2.6,1.075-10.139,5.4Z"/><path class="ay" d="M1232.427,734.17l-6.921,3.992L1204.8,726.186l6.892-3.992Z"/><path class="s" d="M1231.421,769.264c-1.324-.209-4.217-1.229-4.365-2.556-.114-.973,1.151-1.608,2.24-1.723,2.62-.276,4.566,1.626,8.731,2.642C1235.658,769.048,1234.121,769.7,1231.421,769.264Z"/><path class="u" d="M1230.933,765.071c-2.851-.6-5.636,1.321-2.47,3.159a9.033,9.033,0,0,0,6.06,1.005,13.249,13.249,0,0,0,3.5-1.608C1235.112,766.916,1232.439,765.372,1230.933,765.071Zm-7.151,1.292c-.113-1.76,2.079-2.8,3.849-3.1,4.7-.783,7.622,2.109,12.177,3.331.708-.386,2-1.039,1.952-1.866-.2-1.463-3.3-2.871-4.8-3.016a8.486,8.486,0,0,0-3.159.517l-1.924-1.465a10.213,10.213,0,0,1,6.72-.4c1.836.525,4.954,2.039,5.945,3.36.8,1.006.852,1.8-.259,2.843-1.159.949-7.014,4-8.96,5.486a3.63,3.63,0,0,0-1.062,1.263l-2.384-1.378a3.745,3.745,0,0,1,1.206-1.235,14.763,14.763,0,0,1-6.95-1.752C1224.644,768.087,1223.868,767.225,1223.782,766.363Z"/><path class="u" d="M1212.783,749.965a19.335,19.335,0,0,1,12.694-2.384c6.018,1.058,11.873,4.972,7.582,9.363l-2.987-1.063c1.662-1.869,1.606-3.573-1.092-5.141a12.438,12.438,0,0,0-9.448-1.062c-2.67.791-6.077,2.475-7.639,4.537-1.495,2.033-.318,3.9,1.78,5.141a11.951,11.951,0,0,0,10.224.4l1.867,1.781c-4.7,1.637-9.705,1.594-13.986-.862-2.01-1.149-3.246-2.326-3.676-3.532C1207,754.255,1210.109,751.518,1212.783,749.965Z"/><path class="ay" d="M1205.4,718.547l-6.921,3.992-20.735-11.947,6.922-3.992Z"/><path class="s" d="M1304.97,764.066c.909.538,2.06,1.686,1.9,2.671a3.337,3.337,0,0,1-1.9,2.671l-50.66,29.235q-63.324-36.573-126.678-73.118c55.187-31.879,51.084-29.708,52.9-30.1a10.285,10.285,0,0,1,6.978.833Zm-46.122-6.663,20.735,11.976,6.893-3.992-20.707-11.976Zm-7.122,18.179c-4.591,2.678-4.276,5.678-1.235,7.438,4.228,2.479,8.141-.292,4.078,2.011l2.125,1.235,18.7-10.8-2.3-1.321-6.691,3.877C1267.3,774.595,1259.379,771.186,1251.726,775.582Zm-1.12-8.472-13.527,7.812,2.3,1.321c7.65-4.385,7.926-4.742,10.139-5.4,1.931-.618,4.445-.089,5.082,1.551l2.93-.776a4.055,4.055,0,0,0-3.533-2.384,12.738,12.738,0,0,0-3.36.259l2.04-1.178Zm-18.782-25.33,20.735,11.976,6.892-3.992-20.735-11.947Zm-6.462,22.257c-2.17,1.28-2.319,3.126.775,4.911a14.8,14.8,0,0,0,6.95,1.752,3.745,3.745,0,0,0-1.206,1.235l2.384,1.378c.564-1.128,1.534-1.7,4.939-3.7.921-.512,4.263-2.373,5.083-3.045,1.112-1.046,1.063-1.838.259-2.843-1.009-1.344-4.138-2.843-5.945-3.36a10.215,10.215,0,0,0-6.72.4l1.924,1.465a8.486,8.486,0,0,1,3.159-.517c1.491.144,4.6,1.552,4.8,3.016.049.832-1.271,1.495-1.952,1.866-2.548-.683-5.314-2.217-7.266-2.9C1229.4,762.762,1226.991,763.116,1225.362,764.037Zm.4-2.5-1.867-1.781a11.957,11.957,0,0,1-10.224-.4c-2.083-1.229-3.284-3.1-1.78-5.141,1.553-2.05,4.94-3.737,7.639-4.537a12.437,12.437,0,0,1,9.448,1.062c2.685,1.561,2.763,3.26,1.092,5.141l2.987,1.063c4.294-4.395-1.577-8.308-7.582-9.363a19.336,19.336,0,0,0-12.694,2.384c-2.675,1.553-5.782,4.29-4.681,7.18.43,1.206,1.666,2.383,3.676,3.532C1216.06,763.133,1221.064,763.176,1225.764,761.539Zm-35.611-35.525c-.4-1.35-1.727-2.008-2.9-2.671-2.424-1.347-3.328-1.992-6.979-4.021-1.292-.718-2.584-1.436-3.877-2.211a17.646,17.646,0,0,0-3.159-1.7,10.854,10.854,0,0,0-5.313-.373c-2.444.536-4.811,2.074-7.18,3.561-3.088,1.931-3.081,1.785-4.681,2.7-2.358,1.451-2.383,3.291-.832,4.738.7.6,10.763,6.219,12.751,7.438,2.257,1.317,3.137,2.011,5.8,2.183,5.037.315,7.834-2.8,13.325-5.744,1.079-.539,2.544-1.256,2.987-2.584A2.3,2.3,0,0,0,1190.153,726.014Zm8.328-3.476,6.921-3.991L1184.667,706.6l-6.921,3.991Zm33.946,11.632-20.736-11.976-6.892,3.992,20.706,11.975Z"/><path class="bb" d="M1164.1,731.269c-6.674-3.856-5.844-3.436-6.979-4.049-1.183-.618-2.536-1.328-2.872-2.671a2.45,2.45,0,0,1,.747-2.441,9.8,9.8,0,0,1,2.268-1.465c5.389-2.822,8.26-6.07,13.326-5.744,2.552.165,3.676.913,5.8,2.212,1.312.787,11.874,6.692,12.751,7.438a2.5,2.5,0,0,1,.948,2.786c-.435,1.3-1.872,2.027-2.987,2.584-5.471,2.936-8.284,6.059-13.325,5.744C1170.625,735.459,1170.464,734.8,1164.1,731.269Z"/><path class="s" d="M1106.925,742.814c-2.688-1.581-2.42-4.016,0-5.313l2.3-1.35c.287,0-1.359-.785,126.65,73.147l-2.3,1.321a10.255,10.255,0,0,1-7.007.833C1224.677,811.032,1232.614,815.387,1106.925,742.814Z"/><path class="u" d="M1105,742.814v-2.671a2.773,2.773,0,0,0,.6,1.58c.641.854-7.033-3.733,118.753,68.9a10.255,10.255,0,0,0,7.007.833c1.643-.365,2.253-.857,4.509-2.154v2.642l-2.3,1.321a10.1,10.1,0,0,1-7.007.862c-1.782-.4,5.88,3.81-119.643-68.667A3.216,3.216,0,0,1,1105,742.814Z"/><path class="u" d="M1321.028,288.094v29.425l-37.977,22.308-25.813-14.9Z"/><path class="o" d="M1351.158,401.8h83.494c-.626,1-5.818,5.6-5.818,5.6l5.818,5.614h-83.494l5.5-5.536Z"/><path class="o" d="M1438.071,414.136l-6.992-6.737c2.011-1.774,5.123-5.07,6.992-6.719Z"/><path class="bc" d="M1679.069,553.985c6.286,8.478,4.667,18.12-4.283,23.322-8.979,5.207-23.618,4.454-34.458-3.026-5.741-3.964-8.815-8.795-9.868-12.989a13.886,13.886,0,0,1,2-11.525c2.468-3.566,7.172-6.832,14.146-7.963C1658.848,539.818,1672.517,545.149,1679.069,553.985Zm-10.09,9.178a4.116,4.116,0,0,0,1.76-3.7,6.326,6.326,0,0,0-1.983-3.557c.384-.22.766-.443,1.15-.664q-.686-.6-1.368-1.212c-.384.22-.766.441-1.15.664a11.93,11.93,0,0,0-4.791-2.333,8.328,8.328,0,0,0-5.908.841c-1.773,1.025-2.713,2.616-2.046,4.563a10.741,10.741,0,0,0,1.781,3.258q-3.828,2.211-7.652,4.42a3.146,3.146,0,0,1-.919-2.907,4.813,4.813,0,0,1,1.89-2.49l-2.79-1.809a5.527,5.527,0,0,0-2.243,2.645,3.868,3.868,0,0,0,.008,2.754,10.336,10.336,0,0,0,2.024,2.978L1644.336,568q.685.607,1.368,1.212,1.215-.7,2.432-1.4a11.082,11.082,0,0,0,5.763,2.492,8.9,8.9,0,0,0,5.7-1.046,4.225,4.225,0,0,0,2.378-3.447,4.893,4.893,0,0,0-.571-2.261,21.544,21.544,0,0,0-1.612-2.468l6.93-4c1.262,1.615,1,2.912-.521,4.174Q1667.594,562.207,1668.979,563.163Z"/><path class="bd" d="M1670.739,559.465a4.116,4.116,0,0,1-1.76,3.7q-1.386-.954-2.774-1.91c1.523-1.262,1.783-2.559.521-4.174l-6.93,4a21.544,21.544,0,0,1,1.612,2.468,4.893,4.893,0,0,1,.571,2.261,4.225,4.225,0,0,1-2.378,3.447,8.9,8.9,0,0,1-5.7,1.046,11.082,11.082,0,0,1-5.763-2.492q-1.218.7-2.432,1.4-.681-.606-1.368-1.212l2.406-1.388a10.336,10.336,0,0,1-2.024-2.978,3.868,3.868,0,0,1-.008-2.754,5.527,5.527,0,0,1,2.243-2.645l2.79,1.809a4.813,4.813,0,0,0-1.89,2.49,3.146,3.146,0,0,0,.919,2.907q3.824-2.211,7.652-4.42a10.741,10.741,0,0,1-1.781-3.258c-.667-1.947.273-3.538,2.046-4.563a8.328,8.328,0,0,1,5.908-.841,11.93,11.93,0,0,1,4.791,2.333c.384-.223.766-.444,1.15-.664q.681.608,1.368,1.212c-.384.221-.766.444-1.15.664A6.326,6.326,0,0,1,1670.739,559.465Zm-12.005.228q3.326-1.923,6.65-3.842c-3.613-2.484-7.27-.926-7.579,1.08A4.283,4.283,0,0,0,1658.734,559.693Zm-.2,5.773a5.112,5.112,0,0,0-1.075-3.035q-3.66,2.115-7.32,4.226a6.913,6.913,0,0,0,3.455,1.282,5.689,5.689,0,0,0,3.46-.7A2.658,2.658,0,0,0,1658.532,565.466Z"/><path class="bc" d="M1665.384,555.851q-3.324,1.92-6.65,3.842a4.283,4.283,0,0,1-.929-2.762C1658.114,554.925,1661.771,553.367,1665.384,555.851Z"/><path class="bc" d="M1657.457,562.431a5.112,5.112,0,0,1,1.075,3.035,2.658,2.658,0,0,1-1.48,1.77,5.689,5.689,0,0,1-3.46.7,6.913,6.913,0,0,1-3.455-1.282Q1653.8,564.543,1657.457,562.431Z"/><path class="bd" d="M1598.935,554.564c-.337-8.773,10.072-16.659,25.067-18.723a54.639,54.639,0,0,1,22.5,1.563,35.511,35.511,0,0,0-7.93,1.788,45.592,45.592,0,0,0-16.555.486c-4.81,1.056-10.032,3.148-13.565,6.606-5.391,5.274-4.9,11.826,1.106,16.783,3.839,3.172,9.059,5.02,13.915,5.908a21.133,21.133,0,0,0,.776,2.071c.278.667.64,1.349.766,1.6-6.7-.794-13.952-2.944-19.361-7.019a18.48,18.48,0,0,1-5.072-5.542A12.11,12.11,0,0,1,1598.935,554.564Z"/><path class="bd" d="M1627.314,547.348c3.035-4.389,8.787-8.306,17.183-9.672,14.632-2.4,31.373,3.922,39.436,14.8,7.664,10.338,5.629,22.04-5.2,28.334-10.848,6.3-28.654,5.433-41.858-3.678-6.975-4.815-10.707-10.684-11.987-15.779A16.848,16.848,0,0,1,1627.314,547.348Zm47.472,29.959c8.95-5.2,10.569-14.844,4.283-23.322-6.552-8.836-20.221-14.167-32.462-12.181-6.974,1.131-11.678,4.4-14.146,7.963a13.886,13.886,0,0,0-2,11.525c1.053,4.194,4.127,9.025,9.868,12.989C1651.168,581.761,1665.807,582.514,1674.786,577.307Z"/><path class="bc" d="M1624.36,554.507l-.966,3.61a1.9,1.9,0,0,1-.454-1.747A3.874,3.874,0,0,1,1624.36,554.507Z"/><path class="bc" d="M1623.472,568.975c-4.856-.888-10.076-2.736-13.915-5.908-6-4.957-6.5-11.509-1.106-16.783,3.533-3.458,8.755-5.55,13.565-6.606a45.592,45.592,0,0,1,16.555-.486c-6.454,2.322-12.031,6.888-13.739,13.56-.116.428-.231.854-.345,1.282-.854-.337-1.711-.672-2.562-1.012a5.479,5.479,0,0,0-2.211,2.38,2.5,2.5,0,0,0,.072,2.209,7.57,7.57,0,0,0,2.126,2.16l-2.406,1.386,1.417.818q.915-.529,1.833-1.057c0,.027-.046.33-.055.423a17.736,17.736,0,0,0,.423,6.4C1623.242,568.222,1623.421,568.823,1623.472,568.975Z"/><path class="bd" d="M1624.487,554.034c-.042.159-.083.314-.127.473a3.874,3.874,0,0,0-1.42,1.863,1.9,1.9,0,0,0,.454,1.747,21.264,21.264,0,0,0-.638,2.8q-.92.526-1.833,1.057l-1.417-.818,2.406-1.386a7.57,7.57,0,0,1-2.126-2.16,2.5,2.5,0,0,1-.072-2.209,5.479,5.479,0,0,1,2.211-2.38C1622.776,553.362,1623.633,553.7,1624.487,554.034Z"/><path class="bc" d="M1624.487,554.034c.023.008.044.019.067.026a17.649,17.649,0,0,0,.33,7.289c1.28,5.095,5.012,10.964,11.987,15.779,13.2,9.111,31.01,9.983,41.858,3.678,4.856-2.821,7.937-6.72,9.178-11.091q-.834,3.087-1.656,6.172a16.8,16.8,0,0,1-2.126,4.8,18.611,18.611,0,0,1-1.163,1.6c-3.285,4.059-8.246,6.641-13.3,7.943-13.864,3.559-30.671-1.526-39.911-11.159a28.158,28.158,0,0,1-4.905-6.761,20.42,20.42,0,0,1-2.212-7.624,16.812,16.812,0,0,1,.07-3.351C1622.914,559.593,1623.195,558.962,1624.487,554.034Z"/><path class="bc" d="M1549.34,517.287c-.01.167-.013.333-.013.5v-7.639a12.013,12.013,0,0,0,.093,1.3,13.236,13.236,0,0,0,2.965,6.552,19.774,19.774,0,0,0,1.448,1.591,30.059,30.059,0,0,0,11.623,6.7c.191.066.849.281,1.065.342,11.555,3.586,26.713,2.98,37.32-2.592,5.587-2.9,10.8-7.758,10.8-14v7.74c.006,5.124-3.532,9.334-7.769,12.2-4.53,3.121-11.722,5.836-20.716,6.492h0a54.676,54.676,0,0,1-19.1-1.931c-4.74-1.383-9.839-3.825-13.313-7.3C1551,524.512,1549.167,521.124,1549.34,517.287Z"/><path class="bd" d="M1610.457,527.019c-1.414,4.244-5.087,7.527-8.978,9.772-14.05,8.114-37.427,7.164-49.307-2.084a50.374,50.374,0,0,0,19.158,3.73c8.466,1.322,18.418.321,26.126-4.036a35.609,35.609,0,0,0,9.417-4.413,22.975,22.975,0,0,0,3.582-2.972Z"/><path class="bc" d="M1598.953,562.522c-.024-.372-.018.139-.018-7.958a12.11,12.11,0,0,0,1.646,5.523,18.48,18.48,0,0,0,5.072,5.542c5.409,4.075,12.661,6.225,19.361,7.019a28.436,28.436,0,0,0,4.734,6.429c.618.644,1.21,1.195,1.784,1.711-9.494,0-21.183-2.606-27.966-9.184A13.861,13.861,0,0,1,1598.953,562.522Z"/><path class="bc" d="M1571.33,538.437a52.943,52.943,0,0,0,14.806-1.952,50.281,50.281,0,0,0,11.32-2.084C1589.788,538.735,1579.85,539.768,1571.33,538.437Z"/><path class="bc" d="M1539.025,519.125c-.008.153-.011.307-.011.457v-7.753a12.4,12.4,0,0,0,2.513,7.255c2.954,4.106,7.964,6.967,12.778,8.713l.006,0a32.282,32.282,0,0,0,12.742,6.749,54.307,54.307,0,0,0,19.083,1.936c-13.026,3.738-28.234,1.865-37.479-3.527-3.682-2.072-7.4-5.348-8.88-9.324A11.286,11.286,0,0,1,1539.025,519.125Z"/><path class="bc" d="M1549.327,510.03V503.2c.013-.01.023-.02.036-.031a12.928,12.928,0,0,0,2.936,6.967c9.474,11.945,36.674,14.741,52.778,5.474a22.613,22.613,0,0,0,6.574-5.438,12.677,12.677,0,0,0,2.991-7.893v7.753c0,6.26-5.238,11.127-10.8,14.012a47.454,47.454,0,0,1-20.215,4.814,53.332,53.332,0,0,1-18.17-2.564c-5-1.64-10.741-4.832-13.712-9.147A12.258,12.258,0,0,1,1549.327,510.03Z"/><path class="bd" d="M1611.672,494.42c3.859,4.865,4.067,10.578-.021,15.75a22.613,22.613,0,0,1-6.574,5.438c-16.1,9.267-43.3,6.471-52.778-5.474-2.966-3.738-3.913-8.16-1.921-12.6,1.68-3.733,4.955-6.548,8.535-8.6,10.966-6.3,27.475-7.148,39.952-2.8C1603.613,487.793,1608.557,490.495,1611.672,494.42Zm-5.266,14.356c3.345-4.233,3.213-8.936.015-12.967-7.774-9.8-30.135-12.148-43.428-4.517a18.643,18.643,0,0,0-5.43,4.488c-3.346,4.233-3.211,8.934-.016,12.965,7.785,9.814,30.149,12.143,43.431,4.517A18.7,18.7,0,0,0,1606.406,508.776Z"/><path class="bc" d="M1606.421,495.809c3.2,4.031,3.33,8.734-.015,12.967a18.7,18.7,0,0,1-5.428,4.486c-13.282,7.626-35.646,5.3-43.431-4.517-3.195-4.031-3.33-8.732.016-12.965a18.643,18.643,0,0,1,5.43-4.488C1576.286,483.661,1598.647,486.005,1606.421,495.809Zm-18.159,2.385q1.776-.07,3.546-.138a3.973,3.973,0,0,0-2.253-3.052,11.767,11.767,0,0,0-4.543-1.223c.044-.311.088-.623.133-.934q-1-.051-1.994-.1c-.047.311-.091.623-.135.934a14.239,14.239,0,0,0-5.235.82q-2.745,1.173-3.045,3.258c-.26,1.806,1.147,3.037,2.86,3.7a19.98,19.98,0,0,0,4.138,1.139q-.448,3.116-.9,6.228a5.687,5.687,0,0,1-3.257-1.327,3.523,3.523,0,0,1-1.059-2.38c-1.155.067-2.308.138-3.46.2a3.68,3.68,0,0,0,.973,2.64,6.185,6.185,0,0,0,2.531,1.658,19.053,19.053,0,0,0,4.036.857q-.14.977-.28,1.954,1,.051,1.993.1c.1-.659.19-1.318.286-1.977a12.477,12.477,0,0,0,6.006-1.179,4.48,4.48,0,0,0,2.728-3.283,3.27,3.27,0,0,0-1.625-3.188,9.074,9.074,0,0,0-2.442-1.1q-.8-.246-3.3-.738.4-2.818.809-5.64a5.681,5.681,0,0,1,2.492.934A2.577,2.577,0,0,1,1588.262,498.194Z"/><path class="bd" d="M1591.808,498.056q-1.772.066-3.546.138a2.577,2.577,0,0,0-1-1.828,5.681,5.681,0,0,0-2.492-.934q-.4,2.818-.809,5.64,2.507.492,3.3.738a9.074,9.074,0,0,1,2.442,1.1,3.27,3.27,0,0,1,1.625,3.188,4.48,4.48,0,0,1-2.728,3.283,12.477,12.477,0,0,1-6.006,1.179c-.1.659-.19,1.318-.286,1.977q-1-.047-1.993-.1.14-.976.28-1.954a19.053,19.053,0,0,1-4.036-.857,6.185,6.185,0,0,1-2.531-1.658,3.68,3.68,0,0,1-.973-2.64c1.152-.067,2.3-.138,3.46-.2a3.523,3.523,0,0,0,1.059,2.38,5.687,5.687,0,0,0,3.257,1.327q.448-3.113.9-6.228a19.98,19.98,0,0,1-4.138-1.139c-1.713-.667-3.12-1.9-2.86-3.7q.3-2.086,3.045-3.258a14.239,14.239,0,0,1,5.235-.82c.044-.311.088-.623.135-.934q1,.047,1.994.1c-.045.311-.089.623-.133.934a11.767,11.767,0,0,1,4.543,1.223A3.973,3.973,0,0,1,1591.808,498.056Zm-3.974,8.005a1.821,1.821,0,0,0-.667-1.754,9.435,9.435,0,0,0-3.476-1.332q-.429,2.979-.857,5.955a7.263,7.263,0,0,0,3.409-.834A2.8,2.8,0,0,0,1587.834,506.061Zm-5.83-5.334q.388-2.706.779-5.412a7.334,7.334,0,0,0-3.248.763,2.383,2.383,0,0,0-1.388,1.7C1577.882,499.6,1580.195,500.315,1582,500.727Z"/><path class="bc" d="M1587.167,504.307a1.821,1.821,0,0,1,.667,1.754,2.8,2.8,0,0,1-1.591,2.035,7.263,7.263,0,0,1-3.409.834q.429-2.979.857-5.955A9.435,9.435,0,0,1,1587.167,504.307Z"/><path class="bc" d="M1582.783,495.315q-.39,2.706-.779,5.412c-1.809-.412-4.122-1.124-3.857-2.954a2.383,2.383,0,0,1,1.388-1.7A7.334,7.334,0,0,1,1582.783,495.315Z"/><path class="bd" d="M1554.305,527.8c-4.814-1.746-9.824-4.607-12.778-8.713-3.729-5.182-3.383-11.179,1.55-16.363a25.844,25.844,0,0,1,7.3-5.186,11.521,11.521,0,0,0-1.051,4.742v.921c-6.224,5.373-6,12.392.426,17.62a14.525,14.525,0,0,0,3.431,5.855C1553.586,527.12,1554.279,527.771,1554.305,527.8Z"/><path class="bc" d="M1549.389,518.928a11.458,11.458,0,0,0,.364,1.89c-6.427-5.228-6.65-12.247-.426-17.62C1549.327,518.635,1549.3,518.31,1549.389,518.928Z"/><path class="bc" d="M1545.875,531.143a30.466,30.466,0,0,0,5.6,3.258c.665.309.667.28.693.306,11.88,9.248,35.257,10.2,49.307,2.084,3.891-2.245,7.564-5.528,8.978-9.772l0,0c.155-.155.488-.518.589-.628V531.2c0-.127,0-.254-.008-.384a11.441,11.441,0,0,1-1.2,5.49,15.151,15.151,0,0,1-2.2,3.291,20.414,20.414,0,0,1-1.509,1.56c-13.606,12.723-45.7,11.435-56.925-1.474a12.9,12.9,0,0,1-3.476-8.579v-.062Z"/><path class="bc" d="M1058.095,682.963v-6.832l.037-.031a12.922,12.922,0,0,0,2.935,6.967c9.475,11.945,36.675,14.741,52.778,5.474a22.622,22.622,0,0,0,6.575-5.438,12.682,12.682,0,0,0,2.99-7.893v7.753c0,6.26-5.237,11.127-10.8,14.011a47.437,47.437,0,0,1-20.215,4.815,53.321,53.321,0,0,1-18.169-2.564c-5-1.641-10.742-4.832-13.713-9.147A12.258,12.258,0,0,1,1058.095,682.963Z"/><path class="bd" d="M1120.441,667.353c3.858,4.865,4.066,10.578-.021,15.75a22.622,22.622,0,0,1-6.575,5.438c-16.1,9.267-43.3,6.471-52.778-5.474-2.965-3.738-3.912-8.16-1.92-12.6,1.68-3.732,4.955-6.547,8.534-8.6,10.967-6.3,27.475-7.148,39.953-2.795C1112.381,660.726,1117.326,663.428,1120.441,667.353Zm-5.267,14.356c3.346-4.233,3.213-8.937.016-12.968-7.774-9.8-30.136-12.147-43.428-4.516a18.645,18.645,0,0,0-5.43,4.488c-3.346,4.233-3.211,8.934-.016,12.965,7.784,9.814,30.149,12.143,43.431,4.516A18.691,18.691,0,0,0,1115.174,681.709Z"/><path class="bc" d="M1115.19,668.741c3.2,4.031,3.33,8.735-.016,12.968a18.691,18.691,0,0,1-5.427,4.485c-13.282,7.627-35.647,5.3-43.431-4.516-3.2-4.031-3.33-8.732.016-12.965a18.645,18.645,0,0,1,5.43-4.488C1085.054,656.594,1107.416,658.937,1115.19,668.741Zm-18.16,2.386q1.776-.07,3.546-.138a3.97,3.97,0,0,0-2.253-3.052,11.748,11.748,0,0,0-4.542-1.223l.132-.934q-1-.051-1.994-.1c-.046.311-.09.623-.134.934a14.2,14.2,0,0,0-5.236.82q-2.745,1.172-3.045,3.258c-.259,1.806,1.148,3.037,2.861,3.7a19.971,19.971,0,0,0,4.137,1.139q-.447,3.116-.895,6.227a5.683,5.683,0,0,1-3.258-1.326,3.534,3.534,0,0,1-1.059-2.38q-1.733.1-3.46.205a3.682,3.682,0,0,0,.974,2.64,6.191,6.191,0,0,0,2.53,1.658,19.06,19.06,0,0,0,4.037.857q-.141.977-.281,1.954,1,.051,1.994.1c.1-.659.189-1.318.285-1.978a12.469,12.469,0,0,0,6.007-1.178,4.483,4.483,0,0,0,2.728-3.283,3.273,3.273,0,0,0-1.625-3.188,9.127,9.127,0,0,0-2.443-1.1q-.8-.245-3.3-.737.4-2.819.81-5.64a5.687,5.687,0,0,1,2.492.934A2.577,2.577,0,0,1,1097.03,671.127Z"/><path class="bd" d="M1100.576,670.989q-1.772.066-3.546.138a2.577,2.577,0,0,0-1-1.828,5.687,5.687,0,0,0-2.492-.934q-.405,2.819-.81,5.64,2.508.49,3.3.737a9.127,9.127,0,0,1,2.443,1.1,3.273,3.273,0,0,1,1.625,3.188,4.483,4.483,0,0,1-2.728,3.283,12.469,12.469,0,0,1-6.007,1.178c-.1.66-.189,1.319-.285,1.978q-1-.046-1.994-.1.141-.977.281-1.954a19.06,19.06,0,0,1-4.037-.857,6.191,6.191,0,0,1-2.53-1.658,3.682,3.682,0,0,1-.974-2.64q1.73-.1,3.46-.205a3.534,3.534,0,0,0,1.059,2.38,5.683,5.683,0,0,0,3.258,1.326q.447-3.111.895-6.227a19.971,19.971,0,0,1-4.137-1.139c-1.713-.667-3.12-1.9-2.861-3.7q.3-2.088,3.045-3.258a14.2,14.2,0,0,1,5.236-.82c.044-.311.088-.623.134-.934q1,.047,1.994.1l-.132.934a11.748,11.748,0,0,1,4.542,1.223A3.97,3.97,0,0,1,1100.576,670.989Zm-3.974,8.005a1.818,1.818,0,0,0-.667-1.754,9.43,9.43,0,0,0-3.476-1.332q-.428,2.979-.856,5.954a7.261,7.261,0,0,0,3.408-.833A2.8,2.8,0,0,0,1096.6,678.994Zm-5.83-5.334q.39-2.706.779-5.412a7.318,7.318,0,0,0-3.247.763,2.382,2.382,0,0,0-1.389,1.7C1086.65,672.536,1088.963,673.247,1090.772,673.66Z"/><path class="bc" d="M1095.935,677.24a1.818,1.818,0,0,1,.667,1.754,2.8,2.8,0,0,1-1.591,2.035,7.261,7.261,0,0,1-3.408.833q.427-2.977.856-5.954A9.43,9.43,0,0,1,1095.935,677.24Z"/><path class="bc" d="M1091.551,668.248q-.39,2.706-.779,5.412c-1.809-.413-4.122-1.124-3.857-2.954a2.382,2.382,0,0,1,1.389-1.7A7.318,7.318,0,0,1,1091.551,668.248Z"/><path class="bc" d="M1385.672,821.164c6.287,8.478,4.667,18.121-4.282,23.322-8.979,5.207-23.618,4.454-34.458-3.026-5.742-3.964-8.815-8.794-9.869-12.989a13.888,13.888,0,0,1,2-11.525c2.468-3.566,7.171-6.832,14.146-7.963C1365.452,807,1379.121,812.329,1385.672,821.164Zm-10.089,9.179a4.119,4.119,0,0,0,1.76-3.7,6.321,6.321,0,0,0-1.983-3.556c.384-.221.766-.444,1.15-.665q-.686-.6-1.368-1.212c-.384.221-.766.441-1.15.664a11.959,11.959,0,0,0-4.792-2.333,8.331,8.331,0,0,0-5.907.841c-1.773,1.025-2.713,2.616-2.046,4.563a10.74,10.74,0,0,0,1.781,3.258q-3.828,2.211-7.652,4.42a3.143,3.143,0,0,1-.919-2.907,4.815,4.815,0,0,1,1.89-2.489l-2.791-1.809a5.518,5.518,0,0,0-2.242,2.644,3.87,3.87,0,0,0,.007,2.755,10.338,10.338,0,0,0,2.025,2.977l-2.406,1.389q.686.606,1.368,1.212l2.432-1.4a11.082,11.082,0,0,0,5.762,2.492,8.9,8.9,0,0,0,5.7-1.046,4.229,4.229,0,0,0,2.378-3.447,4.91,4.91,0,0,0-.571-2.261,21.544,21.544,0,0,0-1.612-2.468l6.93-4c1.262,1.615,1,2.913-.522,4.174Q1374.2,829.386,1375.583,830.343Z"/><path class="bd" d="M1377.343,826.644a4.119,4.119,0,0,1-1.76,3.7q-1.386-.954-2.775-1.911c1.524-1.261,1.784-2.559.522-4.174l-6.93,4a21.544,21.544,0,0,1,1.612,2.468,4.91,4.91,0,0,1,.571,2.261,4.229,4.229,0,0,1-2.378,3.447,8.9,8.9,0,0,1-5.7,1.046,11.082,11.082,0,0,1-5.762-2.492l-2.432,1.4q-.681-.607-1.368-1.212l2.406-1.389a10.338,10.338,0,0,1-2.025-2.977,3.87,3.87,0,0,1-.007-2.755,5.518,5.518,0,0,1,2.242-2.644l2.791,1.809a4.815,4.815,0,0,0-1.89,2.489,3.143,3.143,0,0,0,.919,2.907q3.824-2.211,7.652-4.42a10.74,10.74,0,0,1-1.781-3.258c-.667-1.947.273-3.538,2.046-4.563a8.331,8.331,0,0,1,5.907-.841,11.959,11.959,0,0,1,4.792,2.333c.384-.223.766-.443,1.15-.664q.681.608,1.368,1.212c-.384.221-.766.444-1.15.665A6.321,6.321,0,0,1,1377.343,826.644Zm-12.005.228q3.326-1.923,6.65-3.841c-3.613-2.484-7.27-.927-7.579,1.079A4.284,4.284,0,0,0,1365.338,826.872Zm-.2,5.773a5.114,5.114,0,0,0-1.075-3.035q-3.66,2.115-7.32,4.226a6.914,6.914,0,0,0,3.455,1.283,5.69,5.69,0,0,0,3.46-.7A2.658,2.658,0,0,0,1365.136,832.645Z"/><path class="bc" d="M1371.988,823.031q-3.326,1.918-6.65,3.841a4.284,4.284,0,0,1-.929-2.762C1364.718,822.1,1368.375,820.547,1371.988,823.031Z"/><path class="bc" d="M1364.061,829.61a5.114,5.114,0,0,1,1.075,3.035,2.658,2.658,0,0,1-1.48,1.77,5.69,5.69,0,0,1-3.46.7,6.914,6.914,0,0,1-3.455-1.283Q1360.4,831.723,1364.061,829.61Z"/><path class="bd" d="M1305.539,821.743c-.337-8.773,10.071-16.659,25.066-18.722a54.626,54.626,0,0,1,22.5,1.562,35.546,35.546,0,0,0-7.93,1.789,45.59,45.59,0,0,0-16.555.485c-4.81,1.056-10.033,3.148-13.565,6.606-5.391,5.274-4.9,11.826,1.106,16.784,3.839,3.171,9.058,5.019,13.915,5.907a21.276,21.276,0,0,0,.776,2.072c.278.667.639,1.349.766,1.6-6.7-.794-13.952-2.943-19.361-7.019a18.488,18.488,0,0,1-5.072-5.541A12.12,12.12,0,0,1,1305.539,821.743Z"/><path class="bd" d="M1333.918,814.527c3.035-4.389,8.787-8.306,17.183-9.671,14.632-2.4,31.372,3.921,39.436,14.795,7.664,10.338,5.629,22.041-5.2,28.334s-28.653,5.433-41.857-3.678c-6.975-4.815-10.707-10.684-11.987-15.779A16.847,16.847,0,0,1,1333.918,814.527Zm47.472,29.959c8.949-5.2,10.569-14.844,4.282-23.322-6.551-8.835-20.22-14.167-32.461-12.181-6.975,1.131-11.678,4.4-14.146,7.963a13.888,13.888,0,0,0-2,11.525c1.054,4.2,4.127,9.025,9.869,12.989C1357.772,848.94,1372.411,849.693,1381.39,844.486Z"/><path class="bc" d="M1330.964,821.686q-.483,1.806-.966,3.611a1.9,1.9,0,0,1-.454-1.747A3.872,3.872,0,0,1,1330.964,821.686Z"/><path class="bc" d="M1330.076,836.154c-4.857-.888-10.076-2.736-13.915-5.907-6-4.958-6.5-11.51-1.106-16.784,3.532-3.458,8.755-5.55,13.565-6.606a45.59,45.59,0,0,1,16.555-.485c-6.455,2.321-12.031,6.887-13.739,13.559-.117.429-.231.854-.345,1.283-.854-.338-1.711-.673-2.562-1.013a5.484,5.484,0,0,0-2.212,2.381,2.5,2.5,0,0,0,.073,2.208,7.557,7.557,0,0,0,2.126,2.16l-2.406,1.386,1.417.818q.915-.529,1.832-1.057c0,.027-.045.331-.054.423a17.735,17.735,0,0,0,.423,6.4C1329.846,835.4,1330.025,836,1330.076,836.154Z"/><path class="bd" d="M1331.091,821.214c-.042.158-.083.314-.127.472a3.872,3.872,0,0,0-1.42,1.864A1.9,1.9,0,0,0,1330,825.3a21.231,21.231,0,0,0-.639,2.8q-.918.527-1.832,1.057l-1.417-.818,2.406-1.386a7.557,7.557,0,0,1-2.126-2.16,2.5,2.5,0,0,1-.073-2.208,5.484,5.484,0,0,1,2.212-2.381C1329.38,820.541,1330.237,820.876,1331.091,821.214Z"/><path class="bc" d="M1331.091,821.214c.023.007.044.018.067.026a17.628,17.628,0,0,0,.33,7.288c1.28,5.095,5.012,10.964,11.987,15.779,13.2,9.111,31.01,9.983,41.857,3.678,4.857-2.821,7.938-6.72,9.179-11.091q-.834,3.087-1.656,6.172a16.789,16.789,0,0,1-2.126,4.8,19.045,19.045,0,0,1-1.163,1.605c-3.286,4.058-8.246,6.64-13.3,7.942-13.865,3.559-30.672-1.526-39.911-11.159a28.161,28.161,0,0,1-4.906-6.761,20.408,20.408,0,0,1-2.211-7.624,16.813,16.813,0,0,1,.07-3.351C1329.518,826.772,1329.8,826.141,1331.091,821.214Z"/><path class="bc" d="M1305.557,829.7c-.024-.372-.018.139-.018-7.958a12.12,12.12,0,0,0,1.646,5.524,18.488,18.488,0,0,0,5.072,5.541c5.409,4.076,12.661,6.225,19.361,7.019a28.435,28.435,0,0,0,4.734,6.429c.618.644,1.21,1.2,1.784,1.711-9.494,0-21.183-2.6-27.966-9.183A13.858,13.858,0,0,1,1305.557,829.7Z"/></g></svg>