<svg id="flat" height="512" viewBox="0 0 128 128" width="512" xmlns="http://www.w3.org/2000/svg"><path d="m25.7 98.5c-1.186-.338-2.426-.624-3.625-.9a34.972 34.972 0 0 1 -7.966-2.526c-2.929-1.474-5.74-4.226-6.55-7.556a11.347 11.347 0 0 1 -4.889-3.486 14.572 14.572 0 0 1 -3.394-6.332 10.335 10.335 0 0 1 .464-6.229 13.714 13.714 0 0 1 -.315-2.879 21.475 21.475 0 0 1 4.522-13.446l1.577 1.23a19.468 19.468 0 0 0 -4.1 12.19c0 .211.009.417.02.617a3.538 3.538 0 0 1 1.628-.343 10.99 10.99 0 0 1 3.384.257 4.381 4.381 0 0 1 2.966 2.503 3.583 3.583 0 0 1 -.3 3.063 4.246 4.246 0 0 1 -2.93 2.091 5.491 5.491 0 0 1 -5.146-2.326 8.826 8.826 0 0 0 .186 2.827 12.59 12.59 0 0 0 2.947 5.454 10.437 10.437 0 0 0 3.154 2.561c.007-.178.021-.356.04-.535a5.486 5.486 0 0 1 3.147-4.62 3.921 3.921 0 0 1 3.454.367 3.167 3.167 0 0 1 1.543 2.432 3.735 3.735 0 0 1 -.4 1.911 5.846 5.846 0 0 1 -5.36 3.055 10.819 10.819 0 0 0 5.249 5.4 32.95 32.95 0 0 0 7.517 2.364c1.224.283 2.489.574 3.724.926zm-16.369-12.638a4.011 4.011 0 0 0 3.983-1.909 1.8 1.8 0 0 0 .209-.891 1.215 1.215 0 0 0 -.612-.886 1.941 1.941 0 0 0 -1.658-.2 3.571 3.571 0 0 0 -1.892 2.977 6.032 6.032 0 0 0 -.03.909zm-7.468-14.2a5.766 5.766 0 0 0 .628 1.355 3.588 3.588 0 0 0 3.368 1.771 2.258 2.258 0 0 0 1.523-1.113 1.612 1.612 0 0 0 .172-1.355 2.43 2.43 0 0 0 -1.645-1.3 9.287 9.287 0 0 0 -2.772-.182 2.056 2.056 0 0 0 -.742.1 1.48 1.48 0 0 0 -.413.5c-.041.08-.082.15-.119.221z" fill="#2f3a5a"/><path d="m127.5 57.853-3.2 5.207a3.176 3.176 0 0 1 -3.352 1.446l-24.411-5.065a3.179 3.179 0 0 1 -2.525-2.922l-.356-5.973-.046-.755c4.511-9.02-4.509-10.523-4.509-10.523h-47.556s-9.021 1.5-4.509 10.523l-.062 1.009-.341 5.717a3.177 3.177 0 0 1 -2.525 2.922l-24.408 5.067a3.175 3.175 0 0 1 -3.35-1.446l-3.206-5.207s-3.006-12.162 5.739-16.944c0 0 19.432-18.015 53.953-17.172h5.034c34.482-.818 53.892 17.175 53.892 17.175 8.745 4.779 5.738 16.941 5.738 16.941z" fill="#43567c"/><g opacity=".75"><path d="m127.5 57.853-3.2 5.207a3.175 3.175 0 0 1 -3.351 1.446l-24.411-5.064a3.178 3.178 0 0 1 -2.525-2.923l-.4-6.728z" fill="#384868"/></g><g opacity=".75"><path d="m3.144 57.853 3.205 5.207a3.175 3.175 0 0 0 3.351 1.446l24.408-5.064a3.179 3.179 0 0 0 2.524-2.923l.4-6.728z" fill="#384868"/></g><g opacity=".5"><path d="m97.062 51.36-3.406-.814-.046-.755c4.511-9.02-4.509-10.523-4.509-10.523h-47.556s-9.021 1.5-4.509 10.523l-.062 1.009-2.334.558s-4.08-10.152 2.56-12.427c6.366-2.184 18.312-2.177 28.649-1.8 10.34-.374 22.285-.381 28.652 1.8 6.641 2.275 2.561 12.429 2.561 12.429z" fill="#384868"/></g><path d="m104.53 72.321c-13.939-8.2-12.572-16.945-13.666-27.6-.683-6.662-3.5-7.452-5.519-7.107a5.458 5.458 0 0 0 -2.7 1.362c-3.934 3.531-9.175 4.385-12.857 4.485-2.627.071-5.949.011-8.164.01-3.691 0-9.4-.714-13.615-4.495a5.466 5.466 0 0 0 -2.7-1.362c-2.018-.345-4.837.445-5.52 7.107-1.093 10.659.273 19.405-13.665 27.6 0 0-7.63 5.814-5.332 23.6a5.866 5.866 0 0 0 4.1 4.854c3.458 1.06 9.717 2.4 19.946 2.8 1.541.06 13.129.729 19.132.721 6.223-.008 19.276-.628 21.437-.7 10.473-.374 16.855-1.737 20.362-2.812a5.866 5.866 0 0 0 4.1-4.85c2.293-17.798-5.339-23.613-5.339-23.613z" fill="#43567c"/><path d="m109.861 95.926a5.862 5.862 0 0 1 -4.1 4.849c-3.507 1.076-9.889 2.439-20.362 2.811-2.16.079-15.214.7-21.436.707-6 .006-17.592-.663-19.133-.722-10.23-.394-16.489-1.737-19.946-2.8a5.859 5.859 0 0 1 -4.095-4.854 43.128 43.128 0 0 1 -.089-11.536c.026.239.057.477.088.72a5.866 5.866 0 0 0 4.095 4.855c3.457 1.059 9.716 2.4 19.946 2.8 1.541.059 13.129.729 19.133.72 6.222-.007 19.276-.628 21.436-.7 10.473-.374 16.855-1.737 20.362-2.811a5.866 5.866 0 0 0 4.1-4.85c.033-.245.061-.49.09-.731a43.354 43.354 0 0 1 -.089 11.542z" fill="#384868"/><circle cx="65.323" cy="57.009" fill="#dbe2eb" r="2.861"/><circle cx="65.323" cy="79.628" fill="#dbe2eb" r="2.861"/><circle cx="65.323" cy="68.318" fill="#384868" r="18.851"/><g fill="#dbe2eb"><circle cx="77.302" cy="68.318" r="3.031"/><circle cx="53.343" cy="68.318" r="3.031"/><circle cx="65.323" cy="56.339" r="3.031"/><circle cx="65.323" cy="80.298" r="3.031"/><circle cx="73.794" cy="76.789" r="3.031" transform="matrix(.707 -.707 .707 .707 -32.685 74.671)"/><circle cx="56.852" cy="59.848" r="3.031" transform="matrix(.707 -.707 .707 .707 -25.667 57.729)"/><circle cx="73.794" cy="59.848" r="3.031" transform="matrix(.707 -.707 .707 .707 -20.705 69.709)"/><circle cx="56.852" cy="76.789" r="3.031" transform="matrix(.707 -.707 .707 .707 -37.647 62.691)"/></g></svg>