<svg id="flat" height="512" viewBox="0 0 128 128" width="512" xmlns="http://www.w3.org/2000/svg"><rect fill="#c79d8a" height="128" rx="4.932" width="128" y="-.001"/><g opacity=".5"><path d="m128 4.926v118.148a4.938 4.938 0 0 1 -4.932 4.932h-118.135a4.939 4.939 0 0 1 -4.454-2.821h117.887a4.937 4.937 0 0 0 4.932-4.931v-118.134a4.776 4.776 0 0 0 -.492-2.126h.261a4.938 4.938 0 0 1 4.933 4.932z" fill="#a67f74"/></g><g fill="#2f3a5a"><path d="m44.447 118.669a1 1 0 0 1 -1-.994l-.247-39.118a1 1 0 0 1 .994-1.007h.006a1 1 0 0 1 1 .994l.251 39.119a1 1 0 0 1 -.993 1.006z"/><path d="m52.742 89.744a1 1 0 0 1 -.766-.358l-7.734-9.225-6.574 8.812a1 1 0 0 1 -1.6-1.2l7.33-9.824a1 1 0 0 1 1.567-.044l8.543 10.195a1 1 0 0 1 -.766 1.643z"/><path d="m22.727 118.669a1 1 0 0 1 -1-.994l-.251-39.118a1 1 0 0 1 .993-1.007h.007a1 1 0 0 1 1 .994l.251 39.119a1 1 0 0 1 -.994 1.006z"/><path d="m31.022 89.744a1 1 0 0 1 -.767-.358l-7.734-9.225-6.574 8.812a1 1 0 1 1 -1.6-1.2l7.329-9.824a1 1 0 0 1 1.568-.044l8.544 10.195a1 1 0 0 1 -.766 1.643z"/></g><path d="m41.969-.001h43.466v29.429h-43.466z" fill="#e1e6e9"/><path d="m110.622 89.891h-30.937a1 1 0 0 1 0-2h30.937a1 1 0 0 1 0 2z" fill="#a67f74"/><path d="m110.622 99.109h-30.937a1 1 0 0 1 0-2h30.937a1 1 0 0 1 0 2z" fill="#a67f74"/><path d="m110.622 108.328h-16.775a1 1 0 0 1 0-2h16.775a1 1 0 0 1 0 2z" fill="#a67f74"/></svg>