<svg id="flat" height="512" viewBox="0 0 128 128" width="512" xmlns="http://www.w3.org/2000/svg"><path d="m64 17.656-52.469 21.818 52.469 21.817 52.469-21.817z" fill="#ad7e6d"/><path d="m64 61.291-52.469-21.817v64.482l52.469 21.818 52.469-21.818v-64.482z" fill="#b58372"/><path d="m64 61.291-52.469-21.817v64.482l52.469 21.818z" fill="#c08e78"/><g fill="#c79d8a"><path d="m64 61.291 12.064 23.169 48.902-23.092-8.497-21.894z"/><path d="m64 61.291-12.064 22.083-48.902-23.092 8.497-20.808z"/><path d="m64 17.656 11.674-15.43 52.326 18.954-11.531 18.294z"/><path d="m64 17.656-11.674-15.43-52.326 18.954 11.531 18.294z"/></g><path d="m35.154 109.316a1 1 0 0 1 -1-1l-.14-27.1a1 1 0 0 1 .995-1h.005a1 1 0 0 1 1 .994l.14 27.1a1 1 0 0 1 -1 1z" fill="#2f3a5a"/><path d="m39.777 91.12a1 1 0 0 1 -.882-.529l-4.041-7.555-3.139 4a1 1 0 1 1 -1.572-1.236l4.085-5.2a1 1 0 0 1 1.668.146l4.762 8.906a1 1 0 0 1 -.41 1.348.986.986 0 0 1 -.471.12z" fill="#2f3a5a"/><path d="m23.05 104.6a1 1 0 0 1 -1-1l-.14-27.1a1 1 0 0 1 .994-1.006h.006a1 1 0 0 1 1 1l.14 27.1a1 1 0 0 1 -1 1.006z" fill="#2f3a5a"/><path d="m27.673 86.4a1 1 0 0 1 -.883-.528l-4.04-7.555-3.139 4a1 1 0 1 1 -1.572-1.235l4.085-5.2a.989.989 0 0 1 .876-.382 1 1 0 0 1 .8.524l4.762 8.906a1 1 0 0 1 -.881 1.471z" fill="#2f3a5a"/><path d="m95.283 92.757a1 1 0 0 1 -.353-1.936l14.461-5.456a1 1 0 1 1 .706 1.871l-14.461 5.456a1 1 0 0 1 -.353.065z" fill="#967169"/><path d="m95.283 98.14a1 1 0 0 1 -.353-1.94l14.461-5.456a1 1 0 1 1 .706 1.871l-14.461 5.46a1 1 0 0 1 -.353.065z" fill="#967169"/><path d="m101.611 101.135a1 1 0 0 1 -.353-1.936l8.133-3.068a1 1 0 1 1 .709 1.869l-8.133 3.068a1 1 0 0 1 -.356.067z" fill="#967169"/></svg>