<svg id="flat" height="512" viewBox="0 0 128 128" width="512" xmlns="http://www.w3.org/2000/svg"><path d="m57.682 24.294h12.636v88.771h-12.636z" fill="#c8cbd2"/><path d="m107.051 121.06h14.239v5.562h-14.239z" fill="#c8cbd2"/><path d="m6.71 121.06h14.239v5.562h-14.239z" fill="#c8cbd2"/><path d="m0 109.756h128v12.865h-128z" fill="#e1e6e9"/><rect fill="#43567c" height="34.245" rx="2.053" width="51.984" x="38.008" y="1.378"/><path d="m53.038-1.331h21.924v39.663h-21.924z" fill="#84879c" transform="matrix(0 1 -1 0 82.5 -45.5)"/><rect fill="#c79d8a" height="64.612" rx="2.053" width="79.03" x="24.485" y="45.143"/><path d="m50.448 105.275a1 1 0 0 1 -1-.993l-.148-22.572a1 1 0 0 1 1-1.01 1 1 0 0 1 1 .994l.145 22.571a1 1 0 0 1 -.994 1.006z" fill="#2f3a5a"/><path d="m55.234 88.586a1 1 0 0 1 -.766-.357l-4.119-4.914-3.474 4.656a1 1 0 0 1 -1.6-1.2l4.23-5.668a1 1 0 0 1 .773-.4.961.961 0 0 1 .794.357l4.928 5.883a1 1 0 0 1 -.766 1.643z" fill="#2f3a5a"/><path d="m37.915 105.275a1 1 0 0 1 -1-.993l-.145-22.572a1 1 0 0 1 .994-1.006h.006a1 1 0 0 1 1 .994l.145 22.571a1 1 0 0 1 -.994 1.006z" fill="#2f3a5a"/><path d="m42.7 88.586a1 1 0 0 1 -.767-.357l-4.119-4.914-3.473 4.656a1 1 0 0 1 -1.6-1.2l4.228-5.668a1 1 0 0 1 .774-.4.973.973 0 0 1 .794.357l4.931 5.881a1 1 0 0 1 -.765 1.643z" fill="#2f3a5a"/><path d="m55.058 45.143h17.883v10.002h-17.883z" fill="#e1e6e9"/><g fill="#43567c"><path d="m53 23.692h-4.326a1 1 0 0 1 -1-1v-8.384a1 1 0 0 1 1-1h4.326a1 1 0 0 1 1 1v8.384a1 1 0 0 1 -1 1zm-3.322-2h2.322v-6.384h-2.326z"/><path d="m60.528 23.692h-4.323a1 1 0 0 1 -1-1v-8.384a1 1 0 0 1 1-1h4.323a1 1 0 0 1 1 1v8.384a1 1 0 0 1 -1 1zm-3.323-2h2.323v-6.384h-2.323z"/><path d="m60.528 19.5h-4.323a1 1 0 0 1 0-2h4.323a1 1 0 0 1 0 2z"/><path d="m71.8 23.692h-4.328a1 1 0 0 1 -1-1v-8.384a1 1 0 0 1 1-1h4.328a1 1 0 0 1 1 1v8.384a1 1 0 0 1 -1 1zm-3.323-2h2.323v-6.384h-2.328z"/><path d="m79.326 23.692h-4.326a1 1 0 0 1 -1-1v-8.384a1 1 0 0 1 1-1h4.322a1 1 0 0 1 1 1v8.384a1 1 0 0 1 -.996 1zm-3.322-2h2.322v-6.384h-2.326z"/><path d="m64 17.825a1 1 0 0 1 -1-1v-1.432a1 1 0 0 1 2 0v1.432a1 1 0 0 1 -1 1z"/><path d="m64 22.608a1 1 0 0 1 -1-1v-1.433a1 1 0 1 1 2 0v1.433a1 1 0 0 1 -1 1z"/></g></svg>