<svg id="flat" height="512" viewBox="0 0 128 128" width="512" xmlns="http://www.w3.org/2000/svg"><rect fill="#43567c" height="128" rx="9.883" width="100.73" x="13.635"/><path d="m102.339 15.027v22.8a2.6 2.6 0 0 1 -2.6 2.6h-71.48a2.6 2.6 0 0 1 -2.6-2.6v-22.8a2.6 2.6 0 0 1 2.6-2.6h71.481a2.6 2.6 0 0 1 2.599 2.6z" fill="#6bb3d9"/><path d="m27.6 55.232h11.362a1.938 1.938 0 0 1 1.938 1.937v11.367a1.937 1.937 0 0 1 -1.937 1.937h-11.363a1.938 1.938 0 0 1 -1.938-1.938v-11.366a1.938 1.938 0 0 1 1.938-1.937z" fill="#bac2d3"/><rect fill="#c7d0e0" height="11.129" rx="1.415" width="11.129" x="27.715" y="57.288"/><rect fill="#bac2d3" height="15.242" rx="1.938" width="15.242" x="46.139" y="55.232"/><rect fill="#c7d0e0" height="11.129" rx="1.415" width="11.129" x="48.195" y="57.288"/><path d="m68.557 55.232h11.367a1.938 1.938 0 0 1 1.938 1.938v11.366a1.937 1.937 0 0 1 -1.937 1.937h-11.368a1.938 1.938 0 0 1 -1.938-1.938v-11.366a1.938 1.938 0 0 1 1.938-1.937z" fill="#bac2d3"/><rect fill="#c7d0e0" height="11.129" rx="1.415" width="11.129" x="68.676" y="57.288"/><rect fill="#bac2d3" height="15.242" rx="1.938" width="15.242" x="87.1" y="55.232"/><rect fill="#c7d0e0" height="11.129" rx="1.415" width="11.129" x="89.157" y="57.288"/><path d="m27.6 75.706h11.362a1.938 1.938 0 0 1 1.938 1.938v11.366a1.937 1.937 0 0 1 -1.937 1.937h-11.363a1.938 1.938 0 0 1 -1.938-1.938v-11.365a1.938 1.938 0 0 1 1.938-1.938z" fill="#bac2d3"/><rect fill="#c7d0e0" height="11.129" rx="1.415" width="11.129" x="27.715" y="77.763"/><path d="m48.076 75.706h11.367a1.938 1.938 0 0 1 1.938 1.938v11.366a1.937 1.937 0 0 1 -1.937 1.937h-11.368a1.938 1.938 0 0 1 -1.938-1.938v-11.365a1.938 1.938 0 0 1 1.938-1.938z" fill="#bac2d3"/><rect fill="#c7d0e0" height="11.129" rx="1.415" width="11.129" x="48.195" y="77.763"/><path d="m68.557 75.706h11.367a1.938 1.938 0 0 1 1.938 1.938v11.366a1.937 1.937 0 0 1 -1.937 1.937h-11.368a1.938 1.938 0 0 1 -1.938-1.938v-11.365a1.938 1.938 0 0 1 1.938-1.938z" fill="#bac2d3"/><rect fill="#c7d0e0" height="11.129" rx="1.415" width="11.129" x="68.676" y="77.763"/><path d="m89.038 75.706h11.362a1.938 1.938 0 0 1 1.938 1.938v11.366a1.937 1.937 0 0 1 -1.937 1.937h-11.363a1.938 1.938 0 0 1 -1.938-1.937v-11.366a1.938 1.938 0 0 1 1.938-1.938z" fill="#bac2d3"/><rect fill="#c7d0e0" height="11.129" rx="1.415" width="11.129" x="89.157" y="77.763"/><path d="m27.6 96.181h11.362a1.938 1.938 0 0 1 1.938 1.937v11.367a1.937 1.937 0 0 1 -1.937 1.937h-11.363a1.938 1.938 0 0 1 -1.938-1.938v-11.366a1.938 1.938 0 0 1 1.938-1.937z" fill="#bac2d3"/><rect fill="#c7d0e0" height="11.129" rx="1.415" width="11.129" x="27.715" y="98.237"/><rect fill="#bac2d3" height="15.242" rx="1.938" width="15.242" x="46.139" y="96.181"/><rect fill="#c7d0e0" height="11.129" rx="1.415" width="11.129" x="48.195" y="98.237"/><path d="m68.557 96.181h11.367a1.938 1.938 0 0 1 1.938 1.938v11.367a1.937 1.937 0 0 1 -1.937 1.937h-11.368a1.938 1.938 0 0 1 -1.938-1.938v-11.367a1.938 1.938 0 0 1 1.938-1.937z" fill="#bac2d3"/><rect fill="#c7d0e0" height="11.129" rx="1.415" width="11.129" x="68.676" y="98.237"/><path d="m89.038 96.181h11.362a1.938 1.938 0 0 1 1.938 1.938v11.367a1.937 1.937 0 0 1 -1.937 1.937h-11.363a1.938 1.938 0 0 1 -1.938-1.938v-11.367a1.938 1.938 0 0 1 1.938-1.937z" fill="#bac2d3"/><rect fill="#c7d0e0" height="11.129" rx="1.415" width="11.129" x="89.157" y="98.237"/><g fill="#fff" opacity=".25"><path d="m65.127 12.428-18.63 27.998h-3.417l18.617-27.998z"/><path d="m78.366 12.428-18.631 27.998h-8.769l18.63-27.998z"/></g></svg>