<svg id="flat" height="512" viewBox="0 0 128 128" width="512" xmlns="http://www.w3.org/2000/svg"><g fill="#e1e6e9"><path d="m97.962 42.23a.988.988 0 0 0 -.981-.886h-6.236a.986.986 0 0 0 -.98.886 19.34 19.34 0 0 0 -.106 2.03c0 5.057 1.882 9.156 4.2 9.156s4.2-4.1 4.2-9.156a19.614 19.614 0 0 0 -.097-2.03z"/><path d="m115.445 51.16a.954.954 0 0 0 -.949-.858h-6.039a.955.955 0 0 0 -.949.858 18.661 18.661 0 0 0 -.1 1.966c0 4.9 1.823 8.865 4.072 8.865s4.071-3.969 4.071-8.865a18.661 18.661 0 0 0 -.106-1.966z"/><path d="m30.038 42.23a.988.988 0 0 1 .981-.886h6.236a.986.986 0 0 1 .98.886 19.34 19.34 0 0 1 .106 2.03c0 5.057-1.882 9.156-4.2 9.156s-4.205-4.1-4.205-9.156a19.614 19.614 0 0 1 .102-2.03z"/><path d="m12.555 51.16a.954.954 0 0 1 .945-.86h6.039a.955.955 0 0 1 .949.858 18.661 18.661 0 0 1 .1 1.966c0 4.9-1.823 8.865-4.072 8.865s-4.071-3.969-4.071-8.865a18.661 18.661 0 0 1 .11-1.964z"/></g><path d="m125.087 63.407-52.32-28.326-1.277 28.326 52.71 11.431a1.294 1.294 0 0 0 1.568-1.265v-9.028a1.293 1.293 0 0 0 -.681-1.138z" fill="#8ccfb5"/><path d="m2.913 63.407 52.32-28.326 1.277 28.326-52.71 11.431a1.294 1.294 0 0 1 -1.568-1.265v-9.028a1.293 1.293 0 0 1 .681-1.138z" fill="#8ccfb5"/><path d="m95.551 110.512-27.023-14.63-.659 14.63 27.222 5.9a.669.669 0 0 0 .81-.654v-4.658a.668.668 0 0 0 -.35-.588z" fill="#8ccfb5"/><path d="m32.449 110.512 27.023-14.63.659 14.63-27.222 5.9a.669.669 0 0 1 -.81-.654v-4.658a.668.668 0 0 1 .35-.588z" fill="#8ccfb5"/><path d="m64 0c-7.656 0-13.862 9.131-13.862 40.575s6.206 80.451 13.862 80.451 13.862-49.007 13.862-80.451-6.206-40.575-13.862-40.575z" fill="#e1e6e9"/><path d="m71.875 22.665a9.232 9.232 0 0 0 -15.75 0c.174-4.949 3.638-8.9 7.875-8.9s7.7 3.951 7.875 8.9z" fill="#8ccfb5"/><ellipse cx="64" cy="115.066" fill="#8ccfb5" rx="1.775" ry="12.934"/></svg>