<svg id="flat" height="512" viewBox="0 0 128 128" width="512" xmlns="http://www.w3.org/2000/svg"><rect fill="#a67f74" height="115.566" rx="6.092" width="86.741" x="20.63" y="12.434"/><path d="m30.488 21.639h67.024v97.157h-67.024z" fill="#e1e6e9"/><path d="m80.78 8.648h-8.5v-6.724a1.924 1.924 0 0 0 -1.925-1.924h-12.71a1.924 1.924 0 0 0 -1.924 1.924v6.724h-8.5a2.459 2.459 0 0 0 -2.458 2.458v13.678a2.459 2.459 0 0 0 2.458 2.458h33.559a2.459 2.459 0 0 0 2.458-2.458v-13.678a2.459 2.459 0 0 0 -2.458-2.458z" fill="#43567c"/><path d="m39.398 38.286h14.705v14.705h-14.705z" fill="#ef5361"/><path d="m39.398 65.186h14.705v14.705h-14.705z" fill="#ef5361"/><path d="m39.398 92.085h14.705v14.705h-14.705z" fill="#ef5361"/><g fill="#bac2d3"><path d="m87.876 43.164h-26.5a1 1 0 0 1 0-2h26.5a1 1 0 0 1 0 2z"/><path d="m79.312 50.112h-17.937a1 1 0 0 1 0-2h17.937a1 1 0 0 1 0 2z"/><path d="m87.876 70.064h-26.5a1 1 0 0 1 0-2h26.5a1 1 0 0 1 0 2z"/><path d="m79.312 77.012h-17.937a1 1 0 0 1 0-2h17.937a1 1 0 1 1 0 2z"/><path d="m87.876 96.964h-26.5a1 1 0 0 1 0-2h26.5a1 1 0 0 1 0 2z"/><path d="m79.312 103.912h-17.937a1 1 0 0 1 0-2h17.937a1 1 0 0 1 0 2z"/></g><path d="m46.02 48.444a1 1 0 0 1 -.708-.293l-2.149-2.151a1 1 0 0 1 1.414-1.414l1.443 1.444 2.9-2.905a1 1 0 1 1 1.414 1.415l-3.611 3.611a1 1 0 0 1 -.703.293z" fill="#e1e6e9"/><path d="m46.02 75.344a1 1 0 0 1 -.708-.293l-2.149-2.151a1 1 0 1 1 1.414-1.414l1.443 1.444 2.9-2.905a1 1 0 1 1 1.414 1.414l-3.611 3.612a1 1 0 0 1 -.703.293z" fill="#e1e6e9"/><path d="m46.02 102.244a1 1 0 0 1 -.708-.293l-2.149-2.151a1 1 0 1 1 1.414-1.414l1.443 1.444 2.9-2.905a1 1 0 0 1 1.414 1.414l-3.611 3.612a1 1 0 0 1 -.703.293z" fill="#e1e6e9"/></svg>