<svg id="flat" height="512" viewBox="0 0 128 128" width="512" xmlns="http://www.w3.org/2000/svg"><path d="m50.112 6.008-21.908 34.847 17.86 11.037 29.534-47.121z" fill="#477ea8"/><path d="m99.395 51.895.087-33.025-8.089 6.272-15.795-20.371-25.617 1.225 24.82 32.011-7.412 5.747z" fill="#6bb3d9"/><path d="m127.917 89.583-16.549-37.688-19.158 8.589 22.429 50.888z" fill="#477ea8"/><path d="m62.281 104.625 27.285 18.604-.652-10.215 25.725-1.642 13.361-21.891-40.424 2.581-.597-9.36z" fill="#6bb3d9"/><path d="m10.909 115.076 41.925.542-.276-21.348-51.672-.388z" fill="#477ea8"/><path d="m34.406 51.97-30.536 12.576 8.893 5.067-12.763 22.397 10.949 23.191 20.055-35.193 8.148 4.644z" fill="#6bb3d9"/></svg>