<svg id="flat" height="512" viewBox="0 0 128 128" width="512" xmlns="http://www.w3.org/2000/svg"><rect fill="#ddb087" height="89.723" rx="2.922" width="109.186" x="3.125" y="19.139"/><path d="m112.311 30.615v-8.554a2.922 2.922 0 0 0 -2.922-2.922h-103.342a2.922 2.922 0 0 0 -2.922 2.922v8.554z" fill="#bf9a71"/><rect fill="#ddb087" height="22.479" rx="2.922" width="115.436" y="5.522"/><g fill="#2f3a5a"><path d="m38.534 104.15a1.007 1.007 0 0 1 -1.007-1l-.184-28.58a1.006 1.006 0 0 1 1-1.014h.006a1.007 1.007 0 0 1 1.008 1l.184 28.578a1.008 1.008 0 0 1 -1 1.015z"/><path d="m44.594 83.018a1.006 1.006 0 0 1 -.773-.36l-5.421-6.471-4.6 6.157a1.008 1.008 0 0 1 -1.616-1.206l5.354-7.177a1.01 1.01 0 0 1 .78-.405.966.966 0 0 1 .8.36l6.243 7.447a1.008 1.008 0 0 1 -.772 1.655z"/><path d="m19.744 104.15a1.008 1.008 0 0 1 -1.008-1l-.184-28.58a1.007 1.007 0 0 1 1-1.014h.007a1.007 1.007 0 0 1 1.008 1l.184 28.578a1.008 1.008 0 0 1 -1 1.015z"/><path d="m25.8 83.018a1 1 0 0 1 -.773-.36l-5.425-6.471-4.592 6.157a1.008 1.008 0 0 1 -1.61-1.206l5.354-7.177a1.008 1.008 0 0 1 .779-.405.972.972 0 0 1 .8.36l6.243 7.447a1.008 1.008 0 0 1 -.772 1.655z"/></g><circle cx="110.898" cy="105.376" fill="#dbe2eb" r="16.094"/><path d="m110.9 122.478a17.1 17.1 0 1 1 17.1-17.1 17.121 17.121 0 0 1 -17.1 17.1zm0-32.188a15.086 15.086 0 1 0 15.085 15.086 15.1 15.1 0 0 0 -15.085-15.086z" fill="#2f3a5a"/><path d="m110.9 99.118a12.943 12.943 0 0 1 -6.886 1v3.918s0 7.51 6.886 10.231c6.887-2.721 6.887-10.231 6.887-10.231v-3.918a12.945 12.945 0 0 1 -6.887-1z" fill="#6bb3d9"/><path d="m110.9 115.279a1.025 1.025 0 0 1 -.37-.07c-7.44-2.939-7.53-10.834-7.53-11.169v-3.918a1.009 1.009 0 0 1 1.167-1 12.031 12.031 0 0 0 6.291-.917 1.016 1.016 0 0 1 .875 0 12.044 12.044 0 0 0 6.289.916 1.009 1.009 0 0 1 1.167 1v3.918c0 .335-.085 8.23-7.524 11.169a1.025 1.025 0 0 1 -.365.071zm-5.88-14.039v2.8c0 .271.1 6.6 5.879 9.139 5.81-2.56 5.879-9.072 5.879-9.139v-2.8a14.291 14.291 0 0 1 -5.879-1.024 14.281 14.281 0 0 1 -5.879 1.024z" fill="#2f3a5a"/><path d="m42.315 5.522h30.805v35.319h-30.805z" fill="#e1e6e9"/></svg>