<svg id="flat" height="512" viewBox="0 0 128 128" width="512" xmlns="http://www.w3.org/2000/svg"><path d="m5.07 59.69a1 1 0 0 1 -.4-1.917l59.705-26.092a1 1 0 0 1 .828.012l55.18 26.093a1 1 0 0 1 -.856 1.808l-54.768-25.894-59.289 25.906a1 1 0 0 1 -.4.084z" fill="#2f3a5a"/><rect fill="#f26176" height="71.111" rx="4" width="128" y="56.858"/><path d="m35.387 35.589h57.226v113.649h-57.226z" fill="#ef5361" transform="matrix(0 1 -1 0 156.414 28.414)"/><g fill="#f26176"><path d="m14.941 63.8h5.56v57.226h-5.56z"/><path d="m28.163 63.8h5.56v57.226h-5.56z"/><path d="m41.386 63.8h5.56v57.226h-5.56z"/><path d="m54.609 63.8h5.56v57.226h-5.56z"/><path d="m67.831 63.8h5.56v57.226h-5.56z"/><path d="m81.054 63.8h5.56v57.226h-5.56z"/><path d="m94.277 63.8h5.56v57.226h-5.56z"/><path d="m107.499 63.8h5.56v57.226h-5.56z"/></g><path d="m64.775 33.6a5.421 5.421 0 0 1 -5.415-5.415 1 1 0 0 1 2 0 3.415 3.415 0 1 0 3.415-3.415 1 1 0 0 1 -1-1v-5.229a1 1 0 0 1 2 0v4.318a5.416 5.416 0 0 1 -1 10.738z" fill="#2f3a5a"/><path d="m56.368.031v11.526a8.408 8.408 0 1 0 16.815 0v-11.526z" fill="#f9c87e"/><circle cx="64.775" cy="11.404" fill="#e2a956" r="5.034"/></svg>