<svg id="flat" height="512" viewBox="0 0 128 128" width="512" xmlns="http://www.w3.org/2000/svg"><rect fill="#c79d8a" height="46.842" rx="1.805" width="46.842" x="26.587" y="24.722"/><g opacity=".5"><path d="m73.429 26.525v43.237a1.807 1.807 0 0 1 -1.805 1.8h-43.232a1.807 1.807 0 0 1 -1.63-1.032h43.138a1.807 1.807 0 0 0 1.8-1.8v-43.23a1.741 1.741 0 0 0 -.18-.778h.1a1.807 1.807 0 0 1 1.809 1.803z" fill="#a67f74"/></g><g fill="#2f3a5a"><path d="m42.853 68.784a1 1 0 0 1 -1-.993l-.092-14.316a1 1 0 0 1 .993-1.006h.007a1 1 0 0 1 1 .993l.092 14.316a1 1 0 0 1 -.994 1.006z"/><path d="m45.888 58.2a1 1 0 0 1 -.767-.357l-2.315-2.763-1.927 2.582a1 1 0 0 1 -1.6-1.2l2.682-3.595a1 1 0 0 1 .773-.4.966.966 0 0 1 .8.357l3.127 3.731a1 1 0 0 1 -.766 1.642z"/><path d="m34.9 68.784a1 1 0 0 1 -1-.993l-.092-14.316a1 1 0 0 1 .994-1.006.98.98 0 0 1 1.006.993l.092 14.316a1 1 0 0 1 -.994 1.006z"/><path d="m37.94 58.2a1 1 0 0 1 -.767-.357l-2.316-2.763-1.926 2.582a1 1 0 0 1 -1.6-1.2l2.683-3.595a1 1 0 0 1 .773-.4.972.972 0 0 1 .794.357l3.128 3.731a1 1 0 0 1 -.769 1.645z"/></g><path d="m41.946 24.722h15.907v10.77h-15.907z" fill="#e1e6e9"/><path d="m67.069 58.253h-11.321a1 1 0 0 1 0-2h11.321a1 1 0 0 1 0 2z" fill="#a67f74"/><path d="m67.069 61.626h-11.321a1 1 0 0 1 0-2h11.321a1 1 0 0 1 0 2z" fill="#a67f74"/><path d="m67.069 65h-6.138a1 1 0 0 1 0-2h6.138a1 1 0 1 1 0 2z" fill="#a67f74"/><path d="m78.579 77.426h9.564v11.868h-9.564z" fill="#384868" transform="matrix(.707 -.707 .707 .707 -34.529 83.361)"/><path d="m14.729 14.739a47.111 47.111 0 1 0 66.625-.01 47.1 47.1 0 0 0 -66.625.01zm61.081 61.083a39.272 39.272 0 1 1 0-55.551 39.267 39.267 0 0 1 0 55.551z" fill="#43567c"/><rect fill="#84879c" height="50.105" rx="3.889" transform="matrix(.707 -.707 .707 .707 -42.733 103.166)" width="22.055" x="92.14" y="78.113"/><path d="m118.988 122.777-3.15 3.15a3.887 3.887 0 0 1 -5.5 0l-29.93-29.927a3.887 3.887 0 0 1 0-5.5l3.15-3.15a3.887 3.887 0 0 0 0 5.5l29.93 29.93a3.887 3.887 0 0 0 5.5-.003z" fill="#707583"/></svg>