<svg id="flat" height="512" viewBox="0 0 128 128" width="512" xmlns="http://www.w3.org/2000/svg"><path d="m128 118.076h-128l20.758-63.629h86.484z" fill="#e1e6e9"/><path d="m88.857 99.946 1.807 13.271h-2.086l-6.051-44.396h-18.269l-.134 23.287h-50.819l.63-2.065h21.81l5.432-32.954h2.097l-5.443 32.954h24.238l.134-23.288h44.788l.63 2.066h-23.008l3.965 29.06h27.873l.63 2.065z" fill="#2f3a5a"/><path d="m41.177 57.089h-17.235l-10.007 32.954h21.81z" fill="#acd9e6"/><path d="m88.578 97.881h27.873l-8.83-29.06h-23.008z" fill="#e8c79c"/><path d="m62.069 90.043.134-23.288h44.788l-2.933-9.666h-60.784l-5.443 32.954z" fill="#6bb3d9"/><path d="m64.258 68.821-.134 23.287h-50.819l-6.413 21.109h81.686l-6.051-44.396z" fill="#e8c79c"/><path d="m117.081 99.946h-28.224l1.807 13.271h30.444z" fill="#6bb3d9"/><path d="m51.306 9.924a23.75 23.75 0 0 0 -23.75 23.75c0 13.117 23.75 46.8 23.75 46.8s23.75-33.68 23.75-46.8a23.75 23.75 0 0 0 -23.75-23.75z" fill="#ef5361"/><circle cx="51.306" cy="33.406" fill="#dbe2eb" r="14.7"/></svg>