<svg id="flat" height="512" viewBox="0 0 128 128" width="512" xmlns="http://www.w3.org/2000/svg"><path d="m112.664 0v52.209h-97.328v-52.209h-9.821v128h9.821v-8.5h97.328v8.5h9.821v-128zm-97.328 109.775v-47.784h97.328v47.784z" fill="#c08e78"/><rect fill="#fac77c" height="41.774" rx="1.61" width="41.774" x="19.931" y="67.999"/><g opacity=".5"><path d="m61.7 69.607v38.559a1.611 1.611 0 0 1 -1.609 1.609h-38.55a1.612 1.612 0 0 1 -1.454-.92h38.474a1.611 1.611 0 0 0 1.609-1.61v-38.553a1.573 1.573 0 0 0 -.16-.692h.09a1.611 1.611 0 0 1 1.6 1.607z" fill="#faba59"/></g><g fill="#2f3a5a"><path d="m36.1 107.4a1 1 0 0 1 -1-.994l-.08-12.764a1 1 0 0 1 .993-1.007h.007a1 1 0 0 1 1 .994l.08 12.771a1 1 0 0 1 -.994 1.006z"/><path d="m38.81 97.962a1 1 0 0 1 -.768-.358l-1.977-2.357-1.635 2.192a1 1 0 0 1 -1.6-1.2l2.392-3.206a1 1 0 0 1 .773-.4.962.962 0 0 1 .8.357l2.789 3.326a1 1 0 0 1 -.765 1.643z"/><path d="m27.348 107.4a1 1 0 0 1 -1-.994l-.082-12.766a1 1 0 0 1 .993-1.007h.007a1 1 0 0 1 1 .994l.082 12.767a1 1 0 0 1 -.994 1.006z"/><path d="m30.056 97.962a1 1 0 0 1 -.768-.358l-1.976-2.357-1.636 2.192a1 1 0 0 1 -1.6-1.2l2.392-3.206a1 1 0 0 1 .773-.4.953.953 0 0 1 .8.357l2.789 3.326a1 1 0 0 1 -.765 1.643z"/></g><path d="m33.628 67.999h14.185v9.604h-14.185z" fill="#e1e6e9"/><rect fill="#fac77c" height="41.774" rx="1.61" width="41.774" x="67.451" y="67.999"/><g opacity=".5"><path d="m109.224 69.607v38.559a1.611 1.611 0 0 1 -1.609 1.609h-38.554a1.612 1.612 0 0 1 -1.454-.92h38.474a1.611 1.611 0 0 0 1.609-1.61v-38.553a1.573 1.573 0 0 0 -.16-.694h.085a1.611 1.611 0 0 1 1.609 1.609z" fill="#faba59"/></g><path d="m83.622 107.4a1 1 0 0 1 -1-.994l-.082-12.764a1 1 0 0 1 .993-1.007h.007a1 1 0 0 1 1 .994l.082 12.767a1 1 0 0 1 -.993 1.006z" fill="#2f3a5a"/><path d="m86.33 97.962a1 1 0 0 1 -.768-.358l-1.976-2.358-1.637 2.193a1 1 0 1 1 -1.6-1.2l2.392-3.206a1 1 0 0 1 .774-.4.953.953 0 0 1 .8.357l2.785 3.329a1 1 0 0 1 -.766 1.643z" fill="#2f3a5a"/><path d="m74.868 107.4a1 1 0 0 1 -1-.994l-.082-12.766a1 1 0 0 1 .993-1.007h.007a1 1 0 0 1 1 .994l.082 12.767a1 1 0 0 1 -.993 1.006z" fill="#2f3a5a"/><path d="m77.576 97.962a1 1 0 0 1 -.767-.358l-1.977-2.358-1.637 2.193a1 1 0 1 1 -1.6-1.2l2.392-3.206a1 1 0 0 1 .774-.4.979.979 0 0 1 .8.357l2.789 3.326a1 1 0 0 1 -.766 1.643z" fill="#2f3a5a"/><path d="m81.148 67.999h14.185v9.604h-14.185z" fill="#e1e6e9"/><rect fill="#fac77c" height="41.774" rx="1.61" width="41.774" x="44.555" y="10.433"/><g opacity=".5"><path d="m86.328 12.041v38.559a1.611 1.611 0 0 1 -1.609 1.61h-38.554a1.613 1.613 0 0 1 -1.454-.921h38.474a1.611 1.611 0 0 0 1.609-1.609v-38.555a1.562 1.562 0 0 0 -.16-.694h.085a1.612 1.612 0 0 1 1.609 1.61z" fill="#faba59"/></g><path d="m60.726 49.835a1 1 0 0 1 -1-.994l-.081-12.766a1 1 0 0 1 .994-1.006h.006a1 1 0 0 1 1 .993l.081 12.767a1 1 0 0 1 -.994 1.006z" fill="#2f3a5a"/><path d="m63.434 40.4a1 1 0 0 1 -.768-.358l-1.976-2.362-1.636 2.193a1 1 0 0 1 -1.6-1.2l2.393-3.206a1 1 0 0 1 1.568-.045l2.785 3.331a1 1 0 0 1 -.765 1.643z" fill="#2f3a5a"/><path d="m51.973 49.835a1 1 0 0 1 -1-.994l-.082-12.766a1 1 0 0 1 .993-1.006h.007a1 1 0 0 1 1 .993l.082 12.767a1 1 0 0 1 -.994 1.006z" fill="#2f3a5a"/><path d="m54.68 40.4a1 1 0 0 1 -.768-.358l-1.975-2.362-1.637 2.193a1 1 0 0 1 -1.6-1.2l2.393-3.206a1 1 0 0 1 1.568-.045l2.788 3.327a1 1 0 0 1 -.769 1.651z" fill="#2f3a5a"/><path d="m58.252 10.433h14.185v9.604h-14.185z" fill="#e1e6e9"/></svg>