<svg id="flat" height="512" viewBox="0 0 128 128" width="512" xmlns="http://www.w3.org/2000/svg"><path d="m22.836 22.947h7.639v15.072h-7.639z" fill="#43567c"/><path d="m8.745 39.302h39.212v19.131h-39.212z" fill="#bac2d3"/><rect fill="#fac77c" height="15.654" rx="1.711" width="30.404" x="51.299" y="45.03"/><rect fill="#dbe2eb" height="15.654" rx="1.711" width="30.404" x="84.68" y="45.03"/><rect fill="#6bb3d9" height="15.654" rx="1.711" width="30.404" x="69.099" y="29.377"/><path d="m8.745 67.114 11.579 15.743h87.919l15.743-15.743z" fill="#f26176"/><path d="m126.286 60.684h-58.286l-7.142-7.142a2 2 0 0 0 -1.414-.586h-57.73a1.711 1.711 0 0 0 -1.378 2.725l9.253 12.58h113.25l4.656-4.656a1.711 1.711 0 0 0 -1.209-2.921z" fill="#43567c"/><rect fill="#dbe2eb" height="4.276" rx=".63" width="44.397" x="6.152" y="35.882"/><g fill="#43567c"><path d="m14.97 43.285a1.175 1.175 0 0 0 -1.17 1.175v2.23a1.176 1.176 0 0 0 2.351 0v-2.23a1.176 1.176 0 0 0 -1.181-1.175z"/><path d="m21.661 43.285a1.176 1.176 0 0 0 -1.176 1.175v2.23a1.176 1.176 0 0 0 2.351 0v-2.23a1.175 1.175 0 0 0 -1.175-1.175z"/><path d="m28.351 43.285a1.175 1.175 0 0 0 -1.175 1.175v2.23a1.175 1.175 0 0 0 2.35 0v-2.23a1.175 1.175 0 0 0 -1.175-1.175z"/><path d="m35.041 43.285a1.175 1.175 0 0 0 -1.175 1.175v2.23a1.175 1.175 0 0 0 2.35 0v-2.23a1.175 1.175 0 0 0 -1.175-1.175z"/><path d="m41.731 43.285a1.175 1.175 0 0 0 -1.175 1.175v2.23a1.176 1.176 0 0 0 2.351 0v-2.23a1.175 1.175 0 0 0 -1.176-1.175z"/></g><path d="m125.937 80.573-2.56-2.076a8.245 8.245 0 0 0 -9.96 0l-.407.33a8.249 8.249 0 0 1 -9.961 0l-1.011-.821a8.247 8.247 0 0 0 -9.96 0l-.062.05a8.247 8.247 0 0 1 -9.96 0l-.244-.2a8.247 8.247 0 0 0 -9.96 0l-.611.495a8.247 8.247 0 0 1 -9.96 0l-.635-.515a8.247 8.247 0 0 0 -9.96 0l-.532.431a8.247 8.247 0 0 1 -9.96 0 8.247 8.247 0 0 0 -9.96 0l-.962.78a8.247 8.247 0 0 1 -9.96 0l-1.642-1.329a8.292 8.292 0 0 0 -9.339-.448l-5.558 3.553a5.4 5.4 0 0 0 -2.683 4.487v6.953h127.91v-7.65a5.231 5.231 0 0 0 -2.063-4.04z" fill="#9bc6f1"/><path d="m125.937 86.969-2.56-2.077a8.247 8.247 0 0 0 -9.96 0l-.407.33a8.249 8.249 0 0 1 -9.961 0l-1.011-.821a8.247 8.247 0 0 0 -9.96 0l-.062.05a8.247 8.247 0 0 1 -9.96 0l-.244-.2a8.247 8.247 0 0 0 -9.96 0l-.611.5a8.245 8.245 0 0 1 -9.96 0l-.635-.515a8.247 8.247 0 0 0 -9.96 0l-.532.431a8.247 8.247 0 0 1 -9.96 0 8.247 8.247 0 0 0 -9.96 0l-.962.78a8.247 8.247 0 0 1 -9.96 0l-1.642-1.334a8.292 8.292 0 0 0 -9.339-.448l-5.558 3.553a5.4 5.4 0 0 0 -2.683 4.487v6.953h127.91v-7.65a5.228 5.228 0 0 0 -2.063-4.039z" fill="#6bb3d9"/><path d="m125.937 93.364-2.56-2.077a8.247 8.247 0 0 0 -9.96 0l-.407.33a8.249 8.249 0 0 1 -9.961 0l-1.011-.82a8.245 8.245 0 0 0 -9.96 0l-.062.049a8.247 8.247 0 0 1 -9.96 0l-.244-.2a8.247 8.247 0 0 0 -9.96 0l-.611.5a8.245 8.245 0 0 1 -9.96 0l-.635-.515a8.247 8.247 0 0 0 -9.96 0l-.532.431a8.245 8.245 0 0 1 -9.96 0 8.247 8.247 0 0 0 -9.96 0l-.962.78a8.245 8.245 0 0 1 -9.96 0l-1.642-1.334a8.292 8.292 0 0 0 -9.339-.448l-5.558 3.553a5.4 5.4 0 0 0 -2.683 4.487v6.953h127.91v-7.653a5.228 5.228 0 0 0 -2.063-4.036z" fill="#9bc6f1"/></svg>