<svg id="flat" height="512" viewBox="0 0 128 128" width="512" xmlns="http://www.w3.org/2000/svg"><rect fill="#ddb087" height="57.081" rx="2.692" width="57.081" x="35.742" y="35.363"/><path d="m92.821 38.055v51.7a2.692 2.692 0 0 1 -2.692 2.692h-51.7a2.7 2.7 0 0 1 -2.571-1.9h50.509a2.691 2.691 0 0 0 2.692-2.692v-51.7a2.571 2.571 0 0 0 -.121-.794h1.191a2.692 2.692 0 0 1 2.692 2.694z" fill="#cea380"/><path d="m55.898 35.363h16.77v14.526h-16.77z" fill="#dbe2eb"/><g fill="#2f3a5a"><path d="m46.457 86.483a1 1 0 0 1 -1-1v-18.595a1 1 0 0 1 2 0v18.6a1 1 0 0 1 -1 .995z"/><path d="m49.447 71.833a1 1 0 0 1 -.824-.433l-2.166-3.141-2.166 3.141a1 1 0 1 1 -1.647-1.135l2.989-4.336a1.039 1.039 0 0 1 1.647 0l2.989 4.336a1 1 0 0 1 -.822 1.568z"/><path d="m56.578 86.483a1 1 0 0 1 -1-1v-18.595a1 1 0 0 1 2 0v18.6a1 1 0 0 1 -1 .995z"/><path d="m53.588 71.833a1 1 0 0 1 -.822-1.568l2.989-4.336a1.038 1.038 0 0 1 1.646 0l2.99 4.336a1 1 0 1 1 -1.646 1.135l-2.167-3.141-2.166 3.141a1 1 0 0 1 -.824.433z"/><path d="m126.158 33.93-20.421-8.548a3 3 0 0 0 -4.1 2.2l-4.137 21.578a3 3 0 0 0 2.381 3.51 2.909 2.909 0 0 0 .569.055 3 3 0 0 0 2.943-2.436l2.607-13.615a49.885 49.885 0 0 1 -59.094 74.1 3 3 0 0 0 -2.088 5.625 55.9 55.9 0 0 0 66.854-82.032l12.17 5.094a3 3 0 1 0 2.316-5.535z"/><path d="m28.122 73.524a3 3 0 0 0 -3.512 2.382l-2.751 14.354a49.884 49.884 0 0 1 59.771-73.039 3 3 0 1 0 2.088-5.621 55.891 55.891 0 0 0 -68.089 79.931l-11.471-4.801a3 3 0 1 0 -2.316 5.535l20.421 8.547a3 3 0 0 0 4.1-2.2l4.137-21.577a3 3 0 0 0 -2.378-3.511z"/></g></svg>