<svg id="flat" height="512" viewBox="0 0 128 128" width="512" xmlns="http://www.w3.org/2000/svg"><path d="m101.448 0a3.4 3.4 0 0 1 -3.37 2.953 3.4 3.4 0 0 1 -3.378-2.953h-4.6a3.4 3.4 0 0 1 -3.381 2.953 3.4 3.4 0 0 1 -3.375-2.953h-4.611a3.4 3.4 0 0 1 -3.37 2.953 3.4 3.4 0 0 1 -3.381-2.953h-4.612a3.4 3.4 0 0 1 -3.37 2.953 3.4 3.4 0 0 1 -3.37-2.953h-4.612a3.4 3.4 0 0 1 -3.381 2.953 3.4 3.4 0 0 1 -3.37-2.953h-4.611a3.4 3.4 0 0 1 -3.371 2.953 3.4 3.4 0 0 1 -3.385-2.953h-4.6a3.4 3.4 0 0 1 -3.382 2.953 3.4 3.4 0 0 1 -3.366-2.953h-3.184v128h3.184a3.406 3.406 0 0 1 6.752 0h4.6a3.406 3.406 0 0 1 6.752 0h4.611a3.406 3.406 0 0 1 6.751 0h4.612a3.4 3.4 0 0 1 6.74 0h4.612a3.406 3.406 0 0 1 6.751 0h4.611a3.406 3.406 0 0 1 6.752 0h4.6a3.406 3.406 0 0 1 6.752 0h3.184v-128z" fill="#e1e6e9"/><g fill="#bac2d3"><path d="m96.4 29.455h-64.8a1 1 0 0 1 0-2h64.8a1 1 0 0 1 0 2z"/><path d="m96.4 43.673h-64.8a1 1 0 0 1 0-2h64.8a1 1 0 1 1 0 2z"/><path d="m96.4 57.891h-64.8a1 1 0 0 1 0-2h64.8a1 1 0 0 1 0 2z"/><path d="m96.4 72.109h-64.8a1 1 0 1 1 0-2h64.8a1 1 0 0 1 0 2z"/><path d="m47.6 100.545h-12.048a1 1 0 0 1 0-2h12.048a1 1 0 0 1 0 2z"/><path d="m70.021 100.545h-12.042a1 1 0 0 1 0-2h12.042a1 1 0 0 1 0 2z"/><path d="m92.448 100.545h-12.043a1 1 0 0 1 0-2h12.043a1 1 0 0 1 0 2z"/><path d="m66.066 86.327h-34.466a1 1 0 0 1 0-2h34.466a1 1 0 0 1 0 2z"/></g><path d="m92.893 91.509a.959.959 0 0 1 -.107-.006l-12.559-1.345a1 1 0 0 1 .212-1.989l10.485 1.123a16.3 16.3 0 0 1 -1.577-4.131 2.973 2.973 0 0 1 -1.322.273.986.986 0 0 1 -.3-.056 2.383 2.383 0 0 1 -.827.177c-.032 0-.067 0-.1 0a2.273 2.273 0 0 1 -.2.155 1.919 1.919 0 0 1 -1.263.328 3.69 3.69 0 0 1 -1.3.642 6.438 6.438 0 0 1 -3.6-.007 14.6 14.6 0 0 1 -5.282 4.635 1 1 0 1 1 -.911-1.781 12.512 12.512 0 0 0 4.344-3.748c-.119-.085-.234-.174-.347-.268a5.929 5.929 0 0 1 -2.039-5.596 5.561 5.561 0 0 1 4.132-4.332 2.256 2.256 0 0 1 2.332.6 2.414 2.414 0 0 1 .479 1.514 14.632 14.632 0 0 1 -1.626 7.171 4.416 4.416 0 0 0 1.953-.109 2.57 2.57 0 0 0 .4-.148 1.625 1.625 0 0 1 .046-.553 1.43 1.43 0 0 1 1.016-1.052 1.006 1.006 0 0 1 1 .3 1 1 0 0 1 .724-.311 1 1 0 0 1 .644.238 1 1 0 0 1 1.32.07 1.578 1.578 0 0 0 .373-.28 15.756 15.756 0 0 1 .171-4.338 1 1 0 0 1 1.93-.144 7.079 7.079 0 0 1 .387 4.014 4.02 4.02 0 0 1 -.408 1.011 14.121 14.121 0 0 0 2.62 6.346 1 1 0 0 1 -.8 1.6zm-11.832-14.009a1.279 1.279 0 0 0 -.286.036 3.583 3.583 0 0 0 -2.616 2.762 3.96 3.96 0 0 0 1.351 3.679q.066.054.132.105a12.659 12.659 0 0 0 1.5-6.312 2.081 2.081 0 0 0 -.022-.267.485.485 0 0 0 -.059-.003z" fill="#2f3a5a"/></svg>