<svg id="flat" height="512" viewBox="0 0 128 128" width="512" xmlns="http://www.w3.org/2000/svg"><path d="m58.479 7.493h10.322v12.784h-10.322z" fill="#4fa4d1"/><rect fill="#4fa4d1" height="9.117" rx="1.076" transform="matrix(.707 -.707 .707 .707 8.1 83.439)" width="12.784" x="98.381" y="27.383"/><rect fill="#4fa4d1" height="12.784" rx="1.076" transform="matrix(.707 -.707 .707 .707 -15.783 25.78)" width="9.117" x="18.669" y="25.549"/><circle cx="64" cy="71.826" fill="#9bc6f1" r="56.174" transform="matrix(.987 -.16 .16 .987 -10.679 11.179)"/><circle cx="64" cy="71.826" fill="#e1e6e9" r="46.982"/><g fill="#2f3a5a"><path d="m64 34.37a1 1 0 0 1 -1-1v-5.56a1 1 0 0 1 2 0v5.56a1 1 0 0 1 -1 1z"/><path d="m41.4 41.715a1 1 0 0 1 -.809-.412l-3.269-4.5a1 1 0 1 1 1.618-1.176l3.268 4.5a1 1 0 0 1 -.808 1.588z"/><path d="m27.427 60.943a1.007 1.007 0 0 1 -.309-.049l-5.288-1.719a1 1 0 0 1 .617-1.9l5.288 1.718a1 1 0 0 1 -.308 1.952z"/><path d="m22.139 86.428a1 1 0 0 1 -.309-1.952l5.288-1.718a1 1 0 1 1 .617 1.9l-5.288 1.718a.973.973 0 0 1 -.308.052z"/><path d="m38.127 108.435a1 1 0 0 1 -.808-1.588l3.269-4.5a1 1 0 1 1 1.617 1.175l-3.268 4.5a1 1 0 0 1 -.81.413z"/><path d="m64 116.841a1 1 0 0 1 -1-1v-5.56a1 1 0 0 1 2 0v5.56a1 1 0 0 1 -1 1z"/><path d="m89.873 108.435a1 1 0 0 1 -.81-.412l-3.268-4.5a1 1 0 1 1 1.617-1.175l3.269 4.5a1 1 0 0 1 -.808 1.588z"/><path d="m105.861 86.428a.973.973 0 0 1 -.308-.05l-5.288-1.718a1 1 0 1 1 .617-1.9l5.288 1.718a1 1 0 0 1 -.309 1.952z"/><path d="m100.573 60.943a1 1 0 0 1 -.308-1.952l5.288-1.718a1 1 0 0 1 .617 1.9l-5.288 1.719a1.007 1.007 0 0 1 -.309.051z"/><path d="m86.6 41.715a1 1 0 0 1 -.808-1.588l3.268-4.5a1 1 0 1 1 1.621 1.173l-3.269 4.5a1 1 0 0 1 -.812.415z"/></g><path d="m53.61 0h20.06a2.215 2.215 0 0 1 2.215 2.215v6.316a2.216 2.216 0 0 1 -2.216 2.216h-20.059a2.216 2.216 0 0 1 -2.216-2.216v-6.315a2.216 2.216 0 0 1 2.216-2.216z" fill="#6bb3d9"/><path d="m64 69.032a1 1 0 0 1 -1-1v-27.317a1 1 0 0 1 2 0v27.317a1 1 0 0 1 -1 1z" fill="#2f3a5a"/><path d="m64 76.62a4.794 4.794 0 1 1 4.794-4.794 4.8 4.8 0 0 1 -4.794 4.794zm0-7.588a2.794 2.794 0 1 0 2.794 2.794 2.8 2.8 0 0 0 -2.794-2.794z" fill="#2f3a5a"/></svg>