<svg id="flat" height="512" viewBox="0 0 128 128" width="512" xmlns="http://www.w3.org/2000/svg"><g fill="#43567c"><path d="m113.1 20.278a1.061 1.061 0 0 0 -1.061 1.061v8.091h2.121v-8.091a1.06 1.06 0 0 0 -1.06-1.061z"/><path d="m124.271 21.015-10.793 2v2.374l11.039 1.13a2.789 2.789 0 0 0 3.1-2.771 2.789 2.789 0 0 0 -3.346-2.733z"/><path d="m102.169 21.015 10.793 2v2.374l-11.039 1.13a2.789 2.789 0 0 1 -3.1-2.771 2.788 2.788 0 0 1 3.346-2.733z"/><path d="m14.8 20.278a1.061 1.061 0 0 0 -1.061 1.061v8.091h2.121v-8.091a1.06 1.06 0 0 0 -1.06-1.061z"/><path d="m25.964 21.015-10.793 2v2.374l11.039 1.13a2.789 2.789 0 0 0 3.1-2.771 2.789 2.789 0 0 0 -3.346-2.733z"/><path d="m3.862 21.015 10.793 2v2.374l-11.039 1.129a2.789 2.789 0 0 1 -3.1-2.771 2.788 2.788 0 0 1 3.346-2.732z"/></g><rect fill="#c79d8a" height="42.333" rx="1.824" width="47.333" x="40.334" y="67.132"/><g opacity=".5"><path d="m87.666 68.954v38.69a1.826 1.826 0 0 1 -1.824 1.823h-43.684a1.826 1.826 0 0 1 -1.647-1.042h43.589a1.827 1.827 0 0 0 1.824-1.824v-38.684a1.768 1.768 0 0 0 -.182-.787h.1a1.826 1.826 0 0 1 1.824 1.824z" fill="#a67f74"/></g><path d="m56.77 106.645a1 1 0 0 1 -1-.994l-.093-14.465a1 1 0 1 1 2-.013l.093 14.466a1 1 0 0 1 -.994 1.006z" fill="#2f3a5a"/><path d="m59.837 95.949a1 1 0 0 1 -.766-.358l-2.348-2.8-1.955 2.62a1 1 0 0 1 -1.6-1.2l2.71-3.633a1 1 0 0 1 .773-.4.96.96 0 0 1 .795.357l3.16 3.769a1 1 0 0 1 -.766 1.643z" fill="#2f3a5a"/><path d="m48.738 106.645a1 1 0 0 1 -1-.994l-.093-14.465a1 1 0 0 1 .994-1.007h.006a1 1 0 0 1 1 .994l.093 14.466a1 1 0 0 1 -.994 1.006z" fill="#2f3a5a"/><path d="m51.805 95.949a1 1 0 0 1 -.767-.358l-2.348-2.8-1.954 2.619a1 1 0 0 1 -1.6-1.2l2.711-3.633a1 1 0 0 1 .773-.4.965.965 0 0 1 .8.357l3.159 3.769a1 1 0 0 1 -.766 1.643z" fill="#2f3a5a"/><path d="m55.853 67.132h16.073v10.883h-16.073z" fill="#e1e6e9"/><path d="m81.24 96h-11.44a1 1 0 0 1 0-2h11.44a1 1 0 0 1 0 2z" fill="#a67f74"/><path d="m81.24 99.412h-11.44a1 1 0 1 1 0-2h11.44a1 1 0 0 1 0 2z" fill="#a67f74"/><path d="m81.24 102.821h-6.2a1 1 0 0 1 0-2h6.2a1 1 0 0 1 0 2z" fill="#a67f74"/><path d="m90.832 61.145-12.761-11.721-4.924 4.076 13.992 10.39v15.964a1.256 1.256 0 0 0 2.5.184l2.318-15.722a3.6 3.6 0 0 0 -1.125-3.171z" fill="#43567c"/><path d="m36.973 61.145 12.761-11.721 4.924 4.076-13.993 10.39v15.964a1.256 1.256 0 0 1 -2.5.184l-2.316-15.722a3.6 3.6 0 0 1 1.124-3.171z" fill="#43567c"/><path d="m109.518 27.336v3.941l-31.685 8.456.81 8.831 37.579-14.864v-6.364z" fill="#c8cbd2"/><path d="m18.287 31.277v-3.941h-6.704v6.364l37.579 14.864.81-8.831z" fill="#c8cbd2"/><path d="m77.99 35.276h-28.175a2.821 2.821 0 0 0 -2.821 2.824v12.081a2.819 2.819 0 0 0 .649 1.8l3.226 3.889a2.821 2.821 0 0 0 2.172 1.019h21.723a2.819 2.819 0 0 0 2.171-1.019l3.226-3.889a2.82 2.82 0 0 0 .65-1.8v-12.081a2.821 2.821 0 0 0 -2.821-2.824z" fill="#dbe2eb"/><path d="m64 48.564a2.9 2.9 0 1 0 2.9 2.9 2.9 2.9 0 0 0 -2.9-2.9z" fill="#43567c"/><path d="m64 50.816a.651.651 0 1 0 .65.651.651.651 0 0 0 -.65-.651z" fill="#2f3a5a"/></svg>