<svg id="flat" height="512" viewBox="0 0 128 128" width="512" xmlns="http://www.w3.org/2000/svg"><rect fill="#c79d8a" height="30.206" rx="1.164" width="30.206" x="62.02" y="20.537"/><g opacity=".5"><path d="m92.226 21.7v27.881a1.165 1.165 0 0 1 -1.164 1.164h-27.878a1.166 1.166 0 0 1 -1.051-.666h27.82a1.165 1.165 0 0 0 1.164-1.164v-27.878a1.128 1.128 0 0 0 -.116-.5h.061a1.165 1.165 0 0 1 1.164 1.163z" fill="#a67f74"/></g><g fill="#2f3a5a"><path d="m72.509 48.541a.235.235 0 0 1 -.236-.234l-.059-9.232a.236.236 0 0 1 .234-.237.237.237 0 0 1 .236.234l.059 9.232a.235.235 0 0 1 -.235.237z"/><path d="m74.466 41.715a.232.232 0 0 1 -.18-.084l-1.825-2.177-1.552 2.079a.236.236 0 1 1 -.378-.282l1.73-2.318a.236.236 0 0 1 .37-.011l2.016 2.406a.235.235 0 0 1 -.181.387z"/><path d="m67.383 48.541a.236.236 0 0 1 -.236-.234l-.059-9.232a.236.236 0 0 1 .235-.237.236.236 0 0 1 .236.234l.059 9.232a.235.235 0 0 1 -.234.237z"/><path d="m69.341 41.715a.234.234 0 0 1 -.181-.084l-1.825-2.177-1.552 2.079a.236.236 0 1 1 -.378-.282l1.73-2.318a.235.235 0 0 1 .182-.095.237.237 0 0 1 .188.084l2.016 2.406a.235.235 0 0 1 -.18.387z"/></g><path d="m71.924 20.537h10.257v6.945h-10.257z" fill="#e1e6e9"/><path d="m88.125 41.75h-7.3a.236.236 0 0 1 0-.472h7.3a.236.236 0 1 1 0 .472z" fill="#a67f74"/><path d="m88.125 43.926h-7.3a.236.236 0 0 1 0-.472h7.3a.236.236 0 1 1 0 .472z" fill="#a67f74"/><path d="m88.125 46.1h-3.958a.236.236 0 0 1 0-.472h3.958a.236.236 0 1 1 0 .472z" fill="#a67f74"/><circle cx="103.756" cy="93.916" fill="#43567c" r="13.548" transform="matrix(.707 -.707 .707 .707 -36.019 100.874)"/><circle cx="103.756" cy="93.916" fill="#dbe2eb" r="6.391" transform="matrix(.707 -.707 .707 .707 -36.019 100.874)"/><circle cx="14.045" cy="94.21" fill="#43567c" r="12.667" transform="matrix(.707 -.707 .707 .707 -62.503 37.525)"/><circle cx="14.045" cy="94.21" fill="#dbe2eb" r="5.895"/><path d="m11.281 75.045s-9.671-1.032-11.281 11.039h23.875z" fill="#4fa4d1"/><path d="m98.325 50.745h-36.138a3.069 3.069 0 0 0 -3.07 3.07v8.285h42.283v-8.285a3.07 3.07 0 0 0 -3.075-3.07z" fill="#43567c"/><path d="m126.067 85.166v8.859h-37.589a4.781 4.781 0 0 0 -4.356 2.807l-1.877 4.129a4.8 4.8 0 0 1 -4.362 2.807h-43.52a4.793 4.793 0 0 1 -3.845-1.929l-19.828-26.713c.594-20.963 18.015-33.661 18.015-33.661h7.949l-7.949 17.421c-5.214 9.9-2.252 18.17 1.077 23.3a12.356 12.356 0 0 0 10.375 5.639h20.643a9.889 9.889 0 0 0 8.691-5.071 16.016 16.016 0 0 0 1.734-5.554c.922-6.93-7.008-11.15-10.5-12.66a2.651 2.651 0 0 1 -1.611-2.44v-3.214h42.565c17.13 4.73 24.388 26.28 24.388 26.28z" fill="#6bb3d9"/><path d="m37.537 32.763-13.625-1.253a4.11 4.11 0 0 0 -4.285 2.7 11.583 11.583 0 0 0 0 7.672 4.11 4.11 0 0 0 4.277 2.7l13.626-1.227a2.455 2.455 0 0 0 2.235-2.445v-5.7a2.455 2.455 0 0 0 -2.228-2.447z" fill="#6bb3d9"/><path d="m24.093 31.527-.181-.017a4.11 4.11 0 0 0 -4.285 2.7 11.583 11.583 0 0 0 0 7.672 4.11 4.11 0 0 0 4.277 2.7l.187-.017z" fill="#f6ba5b"/><path d="m43.373 40.76-9.434-3.718a1.694 1.694 0 0 0 -1.255 3.148l9.4 3.788a1.694 1.694 0 0 0 2.166-.85l.033-.07a1.694 1.694 0 0 0 -.91-2.298z" fill="#2f3a5a"/><rect fill="#ef5361" height="9.992" rx=".648" width="6.683" x="121.317" y="84.129"/><path d="m92.226 92.451a.643.643 0 0 1 -.645.645c-.193 0-12.73-.136-15.634-14.492-2.147-10.633 5.143-17.066 9.143-19.718h2.471c-2.471 1.284-12.781 7.427-10.349 19.467 2.688 13.278 13.814 13.452 14.363 13.452h.006a.647.647 0 0 1 .645.646z" fill="#4fa4d1"/><path d="m104.819 71.557h-15.45a.65.65 0 0 0 0 1.3h15.45a.65.65 0 0 0 0-1.3z" fill="#4fa4d1"/><path d="m104.819 74.769h-15.45a.651.651 0 0 0 0 1.3h15.45a.651.651 0 0 0 0-1.3z" fill="#4fa4d1"/><path d="m104.819 77.982h-15.45a.65.65 0 1 0 0 1.3h15.45a.65.65 0 1 0 0-1.3z" fill="#4fa4d1"/></svg>