<svg id="flat" height="512" viewBox="0 0 128 128" width="512" xmlns="http://www.w3.org/2000/svg"><path d="m110.956 124.519-55.819 3.481-8.987-27.969 8.987-36.989h55.819z" fill="#f0c191"/><path d="m55.137 128-38.093-3.481v-61.477h38.093z" fill="#ddb087"/><path d="m55.137 63.042 14.067 16.605h54.358l-12.606-16.605z" fill="#ddb087"/><path d="m55.137 63.042-14.067 16.605h-36.632l12.606-16.605z" fill="#f0c191"/><g fill="#2f3a5a"><path d="m75.751 122.308a1 1 0 0 1 -1-.994l-.113-17.56a1 1 0 0 1 2-.013l.113 17.56a1 1 0 0 1 -.994 1.007z"/><path d="m72.344 109.559a1 1 0 0 1 -.824-1.565l3.293-4.811a1 1 0 0 1 .75-.433.983.983 0 0 1 .807.315l3.838 4.116a1 1 0 1 1 -1.462 1.364l-2.988-3.2-2.588 3.782a1 1 0 0 1 -.826.432z"/><path d="m64.778 123.633a1 1 0 0 1 -1-.994l-.113-17.56a1 1 0 0 1 .994-1.006h.006a1 1 0 0 1 1 .993l.113 17.56a1 1 0 0 1 -.994 1.007z"/><path d="m61.372 110.884a1 1 0 0 1 -.825-1.565l3.293-4.811a1 1 0 0 1 1.556-.117l3.84 4.115a1 1 0 0 1 -1.463 1.365l-2.988-3.2-2.585 3.778a1 1 0 0 1 -.828.435z"/></g><path d="m103.648 108.979h-11.535a1 1 0 0 1 0-2h11.535a1 1 0 0 1 0 2z" fill="#d8b18c"/><path d="m103.648 112.9h-11.535a1 1 0 0 1 0-2h11.535a1 1 0 0 1 0 2z" fill="#d8b18c"/><path d="m103.648 116.827h-11.535a1 1 0 0 1 0-2h11.535a1 1 0 0 1 0 2z" fill="#d8b18c"/><path d="m64 0a19.434 19.434 0 0 0 -19.432 19.432c0 10.731 19.432 36.548 19.432 36.548s19.432-25.817 19.432-36.548a19.434 19.434 0 0 0 -19.432-19.432zm0 30.433a11.117 11.117 0 1 1 11.121-11.112 11.119 11.119 0 0 1 -11.121 11.112z" fill="#ef5361"/></svg>