<svg id="flat" height="512" viewBox="0 0 128 128" width="512" xmlns="http://www.w3.org/2000/svg"><rect fill="#ffc943" height="56.202" rx="4.514" width="28.088" x="80.82" y="49.074"/><path d="m92.543 49.074h7.646v56.202h-7.646z" fill="#43567c"/><path d="m27.491 24.372h50.279a8.4 8.4 0 0 1 8.4 8.4v86.828a8.4 8.4 0 0 1 -8.4 8.4h-50.279a8.4 8.4 0 0 1 -8.4-8.4v-86.829a8.4 8.4 0 0 1 8.4-8.399z" fill="#43567c"/><rect fill="#6bb3d9" height="24.999" rx="2.02" width="48.966" x="28.148" y="41.869"/><g fill="#bac2d3"><rect height="9.088" rx="1.752" width="9.088" x="28.148" y="73.908"/><rect height="9.088" rx="1.752" width="9.088" x="41.44" y="73.908"/><rect height="9.088" rx="1.752" width="9.088" x="54.733" y="73.908"/><rect height="9.088" rx="1.752" width="9.088" x="68.025" y="73.908"/><rect height="9.088" rx="1.752" width="9.088" x="28.148" y="87.32"/><rect height="9.088" rx="1.752" width="9.088" x="41.44" y="87.32"/><rect height="9.088" rx="1.752" width="9.088" x="54.733" y="87.32"/><rect height="9.088" rx="1.752" width="9.088" x="68.025" y="87.32"/><rect height="9.088" rx="1.752" width="9.088" x="28.148" y="100.732"/><rect height="9.088" rx="1.752" width="9.088" x="41.44" y="100.732"/><rect height="9.088" rx="1.752" width="9.088" x="54.733" y="100.732"/><rect height="9.088" rx="1.752" width="9.088" x="68.025" y="100.732"/></g><rect fill="#2f3a5a" height="3.996" rx="1.02" width="40.167" x="32.547" y="31.331"/><path d="m35.255 0h34.751v33.329h-34.751z" fill="#dbe2eb"/><path d="m64.557 8.253h-23.857a1 1 0 0 1 0-2h23.857a1 1 0 0 1 0 2z" fill="#bac2d3"/><path d="m64.557 16.812h-23.857a1 1 0 1 1 0-2h23.857a1 1 0 0 1 0 2z" fill="#bac2d3"/><path d="m64.557 25.372h-23.857a1 1 0 1 1 0-2h23.857a1 1 0 0 1 0 2z" fill="#bac2d3"/><rect fill="#ef5361" height="4.977" rx="1.055" width="9.088" x="28.148" y="114.771"/><rect fill="#8ccfb5" height="4.977" rx="1.055" width="9.088" x="41.44" y="114.771"/><rect fill="#6bb3d9" height="4.977" rx="1.055" width="9.088" x="54.733" y="114.771"/><rect fill="#ffc943" height="4.977" rx="1.055" width="9.088" x="68.025" y="114.771"/></svg>