<svg id="flat" height="512" viewBox="0 0 128 128" width="512" xmlns="http://www.w3.org/2000/svg"><path d="m12.927 9.972a2.406 2.406 0 0 0 -2.406 2.406v9.2l10.696 3.422 10.7-3.423v-11.605z" fill="#f6ba5b"/><path d="m31.912 21.574v-11.602h21.392v11.602l-10.696 3.423z" fill="#2f3a5a"/><path d="m53.304 21.574v-11.602h21.392v11.602l-10.696 3.423z" fill="#f6ba5b"/><path d="m74.696 21.574v-11.602h21.392v11.602l-10.696 3.423z" fill="#2f3a5a"/><path d="m115.073 9.972h-18.985v11.6l10.695 3.428 10.7-3.423v-9.2a2.406 2.406 0 0 0 -2.41-2.405z" fill="#f6ba5b"/><path d="m10.521 37.163h106.958v72.797h-106.958z" fill="#dbe2eb"/><path d="m25.6 42.529h-25.6l10.521-20.955h21.391z" fill="#f9c87e"/><path d="m51.2 42.529h-25.6l6.312-20.955h21.392z" fill="#43567c"/><path d="m76.8 42.529h-25.6l2.104-20.955h21.392z" fill="#f9c87e"/><path d="m102.4 42.529h-25.6l-2.104-20.955h21.392z" fill="#43567c"/><path d="m128 42.529h-25.6l-6.312-20.955h21.391z" fill="#f9c87e"/><path d="m0 42.529v5.958a12.8 12.8 0 0 0 25.6 0v-5.958z" fill="#f6ba5b"/><path d="m51.2 42.529v5.958a12.8 12.8 0 0 0 25.6 0v-5.958z" fill="#f6ba5b"/><path d="m102.4 42.529v5.958a12.8 12.8 0 1 0 25.6 0v-5.958z" fill="#f6ba5b"/><path d="m25.6 42.529v5.958a12.8 12.8 0 0 0 25.6 0v-5.958z" fill="#2f3a5a"/><path d="m76.8 42.529v5.958a12.8 12.8 0 0 0 25.6 0v-5.958z" fill="#2f3a5a"/><path d="m26.84 74.746h24.36v35.214h-24.36z" fill="#de8c34"/><g fill="#4fa4d1"><path d="m67.519 74.746h12.176v12.176h-12.176z"/><path d="m85.174 74.746h12.176v12.176h-12.176z"/><path d="m67.519 91.058h12.176v12.176h-12.176z"/><path d="m85.174 91.058h12.176v12.176h-12.176z"/></g><rect fill="#c1cdd3" height="8.068" rx="1.081" width="115.519" x="6.241" y="109.96"/></svg>