<svg id="flat" height="512" viewBox="0 0 128 128" width="512" xmlns="http://www.w3.org/2000/svg"><rect fill="#c79d8a" height="67.39" rx="2.596" width="67.39" x="30.305" y=".003"/><g opacity=".5"><path d="m97.694 2.6v62.2a2.6 2.6 0 0 1 -2.6 2.6h-62.194a2.6 2.6 0 0 1 -2.345-1.485h62.068a2.6 2.6 0 0 0 2.6-2.6v-62.196a2.528 2.528 0 0 0 -.262-1.119h.139a2.6 2.6 0 0 1 2.594 2.6z" fill="#a67f74"/></g><path d="m55.037 62.954a1 1 0 0 1 -1-.994l-.137-20.595a1 1 0 0 1 .993-1.007h.007a1 1 0 0 1 1 .994l.133 20.6a1 1 0 0 1 -.993 1.007z" fill="#2f3a5a"/><path d="m59.405 47.726a1 1 0 0 1 -.767-.358l-3.688-4.4-3.1 4.16a1 1 0 0 1 -1.6-1.2l3.85-5.168a1 1 0 0 1 .773-.4.957.957 0 0 1 .8.357l4.5 5.367a1 1 0 0 1 -.766 1.643z" fill="#2f3a5a"/><path d="m42.271 62.954a1 1 0 0 1 -1-.994l-.133-20.595a1 1 0 0 1 .993-1.007h.007a1 1 0 0 1 1 .994l.133 20.6a1 1 0 0 1 -.994 1.007z" fill="#2f3a5a"/><path d="m46.639 47.726a1 1 0 0 1 -.768-.358l-3.687-4.4-3.1 4.16a1 1 0 1 1 -1.6-1.2l3.858-5.173a1 1 0 0 1 .773-.4.957.957 0 0 1 .8.357l4.5 5.367a1 1 0 0 1 -.765 1.643z" fill="#2f3a5a"/><path d="m52.401.003h22.884v15.494h-22.884z" fill="#e1e6e9"/><path d="m88.546 47.8h-16.288a1 1 0 0 1 0-2h16.288a1 1 0 0 1 0 2z" fill="#a67f74"/><path d="m88.546 52.656h-16.288a1 1 0 0 1 0-2h16.288a1 1 0 0 1 0 2z" fill="#a67f74"/><path d="m88.546 57.51h-8.832a1 1 0 0 1 0-2h8.832a1 1 0 0 1 0 2z" fill="#a67f74"/><rect fill="#2f3a5a" height="6.058" rx="1.199" width="15.529" x="97.254" y="121.942"/><rect fill="#2f3a5a" height="6.058" rx="1.199" width="15.529" x="15.216" y="121.942"/><path d="m23.32 72.441h81.359v9.336h-81.359z" fill="#2f3a5a"/><path d="m119.985 121.556-6.813-40.224a2.175 2.175 0 0 0 -2.145-1.813h-94.054a2.175 2.175 0 0 0 -2.145 1.813l-6.813 40.224a2.176 2.176 0 0 0 2.145 2.544h107.68a2.176 2.176 0 0 0 2.145-2.544z" fill="#43567c"/><path d="m46.405 87.048h-21.705a2.521 2.521 0 0 0 -2.513 2l-3.255 23.2a2.038 2.038 0 0 0 2.11 2.353h23.73a2.556 2.556 0 0 0 2.562-2.353l1.2-23.2a2 2 0 0 0 -2.129-2z" fill="#6bb3d9"/><g fill="#d1ccec"><path d="m85.426 87.628h-4.526a.84.84 0 0 0 -.9.841l.221 4.115a.981.981 0 0 0 1.008.87h4.62a.841.841 0 0 0 .9-.87l-.311-4.115a.982.982 0 0 0 -1.012-.841z"/><path d="m95.051 87.628h-4.531a.809.809 0 0 0 -.87.841l.35 4.115a1.022 1.022 0 0 0 1.037.87h4.62a.809.809 0 0 0 .867-.87l-.444-4.115a1.021 1.021 0 0 0 -1.029-.841z"/><path d="m104.676 87.628h-4.532a.778.778 0 0 0 -.842.841l.488 4.115a1.063 1.063 0 0 0 1.064.87h4.621a.781.781 0 0 0 .839-.87l-.578-4.115a1.063 1.063 0 0 0 -1.06-.841z"/><path d="m86.113 97.135h-4.676a.878.878 0 0 0 -.925.9l.236 4.385a1.027 1.027 0 0 0 1.042.928h4.772a.88.88 0 0 0 .922-.928l-.33-4.385a1.028 1.028 0 0 0 -1.041-.9z"/><path d="m96.046 97.135h-4.676a.846.846 0 0 0 -.9.9l.378 4.385a1.071 1.071 0 0 0 1.073.928h4.779a.848.848 0 0 0 .893-.928l-.473-4.385a1.069 1.069 0 0 0 -1.074-.9z"/><path d="m105.979 97.135h-4.679a.816.816 0 0 0 -.867.9l.521 4.385a1.114 1.114 0 0 0 1.1.928h4.772a.817.817 0 0 0 .862-.928l-.615-4.385a1.113 1.113 0 0 0 -1.094-.9z"/><path d="m86.846 107.272h-4.832a.92.92 0 0 0 -.953.957l.251 4.683a1.079 1.079 0 0 0 1.08.992h4.933a.924.924 0 0 0 .951-.992l-.353-4.683a1.077 1.077 0 0 0 -1.077-.957z"/><path d="m97.108 107.272h-4.832a.886.886 0 0 0 -.922.957l.4 4.683a1.123 1.123 0 0 0 1.112.992h4.934a.89.89 0 0 0 .919-.992l-.505-4.683a1.121 1.121 0 0 0 -1.106-.957z"/><path d="m107.37 107.272h-4.832a.853.853 0 0 0 -.891.957l.556 4.683a1.168 1.168 0 0 0 1.143.992h4.933a.857.857 0 0 0 .887-.992l-.657-4.683a1.167 1.167 0 0 0 -1.139-.957z"/></g><rect fill="#43567c" height="6.743" rx="1.088" width="99.496" x="14.252" y="67.396"/></svg>