<svg id="flat" height="512" viewBox="0 0 128 128" width="512" xmlns="http://www.w3.org/2000/svg"><path d="m51.146 91.135h25.709v20.747h-25.709z" fill="#2f3a5a"/><rect fill="#43567c" height="79.031" rx="2.144" width="128" y="14.422"/><path d="m33.063-5.774h61.875v115.135h-61.875z" fill="#9bc6f1" transform="matrix(0 1 -1 0 115.793 -12.207)"/><rect fill="#43567c" height="4.503" rx="1.072" width="57.899" x="35.05" y="107.378"/><rect fill="#c79d8a" height="35.962" rx="1.503" width="39.01" x="19.355" y="33.484"/><g opacity=".5"><path d="m58.364 34.986v32.959a1.505 1.505 0 0 1 -1.5 1.5h-36a1.505 1.505 0 0 1 -1.357-.86h35.921a1.505 1.505 0 0 0 1.5-1.5v-32.954a1.456 1.456 0 0 0 -.15-.648h.079a1.5 1.5 0 0 1 1.507 1.503z" fill="#a67f74"/></g><path d="m32.145 33.484h13.247v8.969h-13.247z" fill="#e1e6e9"/><g fill="#2f3a5a"><path d="m32.965 64.152a1 1 0 0 1 -1-.993l-.07-9.495a1 1 0 0 1 .992-1.008h.013a1 1 0 0 1 1 .993l.07 9.5a1 1 0 0 1 -.992 1.007z"/><path d="m35.267 57.484a1 1 0 0 1 -.768-.358l-1.559-1.859-1.277 1.712a1 1 0 1 1 -1.6-1.2l2.033-2.725a1 1 0 0 1 .773-.4.94.94 0 0 1 .8.357l2.371 2.827a1 1 0 0 1 -.765 1.643z"/><path d="m24.939 64.152a1 1 0 0 1 -1-.993l-.069-9.495a1 1 0 0 1 .993-1.008h.007a1 1 0 0 1 1 .993l.069 9.5a1 1 0 0 1 -.993 1.007z"/><path d="m27.241 57.484a1 1 0 0 1 -.767-.358l-1.558-1.859-1.278 1.712a1 1 0 1 1 -1.6-1.2l2.034-2.725a1 1 0 0 1 .774-.4.965.965 0 0 1 .8.357l2.37 2.827a1 1 0 0 1 -.766 1.643z"/><path d="m83.938 48.894h-13.8a1 1 0 0 1 -1-1v-13.794a1 1 0 0 1 1-1h13.8a1 1 0 0 1 1 1v13.8a1 1 0 0 1 -1 .994zm-12.8-2h11.8v-11.794h-11.8z"/><path d="m108.646 38.487h-17.146a1 1 0 0 1 0-2h17.148a1 1 0 0 1 0 2z"/><path d="m108.646 45.5h-17.146a1 1 0 0 1 0-2h17.148a1 1 0 0 1 0 2z"/><path d="m83.938 69.836h-13.8a1 1 0 0 1 -1-1v-13.8a1 1 0 0 1 1-1h13.8a1 1 0 0 1 1 1v13.8a1 1 0 0 1 -1 1zm-12.8-2h11.8v-11.8h-11.8z"/><path d="m108.646 59.429h-17.146a1 1 0 0 1 0-2h17.148a1 1 0 0 1 0 2z"/><path d="m108.646 66.445h-17.146a1 1 0 1 1 0-2h17.148a1 1 0 1 1 0 2z"/><path d="m76.183 43.752a.993.993 0 0 1 -.707-.293l-1.5-1.494a1 1 0 0 1 1.424-1.414l.788.787 2.066-2.067a1 1 0 0 1 1.414 1.415l-2.778 2.773a1 1 0 0 1 -.707.293z"/><path d="m76.183 64.325a1 1 0 0 1 -.707-.293l-1.5-1.495a1 1 0 0 1 1.424-1.414l.788.788 2.066-2.067a1 1 0 0 1 1.414 1.414l-2.778 2.774a1 1 0 0 1 -.707.293z"/></g></svg>