<svg id="flat" height="512" viewBox="0 0 128 128" width="512" xmlns="http://www.w3.org/2000/svg"><path d="m116.111 117.307h-104.222v-72.998l52.111-25.157 52.111 25.157z" fill="#e1e6e9"/><path d="m128 47.643-64-36.95-64 36.95 4.477 7.754 59.523-34.366 59.523 34.366z" fill="#ef5361"/><path d="m31.847 62.536h64.305v54.771h-64.305z" fill="#43567c"/><rect fill="#c79d8a" height="24.085" rx=".928" width="24.085" x="37.894" y="93.221"/><g opacity=".5"><path d="m61.978 94.148v22.231a.929.929 0 0 1 -.928.928h-22.228a.93.93 0 0 1 -.838-.531h22.182a.929.929 0 0 0 .928-.928v-22.228a.9.9 0 0 0 -.093-.4h.049a.929.929 0 0 1 .928.928z" fill="#a67f74"/></g><g fill="#2f3a5a"><path d="m47.75 116.362a1 1 0 0 1 -1-.994l-.047-7.36a1 1 0 0 1 .997-1.008 1 1 0 0 1 1 .994l.047 7.36a1 1 0 0 1 -.993 1.007z"/><path d="m49.312 110.919a1 1 0 0 1 -.767-.357l-.8-.95-.624.836a1 1 0 1 1 -1.6-1.2l1.379-1.848a1 1 0 0 1 .773-.4.972.972 0 0 1 .794.357l1.608 1.918a1 1 0 0 1 -.765 1.642z"/><path d="m42.17 116.362a1 1 0 0 1 -1-.994l-.047-7.36a1 1 0 0 1 .993-1.008.99.99 0 0 1 1.007.994l.047 7.36a1 1 0 0 1 -.994 1.007z"/><path d="m43.731 110.919a1 1 0 0 1 -.766-.357l-.8-.95-.623.836a1 1 0 0 1 -1.6-1.2l1.379-1.848a1 1 0 0 1 .773-.4.974.974 0 0 1 .8.357l1.608 1.918a1 1 0 0 1 -.766 1.642z"/></g><path d="m45.791 93.221h8.179v5.537h-8.179z" fill="#e1e6e9"/><rect fill="#c79d8a" height="24.085" rx=".928" width="24.085" x="65.82" y="93.221"/><g opacity=".5"><path d="m89.905 94.148v22.231a.929.929 0 0 1 -.928.928h-22.228a.93.93 0 0 1 -.839-.531h22.182a.929.929 0 0 0 .928-.928v-22.228a.914.914 0 0 0 -.092-.4h.049a.93.93 0 0 1 .928.928z" fill="#a67f74"/></g><path d="m75.677 116.362a1 1 0 0 1 -1-.994l-.047-7.36a1 1 0 1 1 2-.013l.047 7.36a1 1 0 0 1 -.993 1.007z" fill="#2f3a5a"/><path d="m77.238 110.919a1 1 0 0 1 -.766-.357l-.8-.95-.623.836a1 1 0 1 1 -1.6-1.2l1.38-1.848a1 1 0 0 1 .773-.4.983.983 0 0 1 .794.357l1.604 1.92a1 1 0 0 1 -.766 1.642z" fill="#2f3a5a"/><path d="m70.1 116.362a1 1 0 0 1 -1-.994l-.048-7.36a1 1 0 0 1 .991-1.008h.006a1 1 0 0 1 1 .994l.048 7.36a1 1 0 0 1 -.994 1.007z" fill="#2f3a5a"/><path d="m71.658 110.919a1 1 0 0 1 -.767-.357l-.8-.95-.623.836a1 1 0 1 1 -1.6-1.2l1.379-1.848a1 1 0 0 1 .773-.4.981.981 0 0 1 .794.357l1.608 1.918a1 1 0 0 1 -.765 1.642z" fill="#2f3a5a"/><path d="m73.717 93.221h8.179v5.537h-8.179z" fill="#e1e6e9"/><rect fill="#c79d8a" height="24.085" rx=".928" width="24.085" x="52.503" y="69.134"/><g opacity=".5"><path d="m76.588 70.061v22.231a.929.929 0 0 1 -.928.928h-22.228a.93.93 0 0 1 -.838-.53h22.181a.929.929 0 0 0 .928-.928v-22.229a.9.9 0 0 0 -.092-.4h.049a.93.93 0 0 1 .928.928z" fill="#a67f74"/></g><path d="m62.36 92.275a1 1 0 0 1 -1-.993l-.047-7.361a1 1 0 0 1 .994-1.006h.006a1 1 0 0 1 1 .993l.047 7.361a1 1 0 0 1 -.993 1.006z" fill="#2f3a5a"/><path d="m63.921 86.833a1 1 0 0 1 -.766-.358l-.8-.95-.623.836a1 1 0 0 1 -1.6-1.2l1.38-1.849a1 1 0 0 1 .773-.4.976.976 0 0 1 .794.357l1.608 1.918a1 1 0 0 1 -.766 1.643z" fill="#2f3a5a"/><path d="m56.78 92.275a1 1 0 0 1 -1-.993l-.048-7.361a1 1 0 0 1 .994-1.006h.006a1 1 0 0 1 1 .993l.048 7.361a1 1 0 0 1 -.994 1.006z" fill="#2f3a5a"/><path d="m58.341 86.833a1 1 0 0 1 -.767-.358l-.8-.949-.623.835a1 1 0 1 1 -1.6-1.2l1.379-1.849a1 1 0 0 1 .773-.4.978.978 0 0 1 .8.357l1.607 1.918a1 1 0 0 1 -.765 1.643z" fill="#2f3a5a"/><path d="m60.4 69.134h8.179v5.537h-8.179z" fill="#e1e6e9"/></svg>