<svg id="flat" height="512" viewBox="0 0 128 128" width="512" xmlns="http://www.w3.org/2000/svg"><path d="m54.253 41.947a5.194 5.194 0 0 1 .961 6.037l-.1.2-2.035 2.455a5.457 5.457 0 0 0 -.909 5.456 99.18 99.18 0 0 0 9.105 10.653 99.207 99.207 0 0 0 10.632 9.084 5.457 5.457 0 0 0 5.456-.909l2.455-2.035.2-.1a5.194 5.194 0 0 1 6.037.961l11.89 11.889a4.616 4.616 0 0 1 -1.291 7.436l-7.8 5.273-.188.078a11.188 11.188 0 0 1 -9.793-.549 120.709 120.709 0 0 1 -26.359-19.961q-.618-.618-1.226-1.243c-.377-.365-.791-.774-1.2-1.185a120.751 120.751 0 0 1 -19.962-26.357 11.188 11.188 0 0 1 -.549-9.793l.078-.188 5.273-7.8a4.616 4.616 0 0 1 7.436-1.291z" fill="#a0ca8b"/><path d="m95.669 93.737.983-.665a4.616 4.616 0 0 0 1.291-7.436l-11.89-11.889a5.193 5.193 0 0 0 -6.037-.961l-.2.1-2.455 2.035c-.094.078-.2.142-.3.213z" fill="#86be7a"/><path d="m34.263 32.331 18.6 18.6c.071-.1.135-.2.213-.3l2.035-2.455.1-.2a5.194 5.194 0 0 0 -.961-6.037l-11.886-11.882a4.616 4.616 0 0 0 -7.436 1.291z" fill="#86be7a"/><g fill="#f9c87e"><path d="m64 126.566a4 4 0 0 1 0-8 54.573 54.573 0 0 0 28.364-101.191 4 4 0 0 1 4.164-6.831 62.573 62.573 0 0 1 -32.528 116.022z"/><path d="m96.045 39.246a4 4 0 0 1 -3.945-3.339l-4.014-23.989a4 4 0 0 1 4.114-4.657l24.491 1a4 4 0 1 1 -.329 7.993l-19.567-.8 3.205 19.13a4.006 4.006 0 0 1 -3.95 4.662z"/><path d="m31.816 116.942a3.986 3.986 0 0 1 -2.2-.66 62.572 62.572 0 0 1 34.384-114.848 4 4 0 0 1 0 8 54.571 54.571 0 0 0 -29.979 100.166 4 4 0 0 1 -2.205 7.341z"/><path d="m34.717 119.077c-.055 0-.11 0-.164 0l-24.491-1a4 4 0 1 1 .329-7.993l19.567.8-3.2-19.128a4 4 0 0 1 7.891-1.322l4.018 23.988a4 4 0 0 1 -3.945 4.661z"/></g></svg>