<svg id="flat" height="512" viewBox="0 0 128 128" width="512" xmlns="http://www.w3.org/2000/svg"><path d="m128 75.558h-79.982v-36.109a3.241 3.241 0 0 0 -3.236-3.236h-19.382a3.248 3.248 0 0 0 -2.4 1.044c-1.453 1.6-2.884 3.248-4.269 4.951a151.341 151.341 0 0 0 -16 24.163c-.806 1.487-1.6 3.008-2.384 4.541a3.182 3.182 0 0 0 -.347 1.476v14.829a3.234 3.234 0 0 0 3.236 3.236h124.764z" fill="#6bb3d9"/><path d="m35.222 42.208v24.163h-32.486a151.341 151.341 0 0 1 16-24.163z" fill="#43567c"/><path d="m125.7 26.109h-75.376a2.306 2.306 0 0 0 -2.306 2.3v47.149h79.982v-47.144a2.305 2.305 0 0 0 -2.3-2.305z" fill="#43567c"/><circle cx="23.78" cy="90.449" fill="#43567c" r="11.442" transform="matrix(.987 -.16 .16 .987 -14.181 4.977)"/><circle cx="23.78" cy="90.449" fill="#dbe2eb" r="5.399" transform="matrix(.987 -.16 .16 .987 -14.181 4.977)"/><circle cx="90.843" cy="90.449" fill="#43567c" r="11.442" transform="matrix(.987 -.16 .16 .987 -13.315 15.719)"/><circle cx="90.843" cy="90.449" fill="#dbe2eb" r="5.399" transform="matrix(.987 -.16 .16 .987 -13.315 15.719)"/><g fill="#2f3a5a"><path d="m121.144 36.406h-66.269a1 1 0 0 1 0-2h66.269a1 1 0 0 1 0 2z"/><path d="m121.144 46.691h-66.269a1 1 0 0 1 0-2h66.269a1 1 0 0 1 0 2z"/><path d="m121.144 56.976h-66.269a1 1 0 0 1 0-2h66.269a1 1 0 0 1 0 2z"/><path d="m121.144 67.26h-66.269a1 1 0 0 1 0-2h66.269a1 1 0 0 1 0 2z"/></g></svg>