<svg id="flat" height="512" viewBox="0 0 128 128" width="512" xmlns="http://www.w3.org/2000/svg"><rect fill="#dbe2eb" height="117.906" rx="8.109" width="128" y="8.652"/><path d="m128 33.338v-16.577a8.108 8.108 0 0 0 -8.109-8.109h-111.782a8.108 8.108 0 0 0 -8.109 8.109v16.577z" fill="#ef5361"/><g fill="#6bb3d9"><path d="m17.196 48.694h14.78v14.78h-14.78z"/><path d="m43.472 48.694h14.78v14.78h-14.78z"/><path d="m69.748 48.694h14.78v14.78h-14.78z"/><path d="m96.024 48.694h14.78v14.78h-14.78z"/><path d="m17.196 71.52h14.78v14.78h-14.78z"/><path d="m43.472 71.52h14.78v14.78h-14.78z"/><path d="m69.748 71.52h14.78v14.78h-14.78z"/><path d="m96.024 71.52h14.78v14.78h-14.78z"/><path d="m17.196 94.346h14.78v14.78h-14.78z"/><path d="m43.472 94.346h14.78v14.78h-14.78z"/><path d="m69.748 94.346h14.78v14.78h-14.78z"/><path d="m96.024 94.346h14.78v14.78h-14.78z"/></g><path d="m26.611 12.735a4.768 4.768 0 1 0 4.768 4.765 4.768 4.768 0 0 0 -4.768-4.765z" fill="#da2a47"/><path d="m51.653 12.735a4.768 4.768 0 1 0 4.767 4.765 4.768 4.768 0 0 0 -4.767-4.765z" fill="#da2a47"/><path d="m76.348 12.735a4.768 4.768 0 1 0 4.767 4.765 4.768 4.768 0 0 0 -4.767-4.765z" fill="#da2a47"/><path d="m101.043 12.735a4.768 4.768 0 1 0 4.767 4.765 4.768 4.768 0 0 0 -4.767-4.765z" fill="#da2a47"/><path d="m26.957 1.442a2.265 2.265 0 0 0 -2.265 2.265v12.921a2.266 2.266 0 0 0 4.531 0v-12.921a2.265 2.265 0 0 0 -2.266-2.265z" fill="#43567c"/><path d="m51.652 1.442a2.265 2.265 0 0 0 -2.265 2.265v12.921a2.266 2.266 0 0 0 4.531 0v-12.921a2.265 2.265 0 0 0 -2.266-2.265z" fill="#43567c"/><path d="m76.348 1.442a2.265 2.265 0 0 0 -2.266 2.265v12.921a2.266 2.266 0 0 0 4.531 0v-12.921a2.265 2.265 0 0 0 -2.265-2.265z" fill="#43567c"/><path d="m101.043 1.442a2.265 2.265 0 0 0 -2.266 2.265v12.921a2.266 2.266 0 0 0 4.531 0v-12.921a2.265 2.265 0 0 0 -2.265-2.265z" fill="#43567c"/></svg>