<svg id="flat" height="512" viewBox="0 0 128 128" width="512" xmlns="http://www.w3.org/2000/svg"><path d="m73.704 59.953h2.037v14.182h-2.037z" fill="#384868" transform="matrix(.851 -.525 .525 .851 -24.066 49.177)"/><path d="m62.942 96.972 6.574 3.82h20.29l7.914-9.617-1.672-16.051-9.587.78-7.133 2.453-5.462 4.411-4.013 6.513z" fill="#384868"/><path d="m72.873 21.42h-3.7l12.669 45.8-11.232 10.862h-6.025v-5.5a2.168 2.168 0 0 0 -.373-1.216l-3.428-5.066a2.17 2.17 0 0 0 -1.8-.952h-33.411l-2.873 3.983 26.537 24.669h19.221s2.726-6.025 4.447-9.324 7.89-6.6 7.89-6.6l6.826-3.671z" fill="#43567c"/><path d="m67.738 90.931h-13.9l-28.265-25.579a2.358 2.358 0 0 0 -1.58-.608h-18.044a2.355 2.355 0 0 0 -2.3 1.858l-3.481 16.166s-1.455 10.1 4.2 16.731l3.718.485s-2.422-16.484 11.803-17.216 16 13.174 15.68 18.024h36.406s-2.136-25.668 23.567-21.11v-5.4s-21.527-4.666-27.804 16.649z" fill="#f7b521"/><path d="m26.108 70.753c-.087 0-.176 0-.266-.011a3 3 0 0 1 -2.725-3.251l4.159-47.338a3 3 0 0 1 2.989-2.737h46.046a3 3 0 0 1 0 6h-43.3l-3.92 44.6a3 3 0 0 1 -2.983 2.737z" fill="#f7b521"/><path d="m125.983 85.527h-23.1v-62.089a2.018 2.018 0 0 0 -2.018-2.018h-3.305a2.017 2.017 0 0 0 -2.018 2.018v74.152l4.158-1.365 3.186-2.225h23.1a2.017 2.017 0 0 0 2.014-2.013v-4.442a2.018 2.018 0 0 0 -2.017-2.018z" fill="#384868"/><circle cx="21.504" cy="96.225" fill="#43567c" r="14.358"/><circle cx="21.504" cy="96.225" fill="#dbe2eb" r="7.454"/><circle cx="88.527" cy="96.225" fill="#43567c" r="14.358"/><circle cx="88.527" cy="96.225" fill="#dbe2eb" r="7.454"/><g fill="#384868"><path d="m54.154 59.505h-12.71v-12.9a1 1 0 0 0 -1.005-1.005h-4.677a1 1 0 0 0 -1.006 1.005v17.577a1.17 1.17 0 0 0 1.17 1.17h18.228a1 1 0 0 0 1.006-1.005v-3.836a1 1 0 0 0 -1.006-1.006z"/><path d="m75.762 56.78a1.4 1.4 0 0 0 -1.962-.28l-7.821 5.882a1.4 1.4 0 0 0 1.688 2.244l7.82-5.882a1.4 1.4 0 0 0 .275-1.964z"/></g></svg>