<svg id="flat" height="512" viewBox="0 0 128 128" width="512" xmlns="http://www.w3.org/2000/svg"><rect fill="#c79d8a" height="57.545" rx="2.217" width="57.545" x="54.826" y="46.971"/><g opacity=".5"><path d="m112.371 49.186v53.114a2.22 2.22 0 0 1 -2.218 2.217h-53.109a2.222 2.222 0 0 1 -2-1.268h53a2.219 2.219 0 0 0 2.217-2.217v-53.107a2.15 2.15 0 0 0 -.221-.956h.117a2.22 2.22 0 0 1 2.214 2.217z" fill="#a67f74"/></g><g fill="#2f3a5a"><path d="m74.808 100.872a1 1 0 0 1 -1-.994l-.113-17.586a1 1 0 1 1 2-.013l.113 17.587a1 1 0 0 1 -.994 1.006z"/><path d="m78.538 87.868a1 1 0 0 1 -.767-.357l-3.03-3.611-2.541 3.4a1 1 0 0 1 -1.6-1.2l3.3-4.417a1 1 0 0 1 .773-.4.973.973 0 0 1 .8.357l3.827 4.586a1 1 0 0 1 -.766 1.642z"/><path d="m65.043 100.872a1 1 0 0 1 -1-.994l-.113-17.586a1 1 0 0 1 .994-1.007 1.021 1.021 0 0 1 1.006.994l.113 17.587a1 1 0 0 1 -.993 1.006z"/><path d="m68.773 87.868a1 1 0 0 1 -.767-.357l-3.03-3.611-2.539 3.4a1 1 0 0 1 -1.6-1.2l3.3-4.417a1 1 0 0 1 .774-.4.971.971 0 0 1 .794.357l3.843 4.583a1 1 0 0 1 -.766 1.642z"/></g><path d="m73.694 46.971h19.541v13.231h-19.541z" fill="#e1e6e9"/><path d="m104.559 87.934h-13.909a1 1 0 0 1 0-2h13.909a1 1 0 0 1 0 2z" fill="#a67f74"/><path d="m104.559 92.079h-13.909a1 1 0 0 1 0-2h13.909a1 1 0 0 1 0 2z" fill="#a67f74"/><path d="m104.559 96.223h-7.542a1 1 0 0 1 0-2h7.542a1 1 0 0 1 0 2z" fill="#a67f74"/><path d="m49.354 28.844h-4.293v-20.579a2.175 2.175 0 0 0 -2.172-2.173h-17.167v-4.292h17.167a6.473 6.473 0 0 1 6.465 6.466z" fill="#43567c"/><path d="m113.03 104.42h-59.783v-75.836a6.04 6.04 0 0 0 -12.079 0v76.556a5.982 5.982 0 0 0 .626 2.659 6.025 6.025 0 0 0 5.414 8.7h65.822a6.039 6.039 0 0 0 0-12.078z" fill="#a0ca8b"/><circle cx="47.208" cy="110.459" fill="#43567c" r="17.541" transform="matrix(.707 -.707 .707 .707 -64.28 65.734)"/><circle cx="47.208" cy="110.459" fill="#dbe2eb" r="8.849" transform="matrix(.707 -.707 .707 .707 -64.28 65.734)"/><rect fill="#84879c" height="8.11" rx="3.778" width="25.189" x="8.931"/></svg>