<svg id="flat" height="512" viewBox="0 0 128 128" width="512" xmlns="http://www.w3.org/2000/svg"><path d="m64 9.266a2.127 2.127 0 0 0 -2.127 2.127v84.083h4.255v-84.083a2.127 2.127 0 0 0 -2.128-2.127z" fill="#2f3a5a"/><g fill="#43567c"><path d="m64 16.035c-31.606 0-57.838 20.886-63 48.321 12.528-5.551 24.857-5.745 36.965 0 16-6.5 33.238-7.052 52.07 0 11.946-6.193 24.266-6.23 36.965 0-5.162-27.435-31.394-48.321-63-48.321z"/><path d="m64 16.035c-31.606 0-57.838 20.886-63 48.321 12.528-5.551 24.857-5.745 36.965 0 2.135-27.435 12.974-48.321 26.035-48.321z"/><path d="m64 16.035c13.061 0 23.9 20.886 26.035 48.321 11.946-6.193 24.266-6.23 36.965 0-5.162-27.435-31.394-48.321-63-48.321z"/></g><path d="m64 16.035c-13.061 0-23.9 20.886-26.035 48.321 16-6.5 33.238-7.051 52.07 0-2.135-27.435-12.974-48.321-26.035-48.321z" fill="#384868"/><path d="m61.874 92.039v15.161a6.667 6.667 0 0 1 -6.667 6.668 6.667 6.667 0 0 1 -6.667-6.668v-4.6l-4.749-.052v5.016a11.169 11.169 0 0 0 11.169 11.17 11.17 11.17 0 0 0 11.169-11.169v-15.526z" fill="#bac2d3"/></svg>