<svg id="flat" height="512" viewBox="0 0 128 128" width="512" xmlns="http://www.w3.org/2000/svg"><rect fill="#c79d8a" height="63.447" rx="2.445" width="63.447" x="32.277" y="1.18"/><g opacity=".5"><path d="m95.723 3.622v58.563a2.448 2.448 0 0 1 -2.445 2.445h-58.556a2.449 2.449 0 0 1 -2.208-1.4h58.434a2.448 2.448 0 0 0 2.445-2.445v-58.554a2.37 2.37 0 0 0 -.244-1.054h.129a2.448 2.448 0 0 1 2.445 2.445z" fill="#a67f74"/></g><g fill="#2f3a5a"><path d="m54.308 60.506a1 1 0 0 1 -1-.994l-.124-19.39a1 1 0 0 1 .993-1.006 1.029 1.029 0 0 1 1.007.993l.124 19.391a1 1 0 0 1 -.994 1.006z"/><path d="m58.42 46.168a1 1 0 0 1 -.767-.357l-3.424-4.084-2.876 3.856a1 1 0 0 1 -1.6-1.2l3.633-4.869a1 1 0 0 1 .773-.4.991.991 0 0 1 .8.357l4.236 5.053a1 1 0 0 1 -.766 1.642z"/><path d="m43.542 60.506a1 1 0 0 1 -1-.994l-.125-19.39a1 1 0 0 1 .994-1.006 1.017 1.017 0 0 1 1.006.993l.125 19.391a1 1 0 0 1 -.994 1.006z"/><path d="m47.654 46.168a1 1 0 0 1 -.767-.357l-3.424-4.084-2.878 3.856a1 1 0 1 1 -1.6-1.2l3.633-4.869a1 1 0 0 1 1.568-.045l4.235 5.053a1 1 0 0 1 -.765 1.642z"/></g><path d="m53.08 1.18h21.545v14.587h-21.545z" fill="#e1e6e9"/><path d="m87.109 46.241h-15.335a1 1 0 0 1 0-2h15.335a1 1 0 0 1 0 2z" fill="#a67f74"/><path d="m87.109 50.811h-15.335a1 1 0 0 1 0-2h15.335a1 1 0 0 1 0 2z" fill="#a67f74"/><path d="m87.109 55.38h-8.315a1 1 0 0 1 0-2h8.315a1 1 0 0 1 0 2z" fill="#a67f74"/><path d="m122.326 46.98a8.957 8.957 0 0 0 -8.832 7.83l-2.53 19.941-7.653 19.841-3.007-.238 5.031-17.12a7.1 7.1 0 0 0 -6.8-8.495l-9.907 24.27v33.814h28.082l-4.377-17.823 9.993-31.363z" fill="#e8c79c"/><path d="m5.674 46.98a8.957 8.957 0 0 1 8.832 7.83l2.53 19.941 7.653 19.841 3.007-.238-5.031-17.12a7.1 7.1 0 0 1 6.8-8.495l9.907 24.27v33.814h-28.081l4.376-17.823-9.993-31.363z" fill="#e8c79c"/></svg>