<svg id="flat" height="512" viewBox="0 0 128 128" width="512" xmlns="http://www.w3.org/2000/svg"><g transform="matrix(.707 -.707 .707 .707 -30.931 62.082)"><circle cx="59.475" cy="68.378" fill="#dbe2eb" r="59.475"/><circle cx="59.475" cy="68.378" fill="#ef5361" r="47.945"/><circle cx="59.475" cy="68.378" fill="#e1e6e9" r="36.031"/><circle cx="59.475" cy="68.378" fill="#ef5361" r="25.077"/></g><circle cx="59.475" cy="68.378" fill="#e1e6e9" r="13.007"/><path d="m108.89.824 3.638 10.828-22.643 22.648-3.9-11.61a1.258 1.258 0 0 1 .3-1.287l20.962-20.965a.993.993 0 0 1 1.643.386z" fill="#8ccfb5"/><path d="m127.323 19.257-10.823-3.638-22.648 22.643 11.609 3.9a1.254 1.254 0 0 0 1.287-.3l20.961-20.962a.993.993 0 0 0 -.386-1.643z" fill="#8ccfb5"/><path d="m120.73 7.417a3.373 3.373 0 0 0 -4.77 0l-60.153 60.154a3.5 3.5 0 0 0 -.26 4.773 3.373 3.373 0 0 0 4.894.132l60.289-60.289a3.373 3.373 0 0 0 0-4.77z" fill="#43567c"/></svg>