<svg id="flat" height="512" viewBox="0 0 128 128" width="512" xmlns="http://www.w3.org/2000/svg"><circle cx="64" cy="72.47" fill="#2f3a5a" r="55.53" transform="matrix(.707 -.707 .707 .707 -32.499 66.481)"/><circle cx="64" cy="72.47" fill="#c1cdd3" r="45.63" transform="matrix(.383 -.924 .924 .383 -27.445 103.865)"/><circle cx="64" cy="72.47" fill="#dbe2eb" r="41.023" transform="matrix(.383 -.924 .924 .383 -27.445 103.865)"/><path d="m55.681 64.15-17.906 34.545 34.545-17.906 17.905-34.544z" fill="#6bb3d9"/><path d="m55.681 64.15 16.639 16.639 17.905-34.544z" fill="#ef5361"/><circle cx="64" cy="72.47" fill="#fff" r="7.37"/><g fill="#2f3a5a"><path d="m64 35.783a.992.992 0 0 1 -.992-.992v-4.941a.992.992 0 0 1 1.984 0v4.941a.992.992 0 0 1 -.992.992z"/><path d="m64 116.082a.992.992 0 0 1 -.992-.992v-4.941a.992.992 0 0 1 1.984 0v4.941a.992.992 0 0 1 -.992.992z"/><path d="m106.62 73.462h-4.941a.992.992 0 0 1 0-1.984h4.941a.992.992 0 1 1 0 1.984z"/><path d="m26.321 73.462h-4.941a.992.992 0 0 1 0-1.984h4.941a.992.992 0 1 1 0 1.984z"/><rect height="10.18" rx="1.235" width="9.663" x="59.168" y="9.51"/><path d="m72.636 14.588h-17.272a3.778 3.778 0 0 1 -3.774-3.774v-7.04a3.778 3.778 0 0 1 3.774-3.774h17.272a3.778 3.778 0 0 1 3.774 3.774v7.04a3.778 3.778 0 0 1 -3.774 3.774zm-17.272-12.604a1.792 1.792 0 0 0 -1.79 1.79v7.04a1.792 1.792 0 0 0 1.79 1.79h17.272a1.792 1.792 0 0 0 1.79-1.79v-7.04a1.792 1.792 0 0 0 -1.79-1.79z"/></g></svg>