<svg id="flat" height="512" viewBox="0 0 128 128" width="512" xmlns="http://www.w3.org/2000/svg"><path d="m58.789.236h10.422v123.295h-10.422z" fill="#c6a283"/><path d="m126.692 20.7-9.686-11.467a2.4 2.4 0 0 0 -1.832-.85h-64.621a2.4 2.4 0 0 0 -2.4 2.4v22.93a2.4 2.4 0 0 0 2.4 2.4h64.621a2.4 2.4 0 0 0 1.832-.851l9.686-11.465a2.4 2.4 0 0 0 0-3.097z" fill="#ddb087"/><path d="m77.447 44.823h-64.621a2.4 2.4 0 0 0 -1.832.851l-9.686 11.465a2.4 2.4 0 0 0 0 3.095l9.686 11.466a2.4 2.4 0 0 0 1.832.85h64.621a2.4 2.4 0 0 0 2.4-2.4v-22.929a2.4 2.4 0 0 0 -2.4-2.398z" fill="#ddb087"/><path d="m87.694 117.183h-47.388a3.087 3.087 0 0 0 -3.087 3.086v7.495h53.562v-7.495a3.087 3.087 0 0 0 -3.087-3.086z" fill="#d8b18c"/></svg>