<svg id="flat" height="512" viewBox="0 0 128 128" width="512" xmlns="http://www.w3.org/2000/svg"><path d="m94.363 76.437-37.845-35.588a5.8 5.8 0 0 0 -5.042-1.475l-12.033 2.254-7.923-2.8-14.33 27.072s11.71 14.952 15.805 18.612 26.42 12.678 33.741 14.581 7.8-4.867 7.8-4.867c6 1.024 7.361-4.882 7.361-4.882 9.078.732 7.467-5.417 7.467-5.417 3.162.744 4.853-.192 5.753-1.519a4.658 4.658 0 0 0 -.754-5.971z" fill="#ddb087"/><g fill="#f0c191"><path d="m93.9 41.906-4.539 1.317-18.925-2.163a9.4 9.4 0 0 0 -3.111.163l-11.968 2.66a9.409 9.409 0 0 0 -5.776 3.946c-1.566 2.334-3.618 5.51-4.85 7.879a1.829 1.829 0 0 0 1.209 2.632c3.2.731 9.276 1.271 12.824-3.843l8.053-.878 27.864 23.147 13.132-7.92 3.514-3.953z"/><path d="m62.484 90.724a3.513 3.513 0 0 0 -4.773 1.376l-2.3 4.172a3.513 3.513 0 1 0 6.15 3.4l2.3-4.173a3.512 3.512 0 0 0 -1.377-4.775z"/><path d="m56.548 85.466a4.225 4.225 0 0 0 -5.741 1.656l-2.772 5.018a4.225 4.225 0 0 0 7.4 4.086l2.765-5.018a4.226 4.226 0 0 0 -1.652-5.742z"/><path d="m49.151 81.38a4.225 4.225 0 0 0 -5.741 1.655l-2.772 5.019a4.225 4.225 0 0 0 7.4 4.086l2.772-5.018a4.226 4.226 0 0 0 -1.659-5.742z"/><path d="m41.754 77.294a4.225 4.225 0 0 0 -5.741 1.655l-2.773 5.018a4.226 4.226 0 0 0 7.4 4.087l2.772-5.019a4.225 4.225 0 0 0 -1.658-5.741z"/></g><rect fill="#f26176" height="38.68" rx="1.662" transform="matrix(.845 -.535 .535 .845 -9.838 66.219)" width="21.341" x="98.599" y="30.733"/><path d="m127.743 59.305-5.189-8.194c-.027.026-.056.05-.084.076l.221.35a1.665 1.665 0 0 1 -.515 2.293l-15.221 9.638a1.664 1.664 0 0 1 -1.878-.075l4.636 7.329a1.664 1.664 0 0 0 2.293.515l15.222-9.637a1.668 1.668 0 0 0 .515-2.295z" fill="#e95a6a"/><rect fill="#6bb3d9" height="21.341" rx="1.662" transform="matrix(.596 -.803 .803 .596 -30.489 34.9)" width="38.68" x=".09" y="37.072"/><path d="m22.98 60.691-.285.384a1.66 1.66 0 0 1 -2.327.341l-14.468-10.735a1.657 1.657 0 0 1 -.612-1.781l-4.96 6.683a1.667 1.667 0 0 0 .34 2.327l14.474 10.735a1.662 1.662 0 0 0 2.327-.349l5.58-7.523c-.023-.027-.049-.054-.069-.082z" fill="#4fa4d1"/></svg>