<svg id="flat" height="512" viewBox="0 0 128 128" width="512" xmlns="http://www.w3.org/2000/svg"><path d="m125.291 50.517c-2.723-19.485-17.021-48.532-61.291-50.517-44.27 1.985-58.568 31.032-61.291 50.517s7.053 40.052 7.053 40.052l13.892-9.2s-16.583-3.4-10.96-38.429c4.455-27.755 34.064-30.783 46.166-30.84 3.171-.016 8.443-.144 13.382.077 13.429.6 38.953 5.157 43.064 30.765 5.623 35.026-10.96 38.429-10.96 38.429l13.892 9.2s9.777-20.571 7.053-40.054z" fill="#43567c"/><path d="m4.456 80.747 10.844-11.529 31.533 54.524-12.76 3.966a6.394 6.394 0 0 1 -6.064-1.233c-14.925-12.819-22.353-31.447-24.972-39.303a6.418 6.418 0 0 1 1.419-6.425z" fill="#384868"/><rect fill="#2f3a5a" height="71.445" rx="4.489" transform="matrix(-.866 .5 -.5 -.866 111.566 158.245)" width="10.007" x="29.579" y="58.347"/><path d="m123.544 80.747-10.844-11.529-31.529 54.524 12.76 3.966a6.394 6.394 0 0 0 6.069-1.233c14.921-12.819 22.349-31.447 24.968-39.3a6.418 6.418 0 0 0 -1.424-6.428z" fill="#384868"/><rect fill="#2f3a5a" height="71.445" rx="4.489" transform="matrix(.866 .5 -.5 .866 59.55 -34.106)" width="10.007" x="88.414" y="58.347"/></svg>