<svg id="flat" height="512" viewBox="0 0 128 128" width="512" xmlns="http://www.w3.org/2000/svg"><path d="m69.015 0h8.971v33.46h-8.971z" fill="#c08e78"/><path d="m59.471 82.169h14.029v45.831h-14.029z" fill="#c08e78"/><path d="m96.842 21.393h-57.619l-3.15 72.844h87.132v-46.481a26.363 26.363 0 0 0 -26.363-26.363z" fill="#ddb087"/><path d="m39.223 21.393a26.363 26.363 0 0 0 -26.363 26.363v46.481h52.726v-46.481a26.363 26.363 0 0 0 -26.363-26.363z" fill="#f0c191"/><path d="m39.223 28.769a19.186 19.186 0 0 0 -19.164 19.164v38.923h38.328v-38.923a19.186 19.186 0 0 0 -19.164-19.164z" fill="#ddb087"/><path d="m69.015 0h22.636v13.961h-22.636z" fill="#ef5361"/><path d="m53.364 57.84c-.009-.008-.025-.016-.033-.024l-20.714 16.5-3.365 2.684 2.4.97 21.555 8.686a.4.4 0 0 0 .064-.056 1.115 1.115 0 0 0 .433-.889v-27.045a1.179 1.179 0 0 0 -.34-.826z" fill="#d7dbdd"/><path d="m25.886 74.316-20.714-16.492q-.012 0-.024.024a1.118 1.118 0 0 0 -.353.818v27.045a1.126 1.126 0 0 0 .433.889.216.216 0 0 0 .064.056l21.564-8.686 2.4-.97z" fill="#d7dbdd"/><path d="m34.436 75.4-1.819-1.082-3.365-2-3.366 2-1.811 1.073-18.847 11.209a.216.216 0 0 0 .064.056 1.131 1.131 0 0 0 .649.2h46.629a1.106 1.106 0 0 0 .641-.2.4.4 0 0 0 .064-.056z" fill="#cdd0d1"/><path d="m53.331 57.816a1.114 1.114 0 0 0 -.761-.3h-46.629a1.1 1.1 0 0 0 -.769.3q-.012 0-.024.024l18.927 17.549 2.781 2.581.785.729a2.382 2.382 0 0 0 3.229 0l.786-.729 2.78-2.572 18.928-17.558c-.009-.008-.025-.016-.033-.024z" fill="#e1e6e9"/></svg>