<svg id="flat" height="512" viewBox="0 0 128 128" width="512" xmlns="http://www.w3.org/2000/svg"><path d="m74.909 78.078v-17.752h-24.164v17.752h-7.278v32.756h44.141l-.82-28.323z" fill="#d6b792"/><ellipse cx="63.903" cy="40.573" fill="#e8c79c" rx="23.822" ry="29.428"/><path d="m112.073 128v-26.333a23.6 23.6 0 0 0 -23.608-23.589h-13.1l-7.843 4.107-4.69 13.351-4.749-13.351-7.493-2.3-4.943-1.81h-6.112a23.6 23.6 0 0 0 -23.608 23.589v26.336z" fill="#4fa4d1"/><path d="m74.874 69.568-7.357 12.616 11.917 12.535 3.909-16.638z" fill="#6bb3d9"/><path d="m50.718 69.568 7.357 12.616-11.918 12.535-3.908-16.638z" fill="#6bb3d9"/><path d="m89.928 35.565c-1.744-.29-3.687 2.656-4.339 6.58s.232 7.341 1.976 7.631 3.687-2.656 4.335-6.576-.228-7.345-1.972-7.635z" fill="#e8c79c"/><path d="m37.877 35.565c1.745-.29 3.688 2.656 4.34 6.58s-.232 7.341-1.976 7.631-3.687-2.656-4.341-6.576.233-7.345 1.977-7.635z" fill="#e8c79c"/><path d="m84.002 28.524 1.426 17.256h1.923l1.396-15.396z" fill="#43567c"/><path d="m43.467 28.524-1.426 17.256h-1.923l-1.396-15.396z" fill="#43567c"/><path d="m63.674 0c-18.065 0-25.674 14.64-25.674 28.253s11.493 1.147 25.674 1.147 25.675 12.467 25.675-1.145-6.368-28.255-25.675-28.255z" fill="#6bb3d9"/><path d="m54.53 35.632a1.43 1.43 0 0 1 -.575-.118c-1.134-.488-1.595-2.442-1.595-6.748 0-14.313 3.5-28.754 11.315-28.754 10.5 0 11.313 22.009 11.313 28.754 0 4.306-.461 6.26-1.595 6.748s-2.381-.589-3.97-1.947c-1.642-1.405-3.686-3.154-5.75-3.154s-4.107 1.748-5.751 3.154c-1.322 1.133-2.413 2.065-3.392 2.065zm9.143-6.222c2.462 0 4.671 1.891 6.446 3.409 1.1.937 2.329 2 2.847 1.78.365-.157.977-1.124.977-5.833 0-13.416-2.7-27.752-10.268-27.752-7.056 0-10.275 14.386-10.275 27.752 0 4.709.612 5.676.977 5.833.528.222 1.752-.843 2.848-1.78 1.775-1.519 3.986-3.409 6.448-3.409z" fill="#477ea8"/><path d="m38.844 32.9 3.953 7.45a2.463 2.463 0 0 0 3.161 1.029 45.351 45.351 0 0 1 35.451 0 2.462 2.462 0 0 0 3.16-1.029l3.954-7.45a56.751 56.751 0 0 0 -49.679 0z" fill="#4fa4d1"/></svg>