<svg id="flat" height="512" viewBox="0 0 128 128" width="512" xmlns="http://www.w3.org/2000/svg"><rect fill="#43567c" height="76.088" rx="5.84" width="113.08" x="7.46" y="20.1"/><path d="m16.319 29.235h95.361v55.142h-95.361z" fill="#91d2d8"/><path d="m126.125 96.188h-124.25a1.873 1.873 0 0 0 -1.592 2.858l3.517 5.678a6.706 6.706 0 0 0 5.7 3.176h109a6.706 6.706 0 0 0 5.7-3.176l3.516-5.678a1.873 1.873 0 0 0 -1.591-2.858z" fill="#384868"/><path d="m55.635 96.188h16.729v3.237h-16.729z" fill="#2f3a5a"/><rect fill="#c79d8a" height="39.376" rx="1.517" width="39.376" x="44.312" y="38.001"/><g opacity=".5"><path d="m83.688 39.517v36.345a1.52 1.52 0 0 1 -1.518 1.518h-36.34a1.521 1.521 0 0 1 -1.371-.868h36.265a1.52 1.52 0 0 0 1.518-1.512v-36.346a1.47 1.47 0 0 0 -.152-.654h.08a1.52 1.52 0 0 1 1.518 1.517z" fill="#a67f74"/></g><g fill="#2f3a5a"><path d="m58.764 75.2a1 1 0 0 1 -1-.994l-.077-12.034a1 1 0 0 1 .993-1.006h.007a1 1 0 0 1 1 .994l.077 12.033a1 1 0 0 1 -.994 1.007z"/><path d="m61.315 66.3a1 1 0 0 1 -.767-.358l-1.816-2.167-1.5 2.009a1 1 0 0 1 -1.6-1.2l2.255-3.022a1 1 0 0 1 1.568-.045l2.629 3.136a1 1 0 0 1 -.767 1.643z"/><path d="m51.3 75.2a1 1 0 0 1 -1-.994l-.077-12.034a1 1 0 0 1 .994-1.006 1.038 1.038 0 0 1 1.006.994l.077 12.033a1 1 0 0 1 -.99 1.007z"/><path d="m53.855 66.3a1 1 0 0 1 -.766-.358l-1.818-2.167-1.5 2.009a1 1 0 1 1 -1.6-1.2l2.255-3.022a1 1 0 0 1 1.567-.045l2.629 3.136a1 1 0 0 1 -.766 1.643z"/></g><path d="m57.223 38.001h13.371v9.053h-13.371z" fill="#e1e6e9"/></svg>