<svg id="flat" height="512" viewBox="0 0 128 128" width="512" xmlns="http://www.w3.org/2000/svg"><g fill="#2f3a5a"><path d="m29.032 126.79h-17.3a1.008 1.008 0 0 1 -1.008-1.008v-105.423a1.008 1.008 0 0 1 1.008-1.008h17.3a1.007 1.007 0 0 1 1.007 1.008v105.423a1.007 1.007 0 0 1 -1.007 1.008zm-16.29-2.016h15.282v-103.407h-15.282z"/><path d="m11.734 126.79a1.008 1.008 0 0 1 -.719-1.714l17.227-17.57a1.008 1.008 0 0 1 1.439 1.411l-17.227 17.571a1.006 1.006 0 0 1 -.72.302z"/><path d="m28.962 126.79a1.006 1.006 0 0 1 -.72-.3l-17.227-17.573a1.008 1.008 0 1 1 1.439-1.411l17.227 17.57a1.008 1.008 0 0 1 -.719 1.714z"/><path d="m11.734 109.22a1.009 1.009 0 0 1 -.719-1.714l17.227-17.571a1.008 1.008 0 0 1 1.439 1.411l-17.227 17.571a1 1 0 0 1 -.72.303z"/><path d="m28.962 109.22a1 1 0 0 1 -.72-.3l-17.227-17.574a1.008 1.008 0 1 1 1.439-1.411l17.227 17.571a1.009 1.009 0 0 1 -.719 1.714z"/><path d="m11.734 91.649a1.009 1.009 0 0 1 -.719-1.714l17.227-17.57a1.008 1.008 0 0 1 1.439 1.411l-17.227 17.57a1 1 0 0 1 -.72.303z"/><path d="m28.962 91.649a1 1 0 0 1 -.72-.3l-17.227-17.573a1.008 1.008 0 1 1 1.439-1.411l17.227 17.57a1.009 1.009 0 0 1 -.719 1.714z"/><path d="m11.734 74.078a1.007 1.007 0 0 1 -.719-1.713l17.227-17.571a1.008 1.008 0 0 1 1.439 1.412l-17.227 17.57a1.006 1.006 0 0 1 -.72.302z"/><path d="m28.962 74.078a1.006 1.006 0 0 1 -.72-.3l-17.227-17.572a1.008 1.008 0 0 1 1.439-1.412l17.227 17.571a1.007 1.007 0 0 1 -.719 1.713z"/><path d="m11.734 56.508a1.008 1.008 0 0 1 -.719-1.714l17.227-17.57a1.008 1.008 0 0 1 1.439 1.411l-17.227 17.571a1.006 1.006 0 0 1 -.72.302z"/><path d="m28.962 56.508a1.006 1.006 0 0 1 -.72-.3l-17.227-17.573a1.008 1.008 0 1 1 1.439-1.411l17.227 17.57a1.008 1.008 0 0 1 -.719 1.714z"/><path d="m11.734 38.938a1.009 1.009 0 0 1 -.719-1.714l17.227-17.57a1.008 1.008 0 0 1 1.439 1.411l-17.227 17.57a1 1 0 0 1 -.72.303z"/><path d="m28.962 38.938a1 1 0 0 1 -.72-.3l-17.227-17.573a1.008 1.008 0 0 1 1.439-1.411l17.227 17.57a1.009 1.009 0 0 1 -.719 1.714z"/><path d="m113.637 28.457h-112.629a1.008 1.008 0 0 1 -1.008-1.008v-14.179a1.008 1.008 0 0 1 1.008-1.008h93.857a1 1 0 0 1 .607.2l18.772 14.179a1.008 1.008 0 0 1 -.607 1.812zm-111.621-2.016h108.614l-16.1-12.163h-92.514z"/><path d="m19.779 28.4a1 1 0 0 1 -.606-.2l-18.773-14.125a1.008 1.008 0 0 1 1.212-1.611l18.774 14.121a1.008 1.008 0 0 1 -.607 1.814z"/><path d="m1.009 28.4a1.008 1.008 0 0 1 -.609-1.815l18.773-14.121a1.008 1.008 0 0 1 1.213 1.611l-18.772 14.125a1 1 0 0 1 -.605.2z"/><path d="m38.55 28.4a1 1 0 0 1 -.6-.2l-18.777-14.125a1.008 1.008 0 0 1 1.213-1.611l18.772 14.121a1.009 1.009 0 0 1 -.608 1.815z"/><path d="m19.781 28.4a1.008 1.008 0 0 1 -.608-1.814l18.772-14.122a1.008 1.008 0 0 1 1.213 1.611l-18.772 14.125a1 1 0 0 1 -.605.2z"/><path d="m57.322 28.4a1 1 0 0 1 -.605-.2l-18.772-14.125a1.008 1.008 0 0 1 1.213-1.611l18.771 14.121a1.008 1.008 0 0 1 -.607 1.814z"/><path d="m38.552 28.4a1.008 1.008 0 0 1 -.607-1.814l18.772-14.122a1.008 1.008 0 0 1 1.212 1.611l-18.771 14.125a1.007 1.007 0 0 1 -.606.2z"/><path d="m76.094 28.4a1 1 0 0 1 -.606-.2l-18.771-14.125a1.008 1.008 0 0 1 1.212-1.611l18.771 14.121a1.008 1.008 0 0 1 -.607 1.814z"/><path d="m57.324 28.4a1.008 1.008 0 0 1 -.607-1.814l18.771-14.122a1.008 1.008 0 0 1 1.212 1.611l-18.771 14.125a1 1 0 0 1 -.605.2z"/><path d="m94.864 28.4a1 1 0 0 1 -.605-.2l-18.771-14.125a1.008 1.008 0 0 1 1.212-1.611l18.77 14.121a1.008 1.008 0 0 1 -.607 1.814z"/><path d="m76.1 28.4a1.008 1.008 0 0 1 -.608-1.814l18.767-14.122a1.008 1.008 0 0 1 1.212 1.611l-18.771 14.125a1 1 0 0 1 -.6.2z"/><path d="m113.636 28.4a1 1 0 0 1 -.6-.2l-18.777-14.125a1.008 1.008 0 0 1 1.212-1.611l18.772 14.121a1.008 1.008 0 0 1 -.607 1.814z"/><path d="m94.866 28.4a1.008 1.008 0 0 1 -.607-1.814l9.386-7.06a1.008 1.008 0 0 1 1.212 1.611l-9.386 7.063a1 1 0 0 1 -.605.2z"/></g><path d="m31.276 5.269-9.6-3.811a3.508 3.508 0 0 0 -2.583 0l-9.668 3.813a3.511 3.511 0 0 0 -2.225 3.265v25.884a3.511 3.511 0 0 0 3.51 3.51h19.271a3.51 3.51 0 0 0 3.51-3.51v-25.889a3.509 3.509 0 0 0 -2.215-3.262z" fill="#707583"/><path d="m83.505 27.449h21.817v6.219h-21.817z" fill="#84879c"/><path d="m105.322 34.676h-21.817a1.008 1.008 0 0 1 -1.005-1.008v-6.219a1.008 1.008 0 0 1 1.008-1.008h21.817a1.008 1.008 0 0 1 1.008 1.008v6.219a1.008 1.008 0 0 1 -1.011 1.008zm-20.809-2.016h19.8v-4.2h-19.8z" fill="#2f3a5a"/><circle cx="20.348" cy="20.33" fill="#2f3a5a" r="6.654"/><path d="m62.7 82.721a1.009 1.009 0 0 1 -.405-1.932l31.715-13.861a1.013 1.013 0 0 1 .835.012l29.313 13.86a1.008 1.008 0 0 1 -.863 1.822l-28.895-13.663-31.3 13.677a1 1 0 0 1 -.4.085z" fill="#2f3a5a"/><rect fill="#f26176" height="37.776" rx="2.125" width="67.996" x="60.004" y="80.739"/><path d="m78.802 69.441h30.4v60.373h-30.4z" fill="#ef5361" transform="matrix(0 1 -1 0 193.629 5.625)"/><path d="m67.94 84.427h2.954v30.4h-2.954z" fill="#f26176"/><path d="m74.965 84.427h2.954v30.4h-2.954z" fill="#f26176"/><path d="m81.989 84.427h2.954v30.4h-2.954z" fill="#f26176"/><path d="m89.013 84.427h2.954v30.4h-2.954z" fill="#f26176"/><path d="m96.037 84.427h2.954v30.4h-2.954z" fill="#f26176"/><path d="m103.061 84.427h2.954v30.4h-2.954z" fill="#f26176"/><path d="m110.085 84.427h2.954v30.4h-2.954z" fill="#f26176"/><path d="m117.11 84.427h2.954v30.4h-2.954z" fill="#f26176"/><path d="m94.413 68.859a3.357 3.357 0 0 1 -3.353-3.353 1.008 1.008 0 0 1 2.016 0 1.338 1.338 0 1 0 1.337-1.338 1.007 1.007 0 0 1 -1.007-1.008v-29.492a1.008 1.008 0 1 1 2.015 0v28.639a3.353 3.353 0 0 1 -1.008 6.552z" fill="#2f3a5a"/></svg>