<svg id="flat" height="512" viewBox="0 0 128 128" width="512" xmlns="http://www.w3.org/2000/svg"><rect fill="#c79d8a" height="83.43" rx="3.214" width="83.43" x="31.37" y=".003"/><g opacity=".5"><path d="m114.8 3.215v77.008a3.219 3.219 0 0 1 -3.215 3.214h-77a3.219 3.219 0 0 1 -2.9-1.838h76.835a3.218 3.218 0 0 0 3.215-3.214v-77a3.11 3.11 0 0 0 -.321-1.385h.17a3.219 3.219 0 0 1 3.216 3.215z" fill="#a67f74"/></g><g fill="#2f3a5a"><path d="m60.34 77.7a1 1 0 0 1 -1-.994l-.163-25.5a1 1 0 0 1 .993-1.006h.007a1 1 0 0 1 1 .993l.163 25.5a1 1 0 0 1 -.993 1.007z"/><path d="m65.747 58.847a1 1 0 0 1 -.768-.358l-4.756-5.675-4.023 5.386a1 1 0 0 1 -1.6-1.2l4.777-6.4a1 1 0 0 1 .773-.4.969.969 0 0 1 .795.357l5.57 6.644a1 1 0 0 1 -.766 1.643z"/><path d="m46.183 77.7a1 1 0 0 1 -1-.994l-.163-25.5a1 1 0 0 1 .993-1.006h.007a1 1 0 0 1 1 .993l.163 25.5a1 1 0 0 1 -.994 1.007z"/><path d="m51.59 58.847a1 1 0 0 1 -.768-.358l-4.757-5.675-4.021 5.386a1 1 0 0 1 -1.6-1.2l4.778-6.4a1 1 0 0 1 .773-.4.984.984 0 0 1 .8.357l5.56 6.643a1 1 0 0 1 -.765 1.643z"/></g><path d="m58.725.003h28.331v19.182h-28.331z" fill="#e1e6e9"/><path d="m103.473 58.943h-20.165a1 1 0 0 1 0-2h20.165a1 1 0 0 1 0 2z" fill="#a67f74"/><path d="m103.473 64.951h-20.165a1 1 0 0 1 0-2h20.165a1 1 0 1 1 0 2z" fill="#a67f74"/><path d="m103.473 70.959h-10.935a1 1 0 0 1 0-2h10.935a1 1 0 1 1 0 2z" fill="#a67f74"/><path d="m25.265 97.9 20.869-7.24 42.246 1.125v.258a9.8 9.8 0 0 1 -9.183 9.782l-16.027 1.013v2.733h29.546l24.069-14.219a7.271 7.271 0 0 1 10.3 3.216l-32.73 25.718a5.063 5.063 0 0 1 -2.6 1.055l-52.858 5.525-13.632-2.556z" fill="#f9c87e"/><path d="m.913 94.802h27.977v33.198h-27.977z" fill="#43567c"/></svg>