<svg id="flat" height="512" viewBox="0 0 128 128" width="512" xmlns="http://www.w3.org/2000/svg"><path d="m18.356 10.4v107.206c0 5.188 20.435 9.394 45.644 9.394s45.644-4.206 45.644-9.394v-107.206z" fill="#acd9e6"/><path d="m64 1c-25.209 0-45.644 4.206-45.644 9.394s20.435 9.4 45.644 9.4 45.644-4.206 45.644-9.4-20.435-9.394-45.644-9.394z" fill="#acd9e6"/><g fill="#91d2d8"><path d="m64 20.789c-22.612 0-46.645-3.643-46.645-10.394s24.033-10.395 46.645-10.395 46.645 3.643 46.645 10.4-24.033 10.389-46.645 10.389zm0-18.789c-27.66 0-44.645 4.889-44.645 8.4s16.985 8.389 44.645 8.389 44.645-4.89 44.645-8.394-16.985-8.395-44.645-8.395z"/><path d="m64 128c-22.612 0-46.645-3.643-46.645-10.395a1 1 0 0 1 2 0c0 3.506 16.985 8.395 44.645 8.395s44.645-4.889 44.645-8.395a1 1 0 0 1 2 0c0 6.752-24.033 10.395-46.645 10.395z"/><path d="m64 91.1c-22.612 0-46.645-3.644-46.645-10.395a1 1 0 0 1 2 0c0 3.5 16.985 8.395 44.645 8.395s44.645-4.89 44.645-8.395a1 1 0 0 1 2 0c0 6.755-24.033 10.395-46.645 10.395z"/><path d="m64 53.032c-22.612 0-46.645-3.643-46.645-10.394a1 1 0 0 1 2 0c0 3.505 16.985 8.394 44.645 8.394s44.645-4.889 44.645-8.394a1 1 0 1 1 2 0c0 6.751-24.033 10.394-46.645 10.394z"/></g><circle cx="64" cy="71.436" fill="#dbe2eb" r="14.344" transform="matrix(.987 -.16 .16 .987 -10.616 11.174)"/><path d="m64 60.487s-7.213 10.7-7.213 14.686a7.213 7.213 0 1 0 14.426 0c0-3.983-7.213-14.686-7.213-14.686z" fill="#43567c"/><ellipse cx="89.179" cy="9.723" fill="#43567c" rx="5.212" ry="2.072"/></svg>