<svg id="flat" height="512" viewBox="0 0 128 128" width="512" xmlns="http://www.w3.org/2000/svg"><rect fill="#f9c87e" height="64.796" rx="2.961" width="64.796" x="31.602" y="31.602"/><path d="m96.4 34.563v58.874a2.964 2.964 0 0 1 -2.963 2.963h-58.874a2.953 2.953 0 0 1 -2.871-2.255 2.529 2.529 0 0 0 .288.017h58.874a2.957 2.957 0 0 0 2.962-2.962v-58.875a2.672 2.672 0 0 0 -.091-.707 2.959 2.959 0 0 1 2.675 2.945z" fill="#edbc7a"/><path d="m73.723 47.964h-10.119-9.327v-16.362h19.446z" fill="#f0f5f7"/><g fill="#2f3a5a"><path d="m84.7 91.544a1 1 0 0 1 -1-.992l-.151-19.725a1 1 0 0 1 .992-1.008h.008a1 1 0 0 1 1 .993l.151 19.724a1 1 0 0 1 -.993 1.008z"/><path d="m89.68 78.97a1 1 0 0 1 -.814-.417l-4.266-5.953-3.6 5.648a1 1 0 0 1 -1.687-1.076l4.4-6.891a1 1 0 0 1 1.656-.045l5.126 7.151a1 1 0 0 1 -.811 1.583z"/><path d="m71.675 91.544a1 1 0 0 1 -1-.992l-.151-19.725a1 1 0 0 1 .993-1.008h.007a1 1 0 0 1 1 .993l.151 19.724a1 1 0 0 1 -.992 1.008z"/><path d="m76.651 78.97a1 1 0 0 1 -.813-.417l-4.265-5.953-3.6 5.645a1 1 0 0 1 -1.687-1.076l4.4-6.891a1.007 1.007 0 0 1 .817-.462 1.026 1.026 0 0 1 .839.417l5.126 7.151a1 1 0 0 1 -.812 1.583z"/></g><path d="m109.276 18.724a64.03 64.03 0 1 0 0 90.552 64.1 64.1 0 0 0 0-90.552zm-86.047 4.5a57.729 57.729 0 0 1 79.243-2.17l-81.413 81.418a57.729 57.729 0 0 1 2.17-79.243zm2.3 83.712 81.413-81.413a57.654 57.654 0 0 1 -81.413 81.413z" fill="#ef5361"/></svg>