<svg id="flat" height="512" viewBox="0 0 128 128" width="512" xmlns="http://www.w3.org/2000/svg"><g fill="#f6ba5b"><path d="m37.348 2.48a2 2 0 0 0 -3.189 0l-20.243 26.728a2 2 0 0 0 1.595 3.207h10.63v73.946a2 2 0 0 0 2 2h15.225a2 2 0 0 0 2-2v-73.946h10.634a2 2 0 0 0 1.595-3.207z"/><path d="m114.084 29.208-20.243-26.728a2 2 0 0 0 -3.189 0l-20.243 26.728a2 2 0 0 0 1.591 3.207h10.63v73.946a2 2 0 0 0 2 2h15.229a2 2 0 0 0 2-2v-73.946h10.63a2 2 0 0 0 1.595-3.207z"/><rect height="9.983" rx="2" width="128" y="116.33"/></g></svg>