<svg id="flat" height="512" viewBox="0 0 128 128" width="512" xmlns="http://www.w3.org/2000/svg"><rect fill="#c79d8a" height="30.471" rx="1.174" width="30.471" x="57.148" y="41.561"/><g opacity=".5"><path d="m87.619 42.734v28.125a1.176 1.176 0 0 1 -1.174 1.175h-28.122a1.178 1.178 0 0 1 -1.061-.672h28.064a1.176 1.176 0 0 0 1.174-1.174v-28.122a1.137 1.137 0 0 0 -.117-.506h.062a1.176 1.176 0 0 1 1.174 1.174z" fill="#a67f74"/></g><g fill="#2f3a5a"><path d="m68.633 70.573a1 1 0 0 1 -1-.994l-.059-9.312a1 1 0 0 1 .993-1.006h.007a1 1 0 0 1 1 .993l.059 9.312a1 1 0 0 1 -.993 1.007z"/><path d="m70.608 63.687a1 1 0 0 1 -.766-.357l-1.222-1.458-.99 1.328a1 1 0 1 1 -1.6-1.2l1.744-2.338a1 1 0 0 1 1.568-.045l2.034 2.426a1 1 0 0 1 -.766 1.643z"/><path d="m62.559 70.573a1 1 0 0 1 -1-.994l-.06-9.312a1 1 0 0 1 .993-1.006h.008a1 1 0 0 1 1 .993l.06 9.312a1 1 0 0 1 -.994 1.007z"/><path d="m64.534 63.687a1 1 0 0 1 -.767-.357l-1.223-1.458-.989 1.328a1 1 0 1 1 -1.6-1.2l1.745-2.337a1 1 0 0 1 .773-.4 1.014 1.014 0 0 1 .8.357l2.027 2.424a1 1 0 0 1 -.765 1.643z"/></g><path d="m67.139 41.561h10.347v7.006h-10.347z" fill="#e1e6e9"/><path d="m83.482 63.722h-7.364a1 1 0 0 1 0-2h7.364a1 1 0 0 1 0 2z" fill="#a67f74"/><path d="m83.482 65.917h-7.364a1 1 0 0 1 0-2h7.364a1 1 0 0 1 0 2z" fill="#a67f74"/><path d="m83.482 68.111h-3.993a1 1 0 0 1 0-2h3.993a1 1 0 0 1 0 2z" fill="#a67f74"/><rect fill="#c79d8a" height="30.471" rx="1.174" width="30.471" x="93.868" y="41.561"/><g opacity=".5"><path d="m124.339 42.734v28.125a1.176 1.176 0 0 1 -1.174 1.175h-28.122a1.178 1.178 0 0 1 -1.061-.672h28.064a1.176 1.176 0 0 0 1.174-1.174v-28.122a1.137 1.137 0 0 0 -.117-.506h.062a1.176 1.176 0 0 1 1.174 1.174z" fill="#a67f74"/></g><path d="m105.354 70.573a1 1 0 0 1 -1-.994l-.06-9.312a1 1 0 0 1 2-.013l.06 9.312a1 1 0 0 1 -.994 1.007z" fill="#2f3a5a"/><path d="m107.329 63.687a1 1 0 0 1 -.767-.357l-1.223-1.458-.989 1.328a1 1 0 1 1 -1.6-1.2l1.745-2.338a1 1 0 0 1 1.567-.045l2.034 2.426a1 1 0 0 1 -.765 1.643z" fill="#2f3a5a"/><path d="m99.278 70.573a1 1 0 0 1 -1-.994l-.059-9.312a1 1 0 0 1 .993-1.006.985.985 0 0 1 1.007.993l.059 9.312a1 1 0 0 1 -.993 1.007z" fill="#2f3a5a"/><path d="m101.253 63.687a1 1 0 0 1 -.766-.357l-1.222-1.458-.99 1.325a1 1 0 0 1 -1.6-1.2l1.744-2.338a1 1 0 0 1 1.568-.045l2.034 2.426a1 1 0 0 1 -.766 1.643z" fill="#2f3a5a"/><path d="m103.859 41.561h10.347v7.006h-10.347z" fill="#e1e6e9"/><path d="m120.2 63.722h-7.365a1 1 0 0 1 0-2h7.365a1 1 0 0 1 0 2z" fill="#a67f74"/><path d="m120.2 65.917h-7.365a1 1 0 0 1 0-2h7.365a1 1 0 0 1 0 2z" fill="#a67f74"/><path d="m120.2 68.111h-3.993a1 1 0 0 1 0-2h3.993a1 1 0 0 1 0 2z" fill="#a67f74"/><path d="m126 71.74h-74.281v-41.135a2 2 0 0 0 -2-2h-27.572a2 2 0 0 0 -1.6.8l-20.147 26.977a1.993 1.993 0 0 0 -.4 1.2v30.18a2 2 0 0 0 2 2h124a2 2 0 0 0 2-2v-14.022a2 2 0 0 0 -2-2z" fill="#8ae0a1"/><path d="m126 71.74h-74.281v-.01 3.722h76.281v-1.712a2 2 0 0 0 -2-2z" fill="#6fc682"/><path d="m45.719 58.532v-23.927h-21.567l-17.871 23.927z" fill="#43567c"/><path d="m101.008 77.123a11.136 11.136 0 1 0 11.135 11.136 11.136 11.136 0 0 0 -11.135-11.136z" fill="#43567c"/><path d="m101.008 82.17a6.09 6.09 0 1 0 6.089 6.089 6.089 6.089 0 0 0 -6.089-6.089z" fill="#dbe2eb"/><path d="m20.613 77.123a11.136 11.136 0 1 0 11.136 11.136 11.136 11.136 0 0 0 -11.136-11.136z" fill="#43567c"/><path d="m20.613 82.17a6.09 6.09 0 1 0 6.09 6.089 6.089 6.089 0 0 0 -6.09-6.089z" fill="#dbe2eb"/></svg>