<svg id="flat" height="512" viewBox="0 0 128 128" width="512" xmlns="http://www.w3.org/2000/svg"><path d="m128 80.365a8.718 8.718 0 0 0 -8.833-8.222h-3.697a8.481 8.481 0 0 0 8.478-8.742 8.717 8.717 0 0 0 -8.833-8.221h-26.438a4.366 4.366 0 0 1 -3.777-6.627l.039-.058c1.952-2.966 5.109-4.9 8.247-6.561s7.308-5.889 9.563-8.633c5.476-6.667 5.3-17.651 1.372-24.418a6.645 6.645 0 0 0 -4.351-3.283c-4.365-.863-7.415 2.757-8.872 6.333-7.2 17.683-21.59 23.52-34.848 28.993l-23.673 14.254-.919 57.689 32.84 9.662h46.274a8.459 8.459 0 0 0 8.572-7.977 8.23 8.23 0 0 0 -8.226-8.483h4.2a8.717 8.717 0 0 0 8.833-8.221 8.482 8.482 0 0 0 -8.478-8.743h4.048a8.482 8.482 0 0 0 8.479-8.742z" fill="#f0c191"/><rect fill="#6bb3d9" height="70.098" rx="3.641" width="36.251" y="47.378"/></svg>