<svg id="flat" height="512" viewBox="0 0 128 128" width="512" xmlns="http://www.w3.org/2000/svg"><path d="m102.424 47.888c-4.445 1.313-12.1.409-11.719-21.652.593-34.383-55.021-35.574-53.413 0 1 22.211-7.032 22.967-11.659 21.617a1.485 1.485 0 0 0 -1.8 2.032c2.6 5.559 9.582 16.028 25.54 17h29.267c15.9-.978 22.89-11.371 25.512-16.942a1.476 1.476 0 0 0 -1.728-2.055z" fill="#43567c"/><path d="m80.353 74.18a4.217 4.217 0 0 1 -3.08-4.061v-17.594h-26.534v17.594a4.217 4.217 0 0 1 -3.08 4.061l-8.972 2.51v24.155h52.637v-23.595z" fill="#ddb087"/><path d="m116.9 128-3.706-34a16.46 16.46 0 0 0 -10.141-13.471l-18.583-5.2a22.718 22.718 0 0 1 -40.93 0l-18.583 5.2a16.508 16.508 0 0 0 -10.157 13.476l-3.7 33.995z" fill="#f26176"/><path d="m85.749 42.311c0 15.945-12.677 28.878-21.751 28.878-8.228 0-21.735-12.933-21.735-28.878 0-1.179.046-2.344.155-3.477 17.7-.528 25.57-19.779 27.2-24.422 9.3 3.276 16.131 14.517 16.131 27.899z" fill="#e8c79c"/><g fill="#2f3a5a"><path d="m65.716 64.08a1.159 1.159 0 1 1 0-2.318c18.948 0 19.743-13.623 19.768-14.2a1.161 1.161 0 0 1 1.157-1.113h.047a1.159 1.159 0 0 1 1.113 1.2c-.001.162-.848 16.431-22.085 16.431z"/><path d="m67.441 60.092c-1.9 0-3.435 1.217-3.435 2.717s1.538 2.716 3.435 2.716 3.435-1.216 3.435-2.716-1.538-2.717-3.435-2.717z"/><path d="m67.442 66.685c-2.534 0-4.6-1.739-4.6-3.876s2.062-3.875 4.6-3.875 4.594 1.738 4.594 3.875-2.061 3.876-4.594 3.876zm0-5.433c-1.234 0-2.277.713-2.277 1.557s1.043 1.558 2.277 1.558 2.275-.714 2.275-1.558-1.041-1.557-2.275-1.557z"/></g></svg>