<svg id="flat" height="512" viewBox="0 0 128 128" width="512" xmlns="http://www.w3.org/2000/svg"><rect fill="#c79d8a" height="50.862" rx="1.96" width="50.862" x="8.807" y="23.064"/><g opacity=".5"><path d="m59.669 25.022v46.948a1.963 1.963 0 0 1 -1.96 1.96h-46.941a1.963 1.963 0 0 1 -1.768-1.121h46.842a1.962 1.962 0 0 0 1.959-1.96v-46.942a1.9 1.9 0 0 0 -.2-.844h.1a1.962 1.962 0 0 1 1.968 1.959z" fill="#a67f74"/></g><g fill="#2f3a5a"><path d="m27.474 70.822a1 1 0 0 1 -1-.993l-.1-15.545a1 1 0 0 1 .994-1.006h.006a1 1 0 0 1 1 .993l.1 15.545a1 1 0 0 1 -.994 1.006z"/><path d="m30.77 59.329a1 1 0 0 1 -.77-.358l-2.584-3.082-2.153 2.891a1 1 0 0 1 -1.6-1.2l2.913-3.9a1 1 0 0 1 .773-.4.976.976 0 0 1 .795.357l3.4 4.051a1 1 0 0 1 -.766 1.643z"/><path d="m17.838 70.822a1 1 0 0 1 -1-.993l-.1-15.545a1 1 0 0 1 .994-1.006h.006a1 1 0 0 1 1 .993l.1 15.545a1 1 0 0 1 -.994 1.006z"/><path d="m21.134 59.329a1 1 0 0 1 -.767-.358l-2.583-3.082-2.157 2.891a1 1 0 0 1 -1.6-1.2l2.913-3.9a1 1 0 0 1 .773-.4.976.976 0 0 1 .795.357l3.392 4.049a1 1 0 0 1 -.766 1.643z"/></g><path d="m25.484 23.064h17.272v11.694h-17.272z" fill="#e1e6e9"/><path d="m52.764 59.387h-12.293a1 1 0 0 1 0-2h12.293a1 1 0 1 1 0 2z" fill="#a67f74"/><path d="m52.764 63.05h-12.293a1 1 0 1 1 0-2h12.293a1 1 0 0 1 0 2z" fill="#a67f74"/><path d="m52.764 66.713h-6.664a1 1 0 1 1 0-2h6.665a1 1 0 1 1 0 2z" fill="#a67f74"/><rect fill="#c79d8a" height="50.862" rx="1.96" width="50.862" x="68.33" y="23.064"/><g opacity=".5"><path d="m119.192 25.022v46.948a1.962 1.962 0 0 1 -1.959 1.96h-46.942a1.963 1.963 0 0 1 -1.77-1.121h46.844a1.962 1.962 0 0 0 1.959-1.96v-46.942a1.89 1.89 0 0 0 -.195-.844h.1a1.961 1.961 0 0 1 1.963 1.959z" fill="#a67f74"/></g><path d="m87 70.822a1 1 0 0 1 -1-.993l-.1-15.545a1 1 0 0 1 2-.013l.1 15.545a1 1 0 0 1 -1 1.006z" fill="#2f3a5a"/><path d="m90.293 59.329a1 1 0 0 1 -.767-.358l-2.584-3.082-2.156 2.891a1 1 0 1 1 -1.6-1.2l2.913-3.9a1 1 0 0 1 .773-.4.971.971 0 0 1 .8.357l3.395 4.051a1 1 0 0 1 -.766 1.643z" fill="#2f3a5a"/><path d="m77.361 70.822a1 1 0 0 1 -1-.993l-.1-15.545a1 1 0 0 1 .994-1.006h.006a1 1 0 0 1 1 .993l.1 15.545a1 1 0 0 1 -.993 1.006z" fill="#2f3a5a"/><path d="m80.658 59.329a1 1 0 0 1 -.767-.358l-2.584-3.082-2.157 2.891a1 1 0 1 1 -1.6-1.2l2.913-3.9a1 1 0 0 1 .773-.4.969.969 0 0 1 .794.357l3.4 4.051a1 1 0 0 1 -.765 1.643z" fill="#2f3a5a"/><path d="m85.007 23.064h17.272v11.694h-17.272z" fill="#e1e6e9"/><path d="m112.288 59.387h-12.294a1 1 0 0 1 0-2h12.294a1 1 0 1 1 0 2z" fill="#a67f74"/><path d="m112.288 63.05h-12.294a1 1 0 0 1 0-2h12.294a1 1 0 0 1 0 2z" fill="#a67f74"/><path d="m112.288 66.713h-6.666a1 1 0 1 1 0-2h6.666a1 1 0 0 1 0 2z" fill="#a67f74"/><path d="m9.5 77.869h22.708v23.019h-22.708z" fill="#bf9a71"/><path d="m52.646 77.869h22.708v23.019h-22.708z" fill="#bf9a71"/><path d="m95.792 77.869h22.708v23.019h-22.708z" fill="#bf9a71"/><path d="m0 73.819h128v8.1h-128z" fill="#d0aa79"/><path d="m0 96.838h128v8.1h-128z" fill="#d0aa79"/></svg>