<svg id="flat" height="512" viewBox="0 0 128 128" width="512" xmlns="http://www.w3.org/2000/svg"><path d="m35.363 37.108c-1.355 0-4.237-1.2-11.193-6.53a179.976 179.976 0 0 1 -16.21-14.133c-4.114-4.113-6.56-7.28-7.496-9.681a4.6 4.6 0 0 1 .91-5.364c3.045-3.05 7.264-1.2 15.049 6.582a180.134 180.134 0 0 1 14.133 16.21c7.984 10.411 6.7 11.7 6 12.391a1.5 1.5 0 0 1 -1.193.525zm-30.863-35.097a2.233 2.233 0 0 0 -1.712.8c-.74.74-1.1 1.573-.459 3.232.828 2.135 3.133 5.076 7.045 8.989 9.044 9.044 22.689 19.651 25.667 20.032-.381-2.979-10.988-16.624-20.032-25.664-5.973-5.978-8.92-7.389-10.509-7.389z" fill="#2f3a5a"/><path d="m63.652 18.459-35.3-3.35a8.332 8.332 0 0 0 -6.71 2.416l-4.123 4.123a8.372 8.372 0 0 0 -2.416 6.71l3.35 35.3a8.435 8.435 0 0 0 2.427 5.132l56.978 56.979a7.614 7.614 0 0 0 10.769-.011l37.138-37.137a7.614 7.614 0 0 0 .011-10.769l-56.976-56.977a8.37 8.37 0 0 0 -5.148-2.416zm-22.834 22.367a7.011 7.011 0 1 1 0-9.924 7.015 7.015 0 0 1 0 9.924z" fill="#f9c87e"/><path d="m36.561 36.583-1.414-1.415a.377.377 0 0 0 -.1.174c.377-2.271-10.669-16.578-20.038-25.942-9.402-9.407-11.309-7.5-12.221-6.59-.74.74-1.1 1.573-.459 3.232.828 2.135 3.133 5.076 7.045 8.989l-1.414 1.414c-4.114-4.113-6.56-7.28-7.496-9.681a4.6 4.6 0 0 1 .91-5.364c3.045-3.05 7.264-1.2 15.049 6.582a180 180 0 0 1 14.133 16.21c7.984 10.408 6.697 11.699 6.005 12.391z" fill="#2f3a5a"/><g fill="#f6ba5b"><path d="m83.037 119.11a1 1 0 0 1 -.707-.293l-50.883-50.883a1 1 0 0 1 0-1.414l35.076-35.075a1 1 0 0 1 1.414 0l50.883 50.883a1 1 0 0 1 0 1.414l-35.076 35.075a1 1 0 0 1 -.707.293zm-49.468-51.883 49.468 49.473 33.663-33.665-49.47-49.469z"/><path d="m99.623 85.605a1 1 0 0 1 -.707-.293l-33.964-33.964a1 1 0 1 1 1.414-1.414l33.964 33.966a1 1 0 0 1 -.707 1.707z"/><path d="m92.116 93.113a1 1 0 0 1 -.707-.293l-33.964-33.964a1 1 0 0 1 1.414-1.414l33.964 33.964a1 1 0 0 1 -.707 1.707z"/><path d="m84.608 100.621a1 1 0 0 1 -.707-.293l-33.964-33.964a1 1 0 0 1 1.414-1.414l33.964 33.964a1 1 0 0 1 -.707 1.707z"/></g></svg>